<svg width="173" height="266" viewBox="0 0 173 266" fill="none" xmlns="http://www.w3.org/2000/svg">
<g clip-path="url(#clip0_165_4430)">
<path d="M47.7162 118.433C61.3975 118.433 72.4885 107.342 72.4885 93.6609C72.4885 79.9796 61.3975 68.8887 47.7162 68.8887C34.0348 68.8887 22.9439 79.9796 22.9439 93.6609C22.9439 107.342 34.0348 118.433 47.7162 118.433Z" fill="black" stroke="black" stroke-width="2.0755" stroke-linecap="round" stroke-linejoin="round"/>
<path d="M125.481 118.433C139.163 118.433 150.254 107.342 150.254 93.6609C150.254 79.9796 139.163 68.8887 125.481 68.8887C111.8 68.8887 100.709 79.9796 100.709 93.6609C100.709 107.342 111.8 118.433 125.481 118.433Z" fill="black" stroke="black" stroke-width="2.0755" stroke-linecap="round" stroke-linejoin="round"/>
<path d="M34.8256 352.098C34.8256 358.527 29.6138 363.734 23.189 363.734C16.7641 363.734 11.5523 358.522 11.5523 352.098V178.705C11.5523 172.276 16.7641 167.069 23.189 167.069C29.6138 167.069 34.8256 172.281 34.8256 178.705V352.098Z" fill="#C64309" stroke="black" stroke-width="2.0755" stroke-linecap="round" stroke-linejoin="round"/>
<path d="M161.655 352.259C161.655 358.688 156.443 363.895 150.018 363.895C143.593 363.895 138.381 358.684 138.381 352.259V178.867C138.381 172.437 143.593 167.23 150.018 167.23C156.443 167.23 161.655 172.442 161.655 178.867V352.259Z" fill="#C64309" stroke="black" stroke-width="2.0755" stroke-linecap="round" stroke-linejoin="round"/>
<path d="M138.447 320.979L138.359 227.822C178.74 227.822 174.326 194.798 171.789 186.63C162.214 155.82 141.588 136.204 99.7505 125.029H73.4516C31.6094 136.204 10.9881 155.82 1.41316 186.63C-1.12818 194.803 -5.53747 227.822 34.8426 227.822L34.755 320.979C34.7457 334.175 45.4369 344.875 58.6325 344.875H114.57C127.765 344.875 138.456 334.175 138.447 320.979Z" fill="#F79E71" stroke="black" stroke-width="2.0755" stroke-linecap="round" stroke-linejoin="round"/>
<path d="M106.698 105.92H66.5025C62.5517 105.92 59.3489 109.123 59.3489 113.073V122.515C59.3489 126.466 62.5517 129.668 66.5025 129.668H106.698C110.649 129.668 113.852 126.466 113.852 122.515V113.073C113.852 109.123 110.649 105.92 106.698 105.92Z" fill="#F79E71" stroke="black" stroke-width="2.0755" stroke-linecap="round" stroke-linejoin="round"/>
<path d="M118.196 58.1744C115.415 65.8999 115.751 79.3076 122.827 81.8582C129.906 84.4087 141.045 75.1336 143.826 67.4081C146.607 59.6826 143.125 51.3575 136.05 48.8069C128.97 46.2564 120.977 50.4489 118.196 58.1744Z" fill="#C64309" stroke="black" stroke-width="2.0755" stroke-linecap="round" stroke-linejoin="round"/>
<path d="M55.0787 58.1744C57.8598 65.8999 57.5231 79.3076 50.448 81.8582C43.3682 84.4087 32.2297 75.1336 29.4485 67.4081C26.6673 59.6826 30.1496 51.3575 37.2247 48.8069C44.3045 46.2564 52.2975 50.4489 55.0787 58.1744Z" fill="#C64309" stroke="black" stroke-width="2.0755" stroke-linecap="round" stroke-linejoin="round"/>
<path d="M127.713 58.2482C127.713 93.1074 105.994 116.067 86.6367 116.067C67.2792 116.067 45.5602 93.1028 45.5602 58.2482C45.5602 23.3936 55.4488 5 86.6367 5C117.825 5 127.713 23.3889 127.713 58.2482Z" fill="#C64309" stroke="black" stroke-width="2.0755" stroke-linecap="round" stroke-linejoin="round"/>
<path d="M86.6376 57.5288V79.2985" stroke="black" stroke-width="2.0755" stroke-linecap="round" stroke-linejoin="round"/>
<path d="M94.901 91.1428C90.9068 90.0358 89.2556 88.9842 86.6405 92.7709C84.0254 88.9842 82.3742 90.0358 78.38 91.1428C78.38 91.1428 80.1419 97.4892 86.6405 97.4892C93.1391 97.4892 94.901 91.1428 94.901 91.1428Z" fill="#7C2300" stroke="#7C2300" stroke-width="2.0755" stroke-linecap="round" stroke-linejoin="round"/>
<path d="M67.9858 46.0581H56.3722C48.7432 46.0581 42.5586 52.2427 42.5586 59.8717V62.9296C42.5586 70.5587 48.7432 76.7433 56.3722 76.7433H67.9858C75.6149 76.7433 81.7994 70.5587 81.7994 62.9296V59.8717C81.7994 52.2427 75.6149 46.0581 67.9858 46.0581Z" stroke="black" stroke-width="2.0755" stroke-linecap="round" stroke-linejoin="round"/>
<path d="M116.831 46.0581H105.218C97.5886 46.0581 91.404 52.2427 91.404 59.8717V62.9296C91.404 70.5587 97.5886 76.7433 105.218 76.7433H116.831C124.46 76.7433 130.645 70.5587 130.645 62.9296V59.8717C130.645 52.2427 124.46 46.0581 116.831 46.0581Z" stroke="black" stroke-width="2.0755" stroke-linecap="round" stroke-linejoin="round"/>
<path d="M54.7421 58.2802C59.4743 52.8608 60.2768 52.478 66.1251 52.478C71.9734 52.478 77.1114 55.25 77.1114 61.0983C77.1114 61.0983 73.0388 65.1939 66.1251 65.1939C58.6441 65.1939 54.7421 58.2802 54.7421 58.2802Z" fill="#F8F5EF"/>
<path d="M66.3938 65.1893C69.9039 65.1893 72.7494 62.3438 72.7494 58.8337C72.7494 55.3235 69.9039 52.478 66.3938 52.478C62.8837 52.478 60.0381 55.3235 60.0381 58.8337C60.0381 62.3438 62.8837 65.1893 66.3938 65.1893Z" fill="black"/>
<path d="M54.7421 58.2802C57.1866 54.4843 60.2768 52.478 66.1251 52.478C71.9734 52.478 75.6678 55.1946 77.1114 61.0983" stroke="black" stroke-width="2.0755" stroke-linecap="round" stroke-linejoin="round"/>
<path d="M118.452 58.2802C113.72 52.8608 112.918 52.478 107.069 52.478C101.221 52.478 96.0831 55.25 96.0831 61.0983C96.0831 61.0983 100.156 65.1939 107.069 65.1939C114.55 65.1939 118.452 58.2802 118.452 58.2802Z" fill="#F8F5EF"/>
<path d="M106.804 65.1893C110.314 65.1893 113.16 62.3438 113.16 58.8337C113.16 55.3235 110.314 52.478 106.804 52.478C103.294 52.478 100.449 55.3235 100.449 58.8337C100.449 62.3438 103.294 65.1893 106.804 65.1893Z" fill="black"/>
<path d="M118.452 58.2802C116.008 54.4843 112.918 52.478 107.069 52.478C101.221 52.478 97.5267 55.1946 96.0831 61.0983" stroke="black" stroke-width="2.0755" stroke-linecap="round" stroke-linejoin="round"/>
<path d="M81.7987 62.6482C81.7987 61.1446 83.948 59.9224 86.6 59.9224C89.2521 59.9224 91.4014 61.1446 91.4014 62.6482" stroke="black" stroke-width="2.0755" stroke-linecap="round" stroke-linejoin="round"/>
<path d="M127.094 44.605C89.5505 34.9977 72.7482 6.53565 72.7482 6.53565H72.7528C76.8208 5.51635 81.4284 5.00439 86.631 5.00439C113.465 5.00439 124.53 18.6105 127.094 44.605Z" fill="black" stroke="black" stroke-width="2.0755" stroke-linecap="round" stroke-linejoin="round"/>
<path d="M72.756 6.53125C65.5378 33.0054 46.1711 44.6052 46.1711 44.6052C48.242 23.6518 55.8337 10.7468 72.756 6.53125Z" fill="black" stroke="black" stroke-width="2.0755" stroke-linecap="round" stroke-linejoin="round"/>
</g>
<defs>
<clipPath id="clip0_165_4430">
<rect width="173" height="266" fill="white"/>
</clipPath>
</defs>
</svg>
