<svg width="215" height="266" viewBox="0 0 215 266" fill="none" xmlns="http://www.w3.org/2000/svg">
<g clip-path="url(#clip0_165_4596)">
<path d="M127.656 139.714H88.7338V177.188H127.656V139.714Z" fill="#66BF84" stroke="black" stroke-width="2.0755" stroke-linecap="round" stroke-linejoin="round"/>
<path d="M88.5487 162.604C88.5487 162.604 58.9796 163.91 39.742 180.398C12.0133 204.17 0.542734 245.412 0.575019 389.923C0.575019 401.767 10.1638 411.374 22.008 411.402C33.8937 411.43 43.5471 401.799 43.5471 389.914V364.14C43.5471 364.14 61.7516 389.978 108.192 389.969C154.531 389.96 172.653 364.14 172.653 364.14V389.914C172.653 401.799 182.306 411.43 194.192 411.402C206.036 411.374 215.62 401.762 215.625 389.923C215.652 245.417 204.186 204.17 176.458 180.398C157.225 163.91 127.651 162.604 127.651 162.604C115.35 168.444 101.085 168.48 88.7562 162.701L88.544 162.604H88.5487Z" fill="#2F9C57" stroke="black" stroke-width="2.0755" stroke-linecap="round" stroke-linejoin="round"/>
<path d="M118.05 28.9053H98.2453C71.7817 28.9053 50.3289 50.3582 50.3289 76.8217C50.3289 103.285 71.7817 124.738 98.2453 124.738H118.05C144.514 124.738 165.967 103.285 165.967 76.8217C165.967 50.3582 144.514 28.9053 118.05 28.9053Z" fill="#9B9B9B" stroke="black" stroke-width="2.0755" stroke-linecap="round" stroke-linejoin="round"/>
<path d="M65.1656 73.1504H48.7922C44.1409 73.1504 40.3702 76.921 40.3702 81.5723V114.55C40.3702 119.201 44.1409 122.972 48.7922 122.972H65.1656C69.8169 122.972 73.5875 119.201 73.5875 114.55V81.5723C73.5875 76.921 69.8169 73.1504 65.1656 73.1504Z" fill="#9B9B9B" stroke="black" stroke-width="2.0755" stroke-linecap="round" stroke-linejoin="round"/>
<path d="M167.651 73.1504H151.277C146.626 73.1504 142.855 76.921 142.855 81.5723V114.55C142.855 119.201 146.626 122.972 151.277 122.972H167.651C172.302 122.972 176.073 119.201 176.073 114.55V81.5723C176.073 76.921 172.302 73.1504 167.651 73.1504Z" fill="#9B9B9B" stroke="black" stroke-width="2.0755" stroke-linecap="round" stroke-linejoin="round"/>
<path d="M115.114 51.9663H101.328C82.3454 51.9663 66.9573 67.3544 66.9573 86.3366V113.429C66.9573 132.411 82.3454 147.799 101.328 147.799H115.114C134.096 147.799 149.484 132.411 149.484 113.429V86.3366C149.484 67.3544 134.096 51.9663 115.114 51.9663Z" fill="#66BF84" stroke="black" stroke-width="2.0755" stroke-linecap="round" stroke-linejoin="round"/>
<path d="M77.5452 97.3093C77.4253 94.4082 79.2517 92.019 82.7247 89.8513C85.6212 88.0433 94.2691 89.3855 94.2691 89.3855C97.2901 89.2609 101.261 95.6304 101.381 98.5315C101.381 98.5315 97.5715 100.095 89.6108 100.413C81.6408 100.732 77.5498 97.3093 77.5498 97.3093H77.5452Z" fill="#F8F5EF"/>
<path d="M77.5445 97.3094C77.4246 94.4084 79.5278 90.7877 83.6511 88.7814C85.9711 87.6514 90.5694 87.0288 94.2684 88.9567C96.9481 90.3542 99.0006 92.3605 101.38 97.6738" stroke="black" stroke-width="2.0755" stroke-miterlimit="10" stroke-linecap="round"/>
<path d="M138.902 97.3093C139.022 94.4082 137.195 92.019 133.722 89.8513C130.826 88.0433 122.178 89.3855 122.178 89.3855C119.157 89.2609 115.186 95.6304 115.066 98.5315C115.066 98.5315 118.876 100.095 126.836 100.413C134.806 100.732 138.897 97.3093 138.897 97.3093H138.902Z" fill="#F8F5EF"/>
<path d="M138.902 97.3094C139.022 94.4084 136.919 90.7877 132.795 88.7814C130.475 87.6514 125.877 87.0288 122.178 88.9567C119.498 90.3542 117.446 92.3605 115.066 97.6738" stroke="black" stroke-width="2.0755" stroke-miterlimit="10" stroke-linecap="round"/>
<path d="M126.932 99.9707C130.225 99.9707 132.895 97.3007 132.895 94.0071C132.895 90.7135 130.225 88.0435 126.932 88.0435C123.638 88.0435 120.968 90.7135 120.968 94.0071C120.968 97.3007 123.638 99.9707 126.932 99.9707Z" fill="black"/>
<path d="M89.5116 99.9707C92.8052 99.9707 95.4752 97.3007 95.4752 94.0071C95.4752 90.7135 92.8052 88.0435 89.5116 88.0435C86.218 88.0435 83.548 90.7135 83.548 94.0071C83.548 97.3007 86.218 99.9707 89.5116 99.9707Z" fill="black"/>
<path d="M108.225 116.109V92.1157" stroke="black" stroke-width="2.0755" stroke-linecap="round" stroke-linejoin="round"/>
<path d="M119.095 129.189C119.095 129.189 112.338 127.515 108.22 129.452H108.067C103.953 127.515 97.1918 129.189 97.1918 129.189C97.1918 129.189 99.1612 135.771 108.146 135.771C117.13 135.771 119.1 129.189 119.1 129.189H119.095Z" fill="#2F9C57" stroke="#2F9C57" stroke-width="2.0755" stroke-linecap="round" stroke-linejoin="round"/>
<path d="M63.8657 79.7689C60.0514 79.7689 57.1088 76.6695 57.57 73.155C57.9252 70.4799 58.4879 67.8786 59.2397 65.3741C64.5622 47.7278 83.6568 34.9473 100.976 34.9473H115.467C132.823 34.9473 151.95 47.7877 157.24 65.4987C157.978 67.9662 158.527 70.526 158.878 73.1596C159.339 76.6695 156.396 79.7643 152.582 79.7643H92.5307C89.8188 79.7643 87.4619 77.6611 86.8208 74.677L85.0497 66.3981C84.6484 64.5163 81.7335 64.5439 81.3737 66.4303L79.8194 74.5202C79.2337 77.5827 76.8399 79.7643 74.0772 79.7643H63.8657V79.7689Z" fill="#F8F5EF" stroke="black" stroke-width="2.0755" stroke-miterlimit="10"/>
</g>
<defs>
<clipPath id="clip0_165_4596">
<rect width="215" height="266" fill="white"/>
</clipPath>
</defs>
</svg>
