<svg width="239" height="266" viewBox="0 0 239 266" fill="none" xmlns="http://www.w3.org/2000/svg">
<g clip-path="url(#clip0_165_4567)">
<path d="M211.724 352.085H223.117C231.787 352.085 238.78 343.732 238.595 333.562C236.33 208.386 210.465 160.008 162.839 160.008H75.7604C28.1345 160.008 2.26915 208.386 0.00454536 333.562C-0.179944 343.732 6.81211 352.085 15.4831 352.085H211.724Z" fill="#F98AA7" stroke="black" stroke-width="2.0755" stroke-linecap="round" stroke-linejoin="round"/>
<path d="M194.125 219.875C194.125 219.875 205.139 240.934 203.382 323.742C202.824 350 192.455 371.497 164.547 371.497H74.0547C46.1461 371.497 35.7778 350 35.2197 323.742C33.4625 240.934 44.4765 219.875 44.4765 219.875" fill="#F98AA7"/>
<path d="M194.125 219.875C194.125 219.875 205.139 240.934 203.382 323.742C202.824 350 192.455 371.497 164.547 371.497H74.0547C46.1461 371.497 35.7778 350 35.2197 323.742C33.4625 240.934 44.4765 219.875 44.4765 219.875" stroke="black" stroke-width="2.0755" stroke-linecap="round" stroke-linejoin="round"/>
<path d="M179.107 177.544C144.847 174.583 137.781 180.878 125.55 199.484C119.738 208.321 104.444 248.268 71.6234 247.746C28.2177 247.059 30.0534 162.24 77.0982 146.942C98.1853 140.083 93.4993 166.866 164.883 144.087C180.477 139.11 212.061 160.626 219.805 201.417C209.741 182.11 185.25 178.079 179.102 177.544H179.107Z" fill="#B5304D" stroke="black" stroke-width="2.0755" stroke-linecap="round" stroke-linejoin="round"/>
<path d="M173.852 104.5C173.852 139.516 163.368 167.904 119.303 167.904C75.2378 167.904 64.7542 139.516 64.7542 104.5C64.7542 69.484 86.713 41.0957 119.303 41.0957C151.893 41.0957 173.852 69.484 173.852 104.5Z" fill="#B5304D" stroke="black" stroke-width="2.0755" stroke-linecap="round" stroke-linejoin="round"/>
<path d="M163.364 98.5457C163.364 128.285 154.983 152.393 119.298 152.393C83.6135 152.393 75.233 128.285 75.233 98.5457C75.233 68.8061 94.9642 49.1626 119.298 49.1626C143.632 49.1626 163.364 68.8061 163.364 98.5457Z" fill="#E04C73" stroke="black" stroke-width="2.0755" stroke-linecap="round" stroke-linejoin="round"/>
<path d="M119.3 108.384V91.2539" stroke="black" stroke-width="2.0755" stroke-linecap="round" stroke-linejoin="round"/>
<path d="M129.244 126.334C122.676 121.049 119.175 127.003 119.175 127.003C119.175 127.003 116.763 120.671 109.356 126.334C109.356 126.334 109.277 134.337 119.175 134.35C129.244 134.369 129.244 126.334 129.244 126.334Z" fill="black" stroke="black" stroke-width="2.0755" stroke-linecap="round" stroke-linejoin="round"/>
<path d="M154.988 99.339C151.33 102.775 139.449 110.321 127.849 100.303C132.282 91.7564 146.907 87.5593 154.988 99.339Z" fill="#F8F5EF"/>
<path d="M154.972 98.9698C154.972 98.9698 139.788 81.5033 127.833 99.9338" stroke="black" stroke-width="2.0755" stroke-miterlimit="10" stroke-linecap="round"/>
<path d="M133.914 98.0107C134.048 101.834 137.35 104.8 141.206 104.482C144.684 104.196 147.414 101.184 147.373 97.6925C147.35 95.8845 146.621 94.2563 145.454 93.0618C144.177 91.7565 142.405 91.881 140.436 91.9502C138.577 92.0148 135.718 93.1817 135.718 93.1817C134.542 94.4408 133.85 96.152 133.914 98.0107Z" fill="black"/>
<path d="M83.6143 99.339C87.2718 102.775 99.1529 110.321 110.753 100.303C106.32 91.7564 91.6949 87.5593 83.6143 99.339Z" fill="#F8F5EF"/>
<path d="M83.6263 98.9698C83.6263 98.9698 98.8098 81.5033 110.765 99.9338" stroke="black" stroke-width="2.0755" stroke-miterlimit="10" stroke-linecap="round"/>
<path d="M104.688 98.0107C104.554 101.834 101.251 104.8 97.3956 104.482C93.918 104.196 91.1875 101.184 91.229 97.6925C91.252 95.8845 91.9808 94.2563 93.1477 93.0618C94.4253 91.7565 96.1964 91.881 98.1658 91.9502C100.025 92.0148 102.884 93.1817 102.884 93.1817C104.06 94.4408 104.752 96.152 104.688 98.0107Z" fill="black"/>
<path d="M119.297 70.1623C140.297 70.1623 157.976 78.0446 163.257 94.8423C161.702 66.8276 142.617 49.1582 119.297 49.1582C95.978 49.1582 76.8926 66.8276 75.3383 94.8423C80.6193 78.0446 98.298 70.1623 119.297 70.1623Z" fill="#FFC2D2" stroke="black" stroke-width="2.0755" stroke-linecap="round" stroke-linejoin="round"/>
<path d="M84.3154 87.9238C91.2338 82.7119 102.981 81.2683 109.747 86.3233" stroke="black" stroke-width="2.0755" stroke-linecap="round" stroke-linejoin="round"/>
<path d="M154.118 87.9238C147.199 82.7119 135.452 81.2683 128.686 86.3233" stroke="black" stroke-width="2.0755" stroke-linecap="round" stroke-linejoin="round"/>
</g>
<defs>
<clipPath id="clip0_165_4567">
<rect width="239" height="266" fill="white"/>
</clipPath>
</defs>
</svg>
