<svg width="195" height="266" viewBox="0 0 195 266" fill="none" xmlns="http://www.w3.org/2000/svg">
<g clip-path="url(#clip0_165_4528)">
<path d="M33.3377 402.33C26.9682 402.33 21.8071 397.169 21.8071 390.799V236.645C21.8071 230.275 26.9682 225.114 33.3377 225.114C39.7072 225.114 44.8683 230.275 44.8683 236.645V390.799C44.8683 397.169 39.7072 402.33 33.3377 402.33Z" fill="#135BA3" stroke="black" stroke-width="2.0755" stroke-linecap="round" stroke-linejoin="round"/>
<path d="M160.345 402.473C153.975 402.473 148.814 397.312 148.814 390.942V236.788C148.814 230.418 153.975 225.257 160.345 225.257C166.714 225.257 171.875 230.418 171.875 236.788V390.942C171.875 397.312 166.714 402.473 160.345 402.473Z" fill="#135BA3" stroke="black" stroke-width="2.0755" stroke-linecap="round" stroke-linejoin="round"/>
<path d="M112.257 138.778H81.4196V190.043H112.257V138.778Z" fill="#135BA3" stroke="black" stroke-width="2.0755" stroke-linecap="round" stroke-linejoin="round"/>
<path d="M193.842 253.83C173.95 174.739 112.257 160.211 112.257 160.211L96.8981 183.53L81.4194 160.239C81.4194 160.239 19.8323 174.818 -0.0418185 253.835C-2.21418 262.469 4.26596 270.854 13.1722 270.854H44.872V377.484C44.872 382.364 48.8294 386.321 53.7091 386.321H139.972C144.851 386.321 148.809 382.364 148.809 377.484V270.854H180.629C189.535 270.854 196.015 262.469 193.842 253.835V253.83Z" fill="#7AB9ED" stroke="black" stroke-width="2.0755" stroke-linecap="round" stroke-linejoin="round"/>
<path d="M58.0918 91.5948C58.0918 91.5948 29.8049 86.7611 34.5325 64.0459C38.1208 46.8239 54.3189 51.3162 54.3189 51.3162C54.3189 51.3162 42.281 43.3324 48.5536 34.2371C55.3197 24.4269 66.7996 34.2371 66.7996 34.2371C66.7996 34.2371 68.5339 18.74 79.0175 13.5651C92.2361 7.03878 99.2145 20.0406 99.2145 20.0406C99.2145 20.0406 116.021 6.20396 134.719 18.7308C143.981 24.9342 149.972 35.344 142.496 50.4076C142.496 50.4076 147.744 45.3572 151.826 51.6944C154.224 55.4164 152.91 61.214 149.262 62.6392C160.668 66.9147 159.16 74.7832 158.385 78.9526C156.78 87.6006 146.48 88.2417 141.278 89.3763C138.76 89.9251 123.461 36.0681 82.3751 34.1725C61.5832 33.2132 58.0873 91.604 58.0873 91.604L58.0918 91.5948Z" fill="#3D84CB" stroke="black" stroke-width="2.0755" stroke-linecap="round" stroke-linejoin="round"/>
<path d="M58.0936 106.23C66.0131 106.23 72.433 99.8096 72.433 91.8902C72.433 83.9708 66.0131 77.5508 58.0936 77.5508C50.1742 77.5508 43.7543 83.9708 43.7543 91.8902C43.7543 99.8096 50.1742 106.23 58.0936 106.23Z" fill="#135BA3" stroke="black" stroke-width="2.0755" stroke-linecap="round" stroke-linejoin="round"/>
<path d="M136.162 106.23C144.082 106.23 150.501 99.8096 150.501 91.8902C150.501 83.9708 144.082 77.5508 136.162 77.5508C128.243 77.5508 121.823 83.9708 121.823 91.8902C121.823 99.8096 128.243 106.23 136.162 106.23Z" fill="#135BA3" stroke="black" stroke-width="2.0755" stroke-linecap="round" stroke-linejoin="round"/>
<path d="M96.9554 147.993C118.564 147.993 136.081 122.253 136.081 90.5017C136.081 58.75 118.564 33.0103 96.9554 33.0103C75.347 33.0103 57.8298 58.75 57.8298 90.5017C57.8298 122.253 75.347 147.993 96.9554 147.993Z" fill="#135BA3" stroke="black" stroke-width="2.0755" stroke-linecap="round" stroke-linejoin="round"/>
<path d="M66.0348 92.5632C69.0789 95.2244 79.4794 102.272 88.5286 93.8777C86.1764 87.1254 75.6559 79.958 66.0348 92.5632Z" fill="#F8F5EF"/>
<path d="M88.53 92.5634C79.7621 77.6613 66.0361 91.2443 66.0361 91.2443" stroke="black" stroke-width="2.0755" stroke-miterlimit="10" stroke-linecap="round"/>
<path d="M78.1235 97.2355C81.4095 97.2355 84.0733 94.5717 84.0733 91.2857C84.0733 87.9997 81.4095 85.3359 78.1235 85.3359C74.8376 85.3359 72.1736 87.9997 72.1736 91.2857C72.1736 94.5717 74.8376 97.2355 78.1235 97.2355Z" fill="black"/>
<path d="M128.72 92.5632C125.676 95.2244 115.275 102.272 106.226 93.8777C108.578 87.1254 119.099 79.958 128.72 92.5632Z" fill="#F8F5EF"/>
<path d="M106.227 92.5634C114.995 77.6613 128.721 91.2443 128.721 91.2443" stroke="black" stroke-width="2.0755" stroke-miterlimit="10" stroke-linecap="round"/>
<path d="M116.636 97.2355C119.922 97.2355 122.585 94.5717 122.585 91.2857C122.585 87.9997 119.922 85.3359 116.636 85.3359C113.35 85.3359 110.686 87.9997 110.686 91.2857C110.686 94.5717 113.35 97.2355 116.636 97.2355Z" fill="black"/>
<path d="M96.9409 86.7563V111.893" stroke="black" stroke-width="2.0755" stroke-linecap="round" stroke-linejoin="round"/>
<path d="M107.415 121.847C99.5922 117.899 96.9587 124.36 96.9587 124.36C93.6194 117.188 85.8431 121.847 85.8431 121.847C85.8431 121.847 88.5274 130.716 97.1154 130.651C105.145 130.591 107.41 121.847 107.41 121.847H107.415Z" fill="black" stroke="black" stroke-width="2.0755" stroke-linecap="round" stroke-linejoin="round"/>
<path d="M56.79 76.4253C56.79 76.4253 88.2821 79.7415 82.5491 49.5176C82.5491 49.5176 96.4228 85.7512 121.02 68.6722C121.827 80.8761 142.992 83.7311 140.248 63.5526C140.248 63.5526 125.6 28.1353 116.477 26.9961C107.358 25.8568 79.0256 26.9961 79.0256 26.9961L61.1669 51.6623L56.527 66.8457L56.79 76.4253Z" fill="#3D84CB"/>
<path d="M58.8251 77.5692C67.9573 77.583 86.9089 72.5003 82.5504 49.5176C82.5504 49.5176 96.424 85.7512 121.021 68.6722C121.828 80.8761 142.994 83.7311 140.249 63.5526" stroke="black" stroke-width="2.0755" stroke-linecap="round" stroke-linejoin="round"/>
<path d="M67.786 104.92C68.7106 104.92 69.4602 104.17 69.4602 103.246C69.4602 102.321 68.7106 101.571 67.786 101.571C66.8613 101.571 66.1116 102.321 66.1116 103.246C66.1116 104.17 66.8613 104.92 67.786 104.92Z" fill="black"/>
<path d="M63.502 82.1306C66.2877 78.7914 77.8506 73.6257 87.2826 79.9214" stroke="black" stroke-width="2.0755" stroke-linecap="round" stroke-linejoin="round"/>
<path d="M130.593 82.1306C127.808 78.7914 116.245 73.6257 106.813 79.9214" stroke="black" stroke-width="2.0755" stroke-linecap="round" stroke-linejoin="round"/>
<path d="M117.533 161.871C117.533 161.871 127.237 181.298 117.86 224.745" stroke="black" stroke-width="2.0755" stroke-linecap="round" stroke-linejoin="round"/>
<path d="M118.184 236.009C124.404 236.009 129.447 230.966 129.447 224.745C129.447 218.525 124.404 213.482 118.184 213.482C111.963 213.482 106.921 218.525 106.921 224.745C106.921 230.966 111.963 236.009 118.184 236.009Z" fill="#3D84CB" stroke="black" stroke-width="2.0755" stroke-linecap="round" stroke-linejoin="round"/>
<path d="M118.182 230.926C121.596 230.926 124.363 228.159 124.363 224.745C124.363 221.332 121.596 218.565 118.182 218.565C114.769 218.565 112.002 221.332 112.002 224.745C112.002 228.159 114.769 230.926 118.182 230.926Z" fill="#3D84CB" stroke="black" stroke-width="2.0755" stroke-linecap="round" stroke-linejoin="round"/>
<path d="M76.2429 161.871C76.2429 161.871 69.449 174.527 71.626 193.612" stroke="black" stroke-width="2.0755" stroke-linecap="round" stroke-linejoin="round"/>
<path d="M71.4979 248.29C67.7942 243.235 64.7227 235.87 63.1591 227.402C60.032 210.461 64.123 195.504 72.3005 193.995C80.4734 192.487 89.6378 204.995 92.7603 221.936C94.2408 229.961 94.1026 237.544 92.6774 243.457" stroke="black" stroke-width="2.0755" stroke-linecap="round" stroke-linejoin="round"/>
<path d="M76.5193 254.368C78.3182 252.984 78.3801 250.047 76.6577 247.808C74.9352 245.569 72.0807 244.876 70.2818 246.259C68.4829 247.643 68.4209 250.58 70.1433 252.819C71.8657 255.058 74.7204 255.752 76.5193 254.368Z" fill="black"/>
<path d="M95.2859 246.994C95.9856 244.257 94.7702 241.582 92.5713 241.02C90.3724 240.458 88.0226 242.221 87.323 244.958C86.6233 247.695 87.8387 250.369 90.0376 250.931C92.2365 251.494 94.5862 249.731 95.2859 246.994Z" fill="black"/>
</g>
<defs>
<clipPath id="clip0_165_4528">
<rect width="195" height="266" fill="white"/>
</clipPath>
</defs>
</svg>
