<svg width="206" height="266" viewBox="0 0 206 266" fill="none" xmlns="http://www.w3.org/2000/svg">
<g clip-path="url(#clip0_165_4496)">
<path d="M17.1138 250.372H39.981V414.89C39.981 421.199 34.857 426.323 28.5475 426.323C22.238 426.323 17.1138 421.199 17.1138 414.89V250.372Z" fill="#DDB5E2" stroke="black" stroke-width="2.0755" stroke-linecap="round" stroke-linejoin="round"/>
<path d="M166.009 250.372H188.876V414.89C188.876 421.199 183.752 426.323 177.443 426.323C171.133 426.323 166.009 421.199 166.009 414.89V250.372Z" fill="#DDB5E2" stroke="black" stroke-width="2.0755" stroke-linecap="round" stroke-linejoin="round"/>
<path d="M39.983 367.54V265.679C10.4693 265.679 -0.29541 250.196 -0.29541 250.196C13.8872 211.647 16.5161 166.978 17.005 151.739C17.1018 148.722 19.574 146.324 22.595 146.324H69.9303L82.697 133.198L123.303 132.497L136.07 145.623H183.405C186.426 145.623 188.898 148.017 188.995 151.038C189.484 166.277 192.113 210.946 206.295 249.495C206.295 249.495 195.531 264.978 166.017 264.978V366.839L39.983 367.54Z" fill="#9E56AF" stroke="black" stroke-width="2.0755" stroke-miterlimit="10"/>
<path d="M123.299 146.324L102.996 166.157L82.6929 146.324V110.293H123.299V146.324Z" fill="#DDB5E2" stroke="black" stroke-width="2.0755" stroke-linecap="round" stroke-linejoin="round"/>
<path d="M75.0502 185.048H51.7907C48.7339 185.048 46.256 187.526 46.256 190.583V199.332C46.256 202.389 48.7339 204.867 51.7907 204.867H75.0502C78.1069 204.867 80.5849 202.389 80.5849 199.332V190.583C80.5849 187.526 78.1069 185.048 75.0502 185.048Z" fill="#DDB5E2" stroke="black" stroke-width="2.0755" stroke-linecap="round" stroke-linejoin="round"/>
<path d="M140.638 71.3481C138.046 78.5478 138.359 91.047 144.955 93.4223C151.55 95.7976 161.932 87.1542 164.529 79.9545C167.121 72.7549 163.879 64.9925 157.279 62.6172C150.683 60.2419 143.23 64.1484 140.638 71.3481Z" fill="#DDB5E2" stroke="black" stroke-width="1.93714" stroke-linecap="round" stroke-linejoin="round"/>
<path d="M65.834 71.3481C68.4261 78.5478 68.1125 91.047 61.517 93.4223C54.9215 95.7976 44.5392 87.1542 41.9425 79.9545C39.3504 72.7549 42.5929 64.9925 49.193 62.6172C55.7885 60.2419 63.2419 64.1484 65.834 71.3481Z" fill="#DDB5E2" stroke="black" stroke-width="1.93714" stroke-linecap="round" stroke-linejoin="round"/>
<path d="M148.778 93.8049C149.152 95.6821 150.457 97.0704 152.002 97.0704C153.842 97.0704 155.337 95.1102 155.337 92.6887C155.337 90.2719 153.842 88.3071 152.002 88.3071" stroke="#848484" stroke-width="2.0755" stroke-miterlimit="10" stroke-linecap="round"/>
<path d="M144.955 93.4223C147.09 94.1925 149.618 93.8051 152.154 92.689" stroke="black" stroke-width="1.93714" stroke-linecap="round" stroke-linejoin="round"/>
<path d="M95.6652 118.503H110.932C130.754 118.503 146.824 102.434 146.824 82.6111V47.7933C146.824 27.9705 130.754 11.901 110.932 11.901H95.6652C75.8424 11.901 59.7729 27.9705 59.7729 47.7933L59.7729 82.6111C59.7729 102.434 75.8424 118.503 95.6652 118.503Z" fill="#DDB5E2" stroke="black" stroke-width="2.0755" stroke-linecap="round" stroke-linejoin="round"/>
<path d="M61.2991 36.9916C63.4807 33.2649 75.1403 15.6693 96.6241 24.2942C100.789 25.9684 105.438 25.9684 109.603 24.2942C132.088 15.2634 143.817 34.9622 145.172 37.4206C140.726 22.6522 127.019 11.8965 110.802 11.8965H95.5356C79.4759 11.8965 65.879 22.4446 61.2991 36.9916Z" fill="#BB79C9"/>
<path d="M95.6652 118.503H110.932C130.754 118.503 146.824 102.434 146.824 82.6111V47.7933C146.824 27.9705 130.754 11.901 110.932 11.901H95.6652C75.8424 11.901 59.7729 27.9705 59.7729 47.7933L59.7729 82.6111C59.7729 102.434 75.8424 118.503 95.6652 118.503Z" stroke="black" stroke-width="2.0755" stroke-linecap="round" stroke-linejoin="round"/>
<path d="M109.198 98.1821C109.198 98.1821 107.321 101.074 103.234 101.074C99.1477 101.074 97.2706 98.1821 97.2706 98.1821" stroke="black" stroke-width="2.0755" stroke-linecap="round" stroke-linejoin="round"/>
<path d="M103.234 52.5396V74.4615" stroke="black" stroke-width="2.0755" stroke-linecap="round" stroke-linejoin="round"/>
<path d="M136.079 61.7959C133.514 58.1154 120.697 49.7903 112.714 62.5569C112.714 62.5569 115.181 67.7134 122.044 68.4606C132.993 69.6506 136.079 61.7959 136.079 61.7959Z" fill="#F8F5EF"/>
<path d="M124.397 68.1379C127.703 68.1379 130.383 65.4576 130.383 62.1512C130.383 58.8449 127.703 56.1646 124.397 56.1646C121.09 56.1646 118.41 58.8449 118.41 62.1512C118.41 65.4576 121.09 68.1379 124.397 68.1379Z" fill="black"/>
<path d="M136.079 61.7959C133.514 58.1154 120.697 49.7903 112.714 62.5569" stroke="black" stroke-width="2.0755" stroke-linecap="round" stroke-linejoin="round"/>
<path d="M70.6085 61.7959C73.1729 58.1154 85.9901 49.7903 93.9739 62.5569C93.9739 62.5569 91.5064 67.7134 84.6434 68.4606C73.694 69.6506 70.6085 61.7959 70.6085 61.7959Z" fill="#F8F5EF"/>
<path d="M88.2786 62.1512C88.2786 65.4582 85.5987 68.1379 82.2917 68.1379C78.9847 68.1379 76.3051 65.4582 76.3051 62.1512C76.3051 58.8443 78.9847 56.1646 82.2917 56.1646C85.5987 56.1646 88.2786 58.8443 88.2786 62.1512Z" fill="black"/>
<path d="M70.6085 61.7959C73.1729 58.1154 85.9901 49.7903 93.9739 62.5569" stroke="black" stroke-width="2.0755" stroke-linecap="round" stroke-linejoin="round"/>
<path d="M139.535 50.0118C139.535 50.0118 128.531 43.9329 112.997 48.3837" stroke="black" stroke-width="2.0755" stroke-linecap="round" stroke-linejoin="round"/>
<path d="M75.7548 47.2674C80.3255 46.5156 86.4136 46.3772 93.4242 48.3881" stroke="black" stroke-width="2.0755" stroke-linecap="round" stroke-linejoin="round"/>
<path d="M66.8864 50.0117C66.8864 50.0117 68.7867 48.9648 72.1168 48.0562" stroke="black" stroke-width="2.0755" stroke-linecap="round" stroke-linejoin="round"/>
<path d="M82.6903 133.115L58.8911 158.058C58.8911 158.058 71.7223 173.043 94.0594 169.754" stroke="black" stroke-width="2.0755" stroke-miterlimit="10" stroke-linecap="round"/>
<path d="M124.163 133.115L147.962 158.058C147.962 158.058 135.131 173.043 112.794 169.754" stroke="black" stroke-width="2.0755" stroke-miterlimit="10" stroke-linecap="round"/>
</g>
<defs>
<clipPath id="clip0_165_4496">
<rect width="206" height="266" fill="white"/>
</clipPath>
</defs>
</svg>
