<svg width="466" height="526" viewBox="0 0 466 526" fill="none" xmlns="http://www.w3.org/2000/svg">
<g id="about-hero">
<g id="icons">
<g id="heart">
<g id="Group">
<path id="Vector" d="M48.5099 190.781C74.5699 190.781 95.6956 169.741 95.6956 143.786C95.6956 117.831 74.5699 96.791 48.5099 96.791C22.45 96.791 1.32422 117.831 1.32422 143.786C1.32422 169.741 22.45 190.781 48.5099 190.781Z" fill="#F8F5EF" stroke="#E04C73" stroke-width="2.64459" stroke-linecap="round" stroke-linejoin="round"/>
<path id="Vector_2" d="M48.5109 132.647C46.1951 126.622 40.3507 122.334 33.4848 122.334C24.593 122.334 17.3867 129.511 17.3867 138.367C17.3867 159.974 48.5109 177.686 48.5109 177.686C48.5109 177.686 79.635 159.974 79.635 138.367C79.635 129.511 72.4287 122.334 63.5369 122.334C56.6711 122.334 50.8267 126.622 48.5109 132.647Z" fill="#F98AA7" stroke="#E04C73" stroke-width="2.64459" stroke-miterlimit="10"/>
</g>
</g>
<g id="house">
<g id="Group_2">
<path id="Vector_3" d="M126.522 113.078C152.582 113.078 173.707 92.0378 173.707 66.0831C173.707 40.1283 152.582 19.0879 126.522 19.0879C100.462 19.0879 79.3359 40.1283 79.3359 66.0831C79.3359 92.0378 100.462 113.078 126.522 113.078Z" fill="#F8F5EF" stroke="#2F9C57" stroke-width="2.64459" stroke-linecap="round" stroke-linejoin="round"/>
<path id="Vector_4" d="M95.8286 66.3915L126.781 40.813L157.382 66.3775L162.503 60.296L126.809 30.4746L90.7383 60.282L95.8286 66.3915Z" fill="#66BF84" stroke="#2F9C57" stroke-width="2.64459" stroke-linejoin="round"/>
<path id="Vector_5" d="M151.73 61.8949V92.0274H101.148V61.8949L126.788 40.8145L151.73 61.8949Z" fill="#DEF9E6" stroke="#2F9C57" stroke-width="2.64459" stroke-linejoin="round"/>
<path id="Vector_6" d="M134.408 92.0269V77.2325C134.408 72.8493 130.84 69.293 126.437 69.293C122.036 69.293 118.465 72.8465 118.465 77.2325V92.0269H134.405H134.408Z" fill="#66BF84" stroke="#2F9C57" stroke-width="2.64459" stroke-linejoin="round"/>
<path id="Vector_7" d="M126.312 63.0542C129.274 63.0542 131.676 60.6627 131.676 57.7127C131.676 54.7626 129.274 52.3711 126.312 52.3711C123.35 52.3711 120.949 54.7626 120.949 57.7127C120.949 60.6627 123.35 63.0542 126.312 63.0542Z" fill="#B7D8F3" stroke="#3D84CB" stroke-width="2.64459" stroke-linejoin="round"/>
</g>
</g>
<g id="purple-check">
<g id="Layer 1">
<g id="Group_3">
<path id="Vector_8" d="M232.807 95.3126C258.867 95.3126 279.992 74.2722 279.992 48.3174C279.992 22.3627 258.867 1.32227 232.807 1.32227C206.747 1.32227 185.621 22.3627 185.621 48.3174C185.621 74.2722 206.747 95.3126 232.807 95.3126Z" fill="#F8F5EF" stroke="#BB79C9" stroke-width="2.64459" stroke-linecap="round" stroke-linejoin="round"/>
<path id="Vector_9" d="M228.558 16.98C230.927 14.7072 234.678 14.7072 237.048 16.98L239.462 19.2921C240.815 20.5896 242.689 21.195 244.549 20.9371L247.867 20.4775C251.125 20.0263 254.159 22.2207 254.735 25.4464L255.324 28.7309C255.653 30.5722 256.812 32.1584 258.467 33.0412L261.421 34.6134C264.322 36.1575 265.482 39.7083 264.044 42.6537L262.581 45.6552C261.762 47.3367 261.762 49.3013 262.581 50.9828L264.044 53.9843C265.482 56.9325 264.322 60.4833 261.421 62.0246L258.467 63.5969C256.812 64.4768 255.653 66.0658 255.324 67.9071L254.735 71.1916C254.159 74.4173 251.125 76.6117 247.867 76.1605L244.549 75.7009C242.689 75.443 240.815 76.0512 239.462 77.3459L237.048 79.658C234.678 81.9308 230.927 81.9308 228.558 79.658L226.144 77.3459C224.79 76.0484 222.916 75.443 221.056 75.7009L217.739 76.1605C214.48 76.6117 211.447 74.4173 210.87 71.1916L210.282 67.9071C209.953 66.0658 208.793 64.4796 207.139 63.5969L204.184 62.0246C201.283 60.4805 200.124 56.9297 201.562 53.9843L203.025 50.9828C203.844 49.3013 203.844 47.3367 203.025 45.6552L201.562 42.6537C200.124 39.7055 201.283 36.1547 204.184 34.6134L207.139 33.0412C208.793 32.1612 209.953 30.5722 210.282 28.7309L210.87 25.4464C211.447 22.2207 214.48 20.0263 217.739 20.4775L221.056 20.9371C222.916 21.195 224.79 20.5868 226.144 19.2921L228.558 16.98Z" fill="#BB79C9" stroke="#9A4DAA" stroke-width="2.64459" stroke-linejoin="round"/>
<path id="Vector_10" d="M228.793 65.749C228.793 65.749 228.781 65.749 228.776 65.749C227.479 65.7434 226.252 65.1773 225.41 64.1936L212.661 49.2899C212.044 48.5697 212.132 47.4907 212.855 46.8769L216.012 44.1977C216.735 43.584 217.819 43.6709 218.435 44.3911L227.518 55.007C228.202 55.8057 229.437 55.8085 230.124 55.0182L247.218 35.3474C247.84 34.6328 248.923 34.5543 249.641 35.1737L252.778 37.8781C253.496 38.4975 253.574 39.5764 252.952 40.2911L232.158 64.2216C231.311 65.1941 230.087 65.7518 228.798 65.7518L228.793 65.749Z" fill="#F8F5EF" stroke="#F8F5EF" stroke-width="2.64459" stroke-linejoin="round"/>
</g>
</g>
</g>
<g id="signpost">
<g id="Group_4">
<path id="Vector_11" d="M339.412 113.078C365.472 113.078 386.598 92.0378 386.598 66.0831C386.598 40.1283 365.472 19.0879 339.412 19.0879C313.352 19.0879 292.227 40.1283 292.227 66.0831C292.227 92.0378 313.352 113.078 339.412 113.078Z" fill="#F8F5EF" stroke="#EB6E25" stroke-width="2.64459" stroke-linecap="round" stroke-linejoin="round"/>
<path id="Vector_12" d="M345.671 90.9316V112.665C343.626 112.937 341.538 113.077 339.419 113.077C337.154 113.077 334.928 112.917 332.75 112.609V90.9316H345.671Z" fill="#FFE1D7" stroke="#F79E71" stroke-width="2.64459" stroke-linecap="round" stroke-linejoin="round"/>
<path id="Vector_13" d="M345.671 39.4742V90.9309H332.75V39.5695C332.75 36.0327 335.575 33.0845 339.126 33.0396C342.734 32.992 345.671 35.8898 345.671 39.4742Z" fill="#FFE1D7" stroke="#F79E71" stroke-width="2.64459" stroke-linecap="round" stroke-linejoin="round"/>
<path id="Vector_14" d="M372.607 82.6119L363.766 90.4589C363.42 90.7644 362.973 90.9353 362.511 90.9353H327.527C325.785 90.9353 324.375 89.5285 324.375 87.7965V76.2306C324.375 74.4987 325.785 73.0918 327.527 73.0918H362.511C362.973 73.0918 363.42 73.2628 363.766 73.5682L372.607 81.4152C372.965 81.7347 372.965 82.2924 372.607 82.6119Z" fill="#F79E71" stroke="#EB6E25" stroke-width="2.64459" stroke-linejoin="round"/>
<path id="Vector_15" d="M316.319 48.8739H352.272C354.014 48.8739 355.424 50.278 355.424 52.0127V63.5758C355.424 65.3106 354.014 66.7146 352.272 66.7146H316.319C315.858 66.7146 315.411 66.5465 315.064 66.2382L306.223 58.3912C305.863 58.0717 305.863 57.514 306.223 57.1945L315.064 49.3475C315.411 49.042 315.855 48.8711 316.319 48.8711V48.8739Z" fill="#EB6E25" stroke="#EB6E25" stroke-width="2.64459" stroke-linecap="round" stroke-linejoin="round"/>
<path id="Vector_16" d="M339.412 113.078C365.472 113.078 386.598 92.0378 386.598 66.0831C386.598 40.1283 365.472 19.0879 339.412 19.0879C313.352 19.0879 292.227 40.1283 292.227 66.0831C292.227 92.0378 313.352 113.078 339.412 113.078Z" stroke="#EB6E25" stroke-width="2.64459" stroke-linecap="round" stroke-linejoin="round"/>
</g>
</g>
<g id="phone">
<g id="Group_5">
<path id="Vector_17" d="M417.428 190.781C443.488 190.781 464.614 169.741 464.614 143.786C464.614 117.831 443.488 96.791 417.428 96.791C391.368 96.791 370.242 117.831 370.242 143.786C370.242 169.741 391.368 190.781 417.428 190.781Z" fill="#F8F5EF" stroke="#3D84CB" stroke-width="2.64459" stroke-linecap="round" stroke-linejoin="round"/>
<path id="Vector_18" d="M393.122 163.49L402.279 112.343C402.792 109.474 405.551 107.558 408.432 108.07L437.48 113.229C440.361 113.74 442.284 116.487 441.77 119.357L432.614 170.5C432.1 173.369 429.342 175.285 426.461 174.773L397.413 169.615C394.532 169.103 392.609 166.356 393.122 163.487L393.122 163.49Z" fill="#B7D8F3" stroke="#777777" stroke-width="2.64459" stroke-linejoin="round"/>
<path id="Vector_19" d="M432.809 112.402L432.041 116.695C431.709 118.547 429.933 119.783 428.073 119.453L415.062 117.143C413.202 116.813 411.964 115.044 412.296 113.192L413.064 108.898L432.809 112.404V112.402Z" fill="#C4C4C4" stroke="#777777" stroke-width="2.64459" stroke-linecap="round" stroke-linejoin="round"/>
</g>
</g>
</g>
<g id="person-on-laptop">
<g id="base bod">
<g id="Group_6">
<g id="Group_7">
<path id="Vector_20" d="M162.435 334.719C187.255 334.719 207.375 314.599 207.375 289.779C207.375 264.96 187.255 244.84 162.435 244.84C137.616 244.84 117.496 264.96 117.496 289.779C117.496 314.599 137.616 334.719 162.435 334.719Z" fill="black" stroke="black" stroke-width="3.61332" stroke-linecap="round" stroke-linejoin="round"/>
<path id="Vector_21" d="M303.514 334.719C328.333 334.719 348.453 314.599 348.453 289.779C348.453 264.96 328.333 244.84 303.514 244.84C278.694 244.84 258.574 264.96 258.574 289.779C258.574 314.599 278.694 334.719 303.514 334.719Z" fill="black" stroke="black" stroke-width="3.61332" stroke-linecap="round" stroke-linejoin="round"/>
</g>
<path id="Vector_22" d="M387.523 458.438C370.153 402.54 332.735 366.954 256.829 346.678H209.123C133.218 366.954 95.7994 402.54 78.4297 458.438H387.523Z" fill="#F79E71" stroke="black" stroke-width="3.61332" stroke-linecap="round" stroke-linejoin="round"/>
<path id="Vector_23" d="M269.444 312.016H196.507C189.343 312.016 183.535 317.823 183.535 324.987V342.13C183.535 349.294 189.343 355.102 196.507 355.102H269.444C276.608 355.102 282.416 349.294 282.416 342.13V324.987C282.416 317.823 276.608 312.016 269.444 312.016Z" fill="#F79E71" stroke="black" stroke-width="3.61332" stroke-linecap="round" stroke-linejoin="round"/>
<g id="Group_8">
<path id="Vector_24" d="M290.295 225.394C285.246 239.408 285.856 263.736 298.698 268.361C311.541 272.986 331.745 256.158 336.793 242.149C341.841 228.134 335.523 213.026 322.686 208.401C309.843 203.776 295.343 211.384 290.295 225.394Z" fill="#C64309" stroke="black" stroke-width="3.61332" stroke-linecap="round" stroke-linejoin="round"/>
<path id="Vector_25" d="M175.784 225.394C180.832 239.408 180.223 263.736 167.38 268.361C154.538 272.986 134.334 256.158 129.286 242.149C124.237 228.134 130.556 213.026 143.393 208.401C156.236 203.776 170.736 211.384 175.784 225.394Z" fill="#C64309" stroke="black" stroke-width="3.61332" stroke-linecap="round" stroke-linejoin="round"/>
<path id="Vector_26" d="M307.56 225.529C307.56 288.767 268.154 330.429 233.038 330.429C197.921 330.429 158.516 288.773 158.516 225.529C158.516 162.286 176.453 128.93 233.038 128.93C289.622 128.93 307.56 162.291 307.56 225.529Z" fill="#C64309" stroke="black" stroke-width="3.61332" stroke-linecap="round" stroke-linejoin="round"/>
<path id="Vector_27" d="M233.039 224.229V263.717" stroke="black" stroke-width="3.61332" stroke-linecap="round" stroke-linejoin="round"/>
<path id="Vector_28" d="M248.028 285.212C240.781 283.204 237.792 281.294 233.044 288.17C228.295 281.294 225.301 283.204 218.059 285.212C218.059 285.212 221.254 296.728 233.044 296.728C244.833 296.728 248.028 285.212 248.028 285.212Z" fill="#7C2300" stroke="#7C2300" stroke-width="3.61332" stroke-linecap="round" stroke-linejoin="round"/>
<g id="Group_9">
<path id="Vector_29" d="M199.202 203.412H178.131C164.29 203.412 153.07 214.632 153.07 228.473V234.017C153.07 247.858 164.29 259.078 178.131 259.078H199.202C213.043 259.078 224.263 247.858 224.263 234.017V228.473C224.263 214.632 213.043 203.412 199.202 203.412Z" stroke="black" stroke-width="3.61332" stroke-linecap="round" stroke-linejoin="round"/>
<path id="Vector_30" d="M287.815 203.412H266.745C252.904 203.412 241.684 214.632 241.684 228.473V234.017C241.684 247.858 252.904 259.078 266.745 259.078H287.815C301.656 259.078 312.876 247.858 312.876 234.017V228.473C312.876 214.632 301.656 203.412 287.815 203.412Z" stroke="black" stroke-width="3.61332" stroke-linecap="round" stroke-linejoin="round"/>
</g>
<path id="Vector_31" d="M224.266 233.513C224.266 230.783 228.163 228.568 232.974 228.568C237.785 228.568 241.682 230.783 241.682 233.513" stroke="black" stroke-width="3.61332" stroke-linecap="round" stroke-linejoin="round"/>
<path id="Vector_32" d="M306.445 200.774C238.334 183.342 207.848 131.708 207.848 131.708L207.858 131.698C215.239 129.855 223.597 128.926 233.038 128.926C281.719 128.926 301.794 153.61 306.445 200.769V200.774Z" fill="black" stroke="black" stroke-width="3.61332" stroke-linecap="round" stroke-linejoin="round"/>
<path id="Vector_33" d="M207.854 131.703C194.758 179.734 159.621 200.779 159.621 200.779C163.379 162.767 177.151 139.353 207.854 131.703Z" fill="black" stroke="black" stroke-width="3.61332" stroke-linecap="round" stroke-linejoin="round"/>
</g>
</g>
</g>
<g id="eye-right">
<g id="eyewhite">
<path id="Vector_34" d="M290.759 225.586C281.163 218.984 280.713 218.158 270.106 218.158C259.498 218.158 252.411 223.387 250.176 230.696C250.176 230.696 257.568 238.13 270.106 238.13C283.682 238.13 290.759 225.591 290.759 225.591V225.586Z" fill="#F8F5EF"/>
</g>
<g id="pupil">
<g id="Clip path group">
<mask id="mask0_0_1" style="mask-type:luminance" maskUnits="userSpaceOnUse" x="258" y="218" width="24" height="25">
<g id="clippath">
<path id="Vector_35" d="M269.637 242.04C276.006 242.04 281.169 236.877 281.169 230.508C281.169 224.139 276.006 218.977 269.637 218.977C263.268 218.977 258.105 224.139 258.105 230.508C258.105 236.877 263.268 242.04 269.637 242.04Z" fill="white"/>
</g>
</mask>
<g mask="url(#mask0_0_1)">
<g id="Group_10">
<path id="Vector_36" d="M290.759 225.586C281.163 218.984 280.713 218.158 270.106 218.158C259.498 218.158 252.411 223.387 250.176 230.696C250.176 230.696 257.568 238.13 270.106 238.13C283.682 238.13 290.759 225.591 290.759 225.591V225.586Z" fill="black"/>
</g>
</g>
</g>
</g>
<g id="eyelid">
<path id="Vector_37" d="M290.759 225.586C285.328 219.727 277.973 218.158 270.106 218.158C259.359 218.158 254.496 222.334 250.176 230.696" stroke="black" stroke-width="3.61332" stroke-linecap="round" stroke-linejoin="round"/>
</g>
</g>
<g id="eye-left">
<path id="Vector_38" d="M175.176 225.586C184.772 218.984 185.221 218.158 195.828 218.158C206.436 218.158 213.523 223.387 215.759 230.696C215.759 230.696 208.367 238.13 195.828 238.13C182.253 238.13 175.176 225.591 175.176 225.591V225.586Z" fill="#F8F5EF"/>
<g id="Clip path group_2">
<mask id="mask1_0_1" style="mask-type:luminance" maskUnits="userSpaceOnUse" x="184" y="218" width="24" height="25">
<g id="clippath-1">
<path id="Vector_39" d="M207.848 230.508C207.848 236.878 202.687 242.04 196.317 242.04C189.947 242.04 184.785 236.878 184.785 230.508C184.785 224.138 189.947 218.977 196.317 218.977C202.687 218.977 207.848 224.138 207.848 230.508Z" fill="white"/>
</g>
</mask>
<g mask="url(#mask1_0_1)">
<g id="Group_11">
<path id="Vector_40" d="M175.176 225.586C184.772 218.984 185.221 218.158 195.828 218.158C206.436 218.158 213.523 223.387 215.759 230.696C215.759 230.696 208.367 238.13 195.828 238.13C182.253 238.13 175.176 225.591 175.176 225.591V225.586Z" fill="black"/>
</g>
</g>
</g>
<path id="Vector_41" d="M175.176 225.586C180.606 219.727 187.962 218.158 195.828 218.158C206.576 218.158 211.438 222.334 215.759 230.696" stroke="black" stroke-width="3.61332" stroke-linecap="round" stroke-linejoin="round"/>
</g>
<g id="laptop">
<g id="Group_12">
<path id="Vector_42" d="M226.996 501.05C219.191 501.05 211.954 497.514 207.133 491.351C202.993 486.055 201.156 479.479 201.951 472.825C202.746 466.166 206.085 460.235 211.356 456.116C215.779 452.657 221.086 450.83 226.702 450.83C234.507 450.83 241.749 454.366 246.57 460.529C250.71 465.82 252.547 472.402 251.753 479.05C250.958 485.704 247.618 491.64 242.348 495.759C237.924 499.218 232.612 501.05 226.996 501.05Z" fill="#919191"/>
<path id="Vector_43" d="M226.697 452.634C233.635 452.634 240.521 455.731 245.141 461.642C253.085 471.8 251.33 486.439 241.228 494.337C237 497.641 231.983 499.241 226.992 499.241C220.054 499.241 213.173 496.149 208.553 490.238C200.609 480.075 202.359 465.436 212.466 457.538C216.694 454.234 221.711 452.634 226.697 452.634ZM226.697 449.021C220.673 449.021 214.985 450.982 210.241 454.694C204.589 459.107 201.007 465.472 200.155 472.611C199.303 479.739 201.275 486.79 205.709 492.463C210.871 499.065 218.629 502.854 226.992 502.854C233.015 502.854 238.709 500.893 243.453 497.181C249.1 492.763 252.682 486.403 253.539 479.264C254.391 472.136 252.419 465.085 247.985 459.412C242.823 452.804 235.06 449.016 226.697 449.016V449.021Z" fill="#4C4C4C"/>
</g>
<g id="Group_13">
<path id="Vector_44" d="M270.131 523.509C269.62 523.509 269.13 523.292 268.789 522.91C268.449 522.528 268.283 522.017 268.335 521.511C268.361 521.289 268.371 521.067 268.371 520.85C268.371 519.39 267.891 518.006 266.988 516.845L250.439 495.671C249.938 495.031 249.928 494.138 250.413 493.482C258.207 482.962 257.98 468.354 249.855 457.963C244.229 450.762 235.769 446.633 226.653 446.633C220.107 446.633 213.918 448.765 208.757 452.796C196.074 462.712 193.875 481.161 203.848 493.926C209.474 501.122 217.929 505.251 227.045 505.251C230.901 505.251 234.649 504.508 238.184 503.037C238.412 502.944 238.644 502.897 238.876 502.897C239.418 502.897 239.95 503.145 240.301 503.589L253.587 520.587C254.011 521.129 254.088 521.873 253.789 522.492C253.484 523.111 252.854 523.509 252.163 523.509H40.6804C39.7461 523.509 38.9667 522.797 38.8789 521.862L26.8879 387.891C26.093 379.038 29.0817 370.196 35.0798 363.635C41.0779 357.074 49.6157 353.316 58.5044 353.316H407.448C416.336 353.316 424.874 357.079 430.872 363.635C436.87 370.196 439.854 379.033 439.064 387.891L427.073 521.862C426.991 522.797 426.211 523.509 425.272 523.509H270.131Z" fill="#919191"/>
<path id="Vector_45" d="M407.442 355.123C425.028 355.123 438.826 370.211 437.257 387.731L425.266 521.702H270.125C270.156 521.418 270.172 521.129 270.172 520.845C270.172 519.059 269.594 517.253 268.406 515.73L251.857 494.556C259.961 483.618 260.111 468.158 251.274 456.848C245.106 448.956 235.912 444.821 226.652 444.821C219.988 444.821 213.288 446.958 207.641 451.372C194.153 461.917 191.814 481.465 202.422 495.036C208.59 502.923 217.779 507.058 227.044 507.058C231.055 507.058 235.076 506.284 238.875 504.704L252.162 521.702H40.6744L28.6833 387.731C27.1141 370.211 40.9118 355.123 58.4984 355.123H407.442ZM407.442 351.51H58.4984C49.1037 351.51 40.0808 355.484 33.742 362.417C27.4032 369.349 24.2493 378.692 25.0855 388.051L37.0766 522.022C37.2417 523.886 38.8058 525.315 40.6744 525.315H252.162C253.545 525.315 254.805 524.526 255.409 523.287C256.013 522.043 255.858 520.567 255.006 519.477L241.719 502.479C241.017 501.581 239.959 501.091 238.87 501.091C238.405 501.091 237.936 501.179 237.487 501.37C234.173 502.748 230.657 503.445 227.039 503.445C218.486 503.445 210.547 499.568 205.266 492.811C195.902 480.836 197.967 463.523 209.865 454.221C214.707 450.437 220.509 448.44 226.647 448.44C235.205 448.44 243.139 452.316 248.425 459.078C256.049 468.834 256.266 482.539 248.951 492.408C247.986 493.714 248.007 495.506 249.008 496.786L265.557 517.96C266.207 518.796 266.558 519.797 266.558 520.851C266.558 521.005 266.548 521.16 266.533 521.315C266.419 522.337 266.749 523.354 267.436 524.118C268.122 524.882 269.098 525.321 270.125 525.321H425.266C427.134 525.321 428.698 523.891 428.863 522.027L440.854 388.056C441.691 378.697 438.537 369.354 432.198 362.422C425.859 355.49 416.836 351.515 407.442 351.515V351.51Z" fill="#4C4C4C"/>
</g>
<g id="Group_14">
<g id="Group_15">
<g id="Group_16">
<path id="Vector_46" d="M252.164 523.507C251.606 523.507 251.085 523.249 250.739 522.815L238.283 506.875C234.691 508.197 230.912 508.863 227.046 508.863C216.81 508.863 207.317 504.227 201.004 496.149C189.803 481.814 192.281 461.089 206.533 449.95C212.335 445.413 219.293 443.018 226.654 443.018C236.89 443.018 246.382 447.653 252.7 455.736C261.532 467.041 262.043 482.785 254.11 494.502L269.833 514.618C271.216 516.394 271.98 518.608 271.98 520.848C271.98 521.199 271.959 521.55 271.923 521.901C271.825 522.82 271.051 523.512 270.127 523.512H252.164V523.507ZM226.7 454.441C221.9 454.441 217.362 456.005 213.579 458.963C209.072 462.483 206.218 467.562 205.536 473.256C204.855 478.955 206.435 484.591 209.981 489.129C214.11 494.409 220.31 497.439 226.994 497.439C231.795 497.439 236.332 495.875 240.121 492.917C244.627 489.397 247.482 484.323 248.163 478.624C248.845 472.926 247.27 467.289 243.724 462.757C239.594 457.471 233.39 454.441 226.705 454.441H226.7Z" fill="#919191"/>
<path id="Vector_47" d="M226.651 444.82C235.917 444.82 245.105 448.95 251.273 456.848C260.11 468.157 259.961 483.617 251.857 494.555L268.406 515.729C269.593 517.252 270.171 519.059 270.171 520.845C270.171 521.128 270.156 521.417 270.125 521.701H252.161L238.874 504.703C235.075 506.283 231.054 507.057 227.043 507.057C217.778 507.057 208.59 502.928 202.421 495.035C191.814 481.465 194.152 461.916 207.64 451.371C213.287 446.957 219.987 444.82 226.651 444.82ZM226.997 499.242C231.989 499.242 237.006 497.642 241.233 494.338C251.335 486.441 253.09 471.801 245.146 461.643C240.526 455.733 233.64 452.635 226.703 452.635C221.716 452.635 216.694 454.236 212.471 457.539C202.365 465.437 200.615 480.076 208.559 490.24C213.179 496.15 220.059 499.242 226.997 499.242ZM226.651 441.207C218.883 441.207 211.542 443.736 205.415 448.521C190.379 460.28 187.756 482.141 199.577 497.26C206.236 505.782 216.25 510.67 227.043 510.67C230.677 510.67 234.234 510.113 237.651 509.003L249.317 523.926C250.004 524.804 251.051 525.315 252.166 525.315H270.13C271.972 525.315 273.521 523.926 273.722 522.094C273.769 521.681 273.789 521.263 273.789 520.845C273.789 518.207 272.891 515.6 271.26 513.509L256.332 494.405C263.941 482.172 263.166 466.191 254.128 454.623C247.464 446.095 237.45 441.207 226.656 441.207H226.651ZM226.997 495.629C220.87 495.629 215.187 492.852 211.408 488.015C208.156 483.854 206.711 478.693 207.335 473.469C207.96 468.255 210.572 463.61 214.696 460.389C218.16 457.684 222.31 456.249 226.703 456.249C232.83 456.249 238.513 459.026 242.297 463.868C245.549 468.023 246.994 473.185 246.364 478.409C245.74 483.622 243.128 488.268 239.004 491.494C235.54 494.204 231.385 495.634 226.992 495.634L226.997 495.629Z" fill="#4C4C4C"/>
</g>
<path id="Vector_48" d="M241.235 494.339C231.134 502.237 216.505 500.405 208.561 490.241C200.617 480.077 202.366 465.438 212.473 457.54C222.575 449.643 237.204 451.48 245.148 461.644C253.092 471.803 251.337 486.442 241.235 494.339Z" fill="#C1C1C1"/>
</g>
<path id="Vector_49" d="M229.746 459.676C237.102 460.987 242.465 466.923 243.337 473.933" stroke="#F8F5EF" stroke-width="3.61332" stroke-miterlimit="10" stroke-linecap="round"/>
</g>
</g>
</g>
</g>
</svg>
