<svg id="Ausmed_Logo_Horizontal" data-name="Ausmed Logo Horizontal" xmlns="http://www.w3.org/2000/svg" viewBox="0 0 656.38 99.08"><defs><style>.cls-1{fill:#1d2129;}.cls-2{fill:#f44f6c;}.cls-3{fill:#fa888e;}</style></defs><g id="Type"><path class="cls-1" d="M278.73,35.71a5.44,5.44,0,0,0-5-3.4h-9.22a5.46,5.46,0,0,0-5.05,3.4L226.05,118a2.85,2.85,0,0,0,.28,2.65,2.7,2.7,0,0,0,1,.91,2.83,2.83,0,0,0,1.33.34h9.39a3.44,3.44,0,0,0,3.25-2.18l7.11-17.5a78,78,0,0,0,41.29,0l7.09,17.5a3.49,3.49,0,0,0,1.29,1.6,3.6,3.6,0,0,0,2,.58h9.39a2.79,2.79,0,0,0,1.32-.34,2.78,2.78,0,0,0,1.47-2.21,2.77,2.77,0,0,0-.19-1.33Zm5.36,52.71a63.44,63.44,0,0,1-30.07,0l.32-.79C265,61.41,268.26,51.55,269.07,48.91c.82,2.64,4.09,12.5,14.71,38.72Z" transform="translate(-30.17 -24.78)"/><path class="cls-1" d="M368.66,61.61h-7.8a3.52,3.52,0,0,0-3.5,3.48V96.87A13.32,13.32,0,0,1,347.08,110a11.57,11.57,0,0,1-5.3,0A11.78,11.78,0,0,1,337,107.6a14.54,14.54,0,0,1-5.27-11.3V65.07a3.48,3.48,0,0,0-3.5-3.48h-7.81A3.5,3.5,0,0,0,317,65.07V96.8c0,15.11,12.12,27,27.6,27s27.6-11.83,27.6-27V65.09a3.52,3.52,0,0,0-3.5-3.48Z" transform="translate(-30.17 -24.78)"/><path class="cls-1" d="M407.37,85.75c-7.07-2-8.1-2.53-9.79-4a4.86,4.86,0,0,1-1.41-5.06c.8-2.74,3.82-4,6.46-4,4.26-.08,8.24,2.16,9.53,2.91a2.68,2.68,0,0,0,2,.43,2.8,2.8,0,0,0,1.73-1l4.38-5.21a3.51,3.51,0,0,0,.2-4.25,3.32,3.32,0,0,0-1.1-1c-3.9-2.27-11.61-5.9-19.62-4.72-7.16,1-12.36,4.94-15,11.22-2.47,6-2,12.43,1.27,17.25a21.21,21.21,0,0,0,8.55,7.15,58.39,58.39,0,0,0,6.5,2.55,56.14,56.14,0,0,1,6.41,2.53c1.73.85,3.49,2,3.51,4.62a4.17,4.17,0,0,1-.31,1.7,4.46,4.46,0,0,1-1,1.44c-1.45,1.39-4.12,2-7.71,1.88-4.49-.2-9.39-2.8-11.9-4.29a3.43,3.43,0,0,0-2.36-.45,3.48,3.48,0,0,0-2.08,1.2l-4,4.77a3.52,3.52,0,0,0-.79,2.76,3.42,3.42,0,0,0,1.54,2.41,56.33,56.33,0,0,0,8.75,4.8,35.08,35.08,0,0,0,13.78,2.45c3.49,0,12.14-.87,17.18-8.77a18.16,18.16,0,0,0,2.35-15.23C422.68,93.44,416.46,88.34,407.37,85.75Z" transform="translate(-30.17 -24.78)"/><path class="cls-1" d="M498.42,59.55a18.3,18.3,0,0,0-16.33,9.23c-3.37-6.56-8.78-9.23-18.56-9.23a15.21,15.21,0,0,0-14.09,8.6V65.09a3.5,3.5,0,0,0-3.5-3.5h-7.8a3.46,3.46,0,0,0-2.47,1,3.55,3.55,0,0,0-1,2.47v53.34a3.52,3.52,0,0,0,3.5,3.5h7.8a3.55,3.55,0,0,0,2.48-1,3.5,3.5,0,0,0,1-2.47V89.15c0-11,4.35-16.26,10.81-16.26,9.6,0,10.29,7.39,10.29,18.61,0,11.06,0,21.61,0,26.91a3.36,3.36,0,0,0,.19,1.34,3.32,3.32,0,0,0,.75,1.15,3.19,3.19,0,0,0,1.14.75,3.42,3.42,0,0,0,1.34.28h7.91a3.52,3.52,0,0,0,3.5-3.5v-32c0-8.3,4.95-13.57,10.67-13.57,9.6,0,10.28,7.39,10.28,18.61,0,11.06-.05,21.61-.07,26.91a3.4,3.4,0,0,0,.26,1.34,3.21,3.21,0,0,0,.76,1.15,3.15,3.15,0,0,0,1.13.75,3.51,3.51,0,0,0,1.35.28h7.91a3.5,3.5,0,0,0,3.49-3.5V87.17C521.16,68.05,514.15,59.55,498.42,59.55Z" transform="translate(-30.17 -24.78)"/><path class="cls-1" d="M565.32,59.73A32.12,32.12,0,1,0,587,112.62a3.37,3.37,0,0,0,.65-1.17,3.6,3.6,0,0,0,.16-1.34,3.54,3.54,0,0,0-1.25-2.41l-5.32-4.46a3.36,3.36,0,0,0-1.27-.66,3.3,3.3,0,0,0-1.43-.13,3.7,3.7,0,0,0-1.34.47,3.5,3.5,0,0,0-1,1,16.08,16.08,0,0,1-5.91,5.29,16.26,16.26,0,0,1-7.7,1.88c-8.42,0-15.19-6.05-16.91-15.09h43a4.18,4.18,0,0,0,4.15-4.15C592.8,74.55,581.24,61.08,565.32,59.73ZM578.48,85h-32.4c2.3-8,8.74-13.2,16.49-13.2S576.33,76.88,578.48,85Z" transform="translate(-30.17 -24.78)"/><path class="cls-1" d="M660.39,25.16h-7.16a3.5,3.5,0,0,0-3.49,3.5V66.39a26.17,26.17,0,0,0-18-6.78A28.86,28.86,0,0,0,610.26,69a33.39,33.39,0,0,0-8.45,22.7,33.55,33.55,0,0,0,8.45,22.72,28.82,28.82,0,0,0,21.47,9.42,26.27,26.27,0,0,0,18-6.79v1.3a3.5,3.5,0,0,0,3.49,3.5h7.16a3.52,3.52,0,0,0,3.5-3.5V28.6a3.52,3.52,0,0,0-3.5-3.44Zm-9.11,66.56c0,10.59-6.51,19.91-16.66,19.91s-17.73-8.55-17.73-19.91,7.62-19.92,17.73-19.92,16.64,9.31,16.64,19.92Z" transform="translate(-30.17 -24.78)"/></g><g id="Mark"><path id="Big" class="cls-2" d="M141.41,115.27v3.37a3.24,3.24,0,0,0,3.26,3.27h52.91a3.24,3.24,0,0,0,3.26-3.27v-7.48c0-49.14-40.9-88.83-89.89-86.27A85.23,85.23,0,0,0,45.38,61.47a1.77,1.77,0,0,0-.5,1.24A1.87,1.87,0,0,0,45.39,64a1.75,1.75,0,0,0,1.23.53,1.79,1.79,0,0,0,1.27-.45,60.14,60.14,0,0,1,32.83-9.7A60.87,60.87,0,0,1,141.41,115.27Z" transform="translate(-30.17 -24.78)"/><path id="Small" class="cls-3" d="M30.17,115v3.62a3.26,3.26,0,0,0,3.27,3.27h52.9a3.42,3.42,0,0,0,1.26-.26,3.19,3.19,0,0,0,1.06-.71,3.43,3.43,0,0,0,.71-1.08,3.29,3.29,0,0,0,.24-1.26,25.85,25.85,0,0,1,33.07-25.23,1.95,1.95,0,0,0,2.07-.67,2,2,0,0,0,.42-1.06,1.9,1.9,0,0,0-.24-1.1A50.46,50.46,0,0,0,30.17,115Z" transform="translate(-30.17 -24.78)"/></g><path id="Registered" class="cls-1" d="M686.55,116.05a7.39,7.39,0,0,1-2.29,5.48,7.64,7.64,0,0,1-5.58,2.25,7.24,7.24,0,0,1-5.3-2.32,7.66,7.66,0,0,1-2.29-5.55,7.73,7.73,0,0,1,15.46.14Zm-1.13,0a6.25,6.25,0,0,0-1.93-4.64,6.43,6.43,0,0,0-4.67-1.89,6.25,6.25,0,0,0-4.64,1.93,6.35,6.35,0,0,0-1.89,4.6,6.59,6.59,0,0,0,6.53,6.53,6.45,6.45,0,0,0,4.64-1.9A6.17,6.17,0,0,0,685.42,116.05Zm-3.16,4.14h-1.87l-1.62-3.37h-1.21v3.37h-1.83V111.9h3c2.34,0,3.51.8,3.51,2.39a2.15,2.15,0,0,1-1.75,2.25Zm-1.82-5.76c0-.84-.59-1.26-1.76-1.26h-1.12v2.39h1.19C679.87,115.56,680.44,115.18,680.44,114.43Z" transform="translate(-30.17 -24.78)"/></svg>