<svg width="280" height="280" viewBox="0 0 280 280" fill="none" xmlns="http://www.w3.org/2000/svg">
<g clip-path="url(#clip0_195_1707)">
<path d="M140.005 276.559C215.422 276.559 276.559 215.422 276.559 140.005C276.559 64.5881 215.422 3.45068 140.005 3.45068C64.5881 3.45068 3.45068 64.5881 3.45068 140.005C3.45068 215.422 64.5881 276.559 140.005 276.559Z" fill="#F8F5EF" stroke="#BB79C9" stroke-width="6.90117" stroke-linecap="round" stroke-linejoin="round"/>
<path d="M167.767 116.245L169.591 155.848C169.995 164.534 171.878 173.091 175.181 181.146L193.785 226.536C196.259 232.569 193.371 239.47 187.337 241.945C185.868 242.546 184.35 242.832 182.861 242.832C178.208 242.832 173.801 240.072 171.928 235.497L152.082 187.081C149.814 181.55 144.432 177.942 138.467 177.942C132.493 177.942 127.11 181.55 124.852 187.081L105.006 235.497C103.133 240.062 98.7261 242.832 94.0728 242.832C92.5841 242.832 91.0658 242.546 89.5969 241.945C83.5633 239.47 80.6747 232.569 83.1492 226.536L102.571 179.164C105.341 172.421 107.116 165.303 107.855 158.046L112.085 116.383C112.203 115.17 111.779 113.968 110.921 113.11L68.43 70.6185C63.8062 65.9947 63.6682 58.4528 68.2821 53.8191C70.5891 51.4924 73.6256 50.3291 76.6621 50.3291C79.6986 50.3291 82.7056 51.4826 85.0125 53.7895L121.214 89.9911C126.193 94.9698 132.956 97.7697 140.005 97.7697C147.054 97.7697 153.807 94.9698 158.796 89.9911L194.997 53.7895C197.304 51.4826 200.331 50.3291 203.348 50.3291C206.365 50.3291 209.391 51.4826 211.698 53.7895C216.312 58.4035 216.312 65.8764 211.698 70.4904L168.98 113.209C168.172 114.017 167.748 115.121 167.797 116.255L167.767 116.245Z" fill="#9A4DAA"/>
<path d="M149.703 83.9403C162.059 78.5754 167.727 64.2096 162.362 51.8534C156.997 39.4972 142.631 33.8297 130.275 39.1946C117.919 44.5596 112.251 58.9253 117.616 71.2815C122.981 83.6377 137.347 89.3052 149.703 83.9403Z" fill="#9A4DAA"/>
</g>
<defs>
<clipPath id="clip0_195_1707">
<rect width="280" height="280" fill="white"/>
</clipPath>
</defs>
</svg>
