<svg width="280" height="280" viewBox="0 0 280 280" fill="none" xmlns="http://www.w3.org/2000/svg">
<g clip-path="url(#clip0_195_1670)">
<path d="M140.005 276.559C215.421 276.559 276.559 215.422 276.559 140.005C276.559 64.5881 215.421 3.45068 140.005 3.45068C64.5876 3.45068 3.4502 64.5881 3.4502 140.005C3.4502 215.422 64.5876 276.559 140.005 276.559Z" fill="#F8F5EF" stroke="#BB79C9" stroke-width="6.90117" stroke-linecap="round" stroke-linejoin="round"/>
<path d="M203.998 138.428C203.998 173.772 175.349 202.421 140.005 202.421C104.661 202.421 76.0112 173.772 76.0112 138.428" stroke="#9A4DAA" stroke-width="13.1615" stroke-miterlimit="10" stroke-linecap="round"/>
<path d="M140.004 177.557C160.856 177.557 177.823 160.59 177.823 139.739V79.2652C177.823 58.4138 160.856 41.4468 140.004 41.4468C119.153 41.4468 102.186 58.4138 102.186 79.2652V139.739C102.186 160.59 119.153 177.557 140.004 177.557Z" fill="#BB79C9" stroke="#9A4DAA" stroke-width="6.90117" stroke-linejoin="round"/>
<path d="M110.251 238.554H169.749" stroke="#9A4DAA" stroke-width="13.1615" stroke-miterlimit="10" stroke-linecap="round"/>
<path d="M140.005 202.431V238.554" stroke="#9A4DAA" stroke-width="13.1615" stroke-miterlimit="10" stroke-linecap="round"/>
<path d="M117.852 96.9023H102.186" stroke="#9A4DAA" stroke-width="6.90117" stroke-linecap="round" stroke-linejoin="round"/>
<path d="M117.852 113.396H102.186" stroke="#9A4DAA" stroke-width="6.90117" stroke-linecap="round" stroke-linejoin="round"/>
<path d="M117.852 129.89H102.186" stroke="#9A4DAA" stroke-width="6.90117" stroke-linecap="round" stroke-linejoin="round"/>
<path d="M177.587 96.9023H161.921" stroke="#9A4DAA" stroke-width="6.90117" stroke-linecap="round" stroke-linejoin="round"/>
<path d="M177.587 113.396H161.921" stroke="#9A4DAA" stroke-width="6.90117" stroke-linecap="round" stroke-linejoin="round"/>
<path d="M177.587 129.89H161.921" stroke="#9A4DAA" stroke-width="6.90117" stroke-linecap="round" stroke-linejoin="round"/>
</g>
<defs>
<clipPath id="clip0_195_1670">
<rect width="280" height="280" fill="white"/>
</clipPath>
</defs>
</svg>
