<svg width="280" height="280" viewBox="0 0 280 280" fill="none" xmlns="http://www.w3.org/2000/svg">
<g clip-path="url(#clip0_195_1683)">
<path d="M140.005 276.559C215.421 276.559 276.559 215.422 276.559 140.005C276.559 64.5881 215.421 3.45068 140.005 3.45068C64.5876 3.45068 3.4502 64.5881 3.4502 140.005C3.4502 215.422 64.5876 276.559 140.005 276.559Z" fill="#F8F5EF" stroke="#BB79C9" stroke-width="6.90117" stroke-linecap="round" stroke-linejoin="round"/>
<path d="M211.476 211.478C250.955 171.999 250.955 107.991 211.476 68.5121C171.997 29.0332 107.989 29.0332 68.5103 68.5121C29.0314 107.991 29.0314 171.999 68.5103 211.478C107.989 250.957 171.997 250.957 211.476 211.478Z" fill="#E8CCED" stroke="#9A4DAA" stroke-width="6.90117" stroke-linecap="round" stroke-linejoin="round"/>
<path d="M139.995 218.264V222.839" stroke="#BB79C9" stroke-width="6.90117" stroke-linecap="round" stroke-linejoin="round"/>
<path d="M61.7258 139.995H57.1611" stroke="#BB79C9" stroke-width="6.90117" stroke-linecap="round" stroke-linejoin="round"/>
<path d="M100.865 207.784L98.5781 211.738" stroke="#BB79C9" stroke-width="6.90117" stroke-linecap="round" stroke-linejoin="round"/>
<path d="M211.737 181.412L207.784 179.134" stroke="#BB79C9" stroke-width="6.90117" stroke-linecap="round" stroke-linejoin="round"/>
<path d="M72.2157 100.865L68.2524 98.5781" stroke="#BB79C9" stroke-width="6.90117" stroke-linecap="round" stroke-linejoin="round"/>
<path d="M98.5781 68.2529L100.865 72.2063" stroke="#BB79C9" stroke-width="6.90117" stroke-linecap="round" stroke-linejoin="round"/>
<path d="M179.135 207.784L181.412 211.738" stroke="#BB79C9" stroke-width="6.90117" stroke-linecap="round" stroke-linejoin="round"/>
<path d="M68.2524 181.412L72.2157 179.134" stroke="#BB79C9" stroke-width="6.90117" stroke-linecap="round" stroke-linejoin="round"/>
<path d="M241.097 139.996H140.004V38.9033C195.835 38.9033 241.097 84.175 241.097 139.996Z" fill="#BB79C9" stroke="#BB79C9" stroke-width="6.90117" stroke-linecap="round" stroke-linejoin="round"/>
<path d="M211.476 211.478C250.955 171.999 250.955 107.991 211.476 68.5121C171.997 29.0332 107.989 29.0332 68.5103 68.5121C29.0314 107.991 29.0314 171.999 68.5103 211.478C107.989 250.957 171.997 250.957 211.476 211.478Z" stroke="#9A4DAA" stroke-width="6.90117" stroke-linecap="round" stroke-linejoin="round"/>
</g>
<defs>
<clipPath id="clip0_195_1683">
<rect width="280" height="280" fill="white"/>
</clipPath>
</defs>
</svg>
