<svg width="280" height="280" viewBox="0 0 280 280" fill="none" xmlns="http://www.w3.org/2000/svg">
<g clip-path="url(#clip0_195_1700)">
<path d="M140.005 276.559C215.422 276.559 276.559 215.422 276.559 140.005C276.559 64.5881 215.422 3.45068 140.005 3.45068C64.5881 3.45068 3.45068 64.5881 3.45068 140.005C3.45068 215.422 64.5881 276.559 140.005 276.559Z" fill="#F8F5EF" stroke="#BB79C9" stroke-width="6.90117" stroke-linecap="round" stroke-linejoin="round"/>
<path d="M216.44 63.56C215.661 62.7812 214.626 62.4755 213.601 62.3868C213.305 62.3671 213.019 62.4164 212.723 62.4558C212.358 62.4953 211.994 62.4065 211.639 62.5347L47.1248 124.941C45.4587 125.572 44.3249 127.12 44.2165 128.894C44.1179 130.669 45.0644 132.345 46.6319 133.163L112.449 167.561L146.847 233.378C147.626 234.867 149.173 235.803 150.849 235.803C150.938 235.803 151.027 235.803 151.116 235.803C152.89 235.695 154.438 234.561 155.069 232.895L217.475 68.3711C217.613 68.0162 217.515 67.6514 217.554 67.2866C217.584 66.9909 217.643 66.705 217.623 66.4092C217.534 65.3839 217.229 64.3586 216.45 63.5699L216.44 63.56Z" fill="#E8CCED" stroke="#9A4DAA" stroke-width="6.90117" stroke-linecap="round" stroke-linejoin="round"/>
<path d="M112.45 167.55L216.44 63.5596" stroke="#9A4DAA" stroke-width="6.90117" stroke-miterlimit="10" stroke-linecap="round"/>
</g>
<defs>
<clipPath id="clip0_195_1700">
<rect width="280" height="280" fill="white"/>
</clipPath>
</defs>
</svg>
