<?xml version="1.0" encoding="UTF-8"?>
<svg id="Layer_4" data-name="Layer 4" xmlns="http://www.w3.org/2000/svg" viewBox="0 0 1848.23 213.42">
  <defs>
    <style>
      .cls-1 {
        fill: #5b116b;
      }
    </style>
  </defs>
  <path class="cls-1" d="M0,8.23h50.54v70.04h.47L103.89,8.23h56.65l-56.41,69.1,61.35,85.56h-63.23l-35.96-55.24-15.75,16.92v38.31H0V8.23Z"/>
  <path class="cls-1" d="M172.01,46.77h46.54l-1.41,31.03h.47c5.41-20.21,18.1-32.91,43.95-32.91,28.68,0,43.95,16.22,43.95,45.36v72.63h-46.54v-60.88c0-12.69-6.82-18.33-18.33-18.33-13.63,0-22.09,8.23-22.09,25.15v54.06h-46.54V46.77Z"/>
  <path class="cls-1" d="M316.21,105.07c0-36.43,23.27-60.17,66.75-60.17s66.52,23.74,66.52,60.17-23.03,59.7-66.52,59.7-66.75-23.5-66.75-59.7ZM402.94,105.07c0-17.63-7.05-27.03-19.98-27.03s-20.21,9.4-20.21,27.03,7.05,26.56,20.21,26.56,19.98-9.4,19.98-26.56Z"/>
  <path class="cls-1" d="M450.23,46.77h49.36l15.28,73.33h.47l17.16-73.33h43.72l16.45,73.33h.47l15.98-73.33h40.9l-29.85,116.11h-56.41l-14.81-65.58h-.47l-15.51,65.58h-52.89l-29.85-116.11Z"/>
  <path class="cls-1" d="M714.89,8.23h74.51l23.97,82.5h.47l23.97-82.5h68.16v154.66h-50.3l.71-103.42h-.47l-30.56,103.42h-36.67l-30.79-103.42h-.47l.71,103.42h-43.25V8.23Z"/>
  <path class="cls-1" d="M935.36,209.19v-31.97c3.76.94,9.64,1.65,15.98,1.65,10.34,0,14.57-4.23,19.04-15.98h-9.87l-46.07-116.11h53.36l23.03,69.57h.47l20.68-69.57h43.25l-40.19,119.64c-11.28,34.08-26.56,46.07-54.06,46.07-11.75,0-21.39-1.88-25.62-3.29Z"/>
  <path class="cls-1" d="M1120.11,8.23h73.57c48.89,0,69.34,17.86,69.34,46.77,0,18.33-7.52,31.73-24.68,36.43v.47c18.1,4,23.97,16.92,23.97,33.38v37.61h-50.3v-37.84c0-12.46-4.47-17.16-15.75-17.16h-25.62v55h-50.54V8.23ZM1194.85,82.74c12.93,0,19.51-5.64,19.51-17.86,0-11.52-6.58-18.1-20.68-18.1h-23.03v35.96h24.21Z"/>
  <path class="cls-1" d="M1279.56,4.47h46.77v31.73h-46.77V4.47ZM1279.56,46.77h46.54v116.11h-46.54V46.77Z"/>
  <path class="cls-1" d="M1471.73,171.11c0,26.09-22.56,42.31-67.46,42.31-47.48,0-68.63-11.75-68.63-29.38,0-10.58,6.82-18.1,19.98-19.27v-.47c-8.7-5.41-11.75-12.93-11.75-20.21,0-11.28,6.11-19.74,17.63-23.03v-.24c-14.34-6.82-21.62-18.57-21.62-34.32,0-25.15,19.98-41.6,59-41.6,14.1,0,25.86,2.12,35.26,6.11v-.24c-4.47-3.53-7.76-8.23-7.76-13.16,0-8.93,8.7-15.28,27.03-15.28,6.58,0,10.81.47,13.87.94v27.97c-2.12-.23-4.23-.47-6.35-.47-7.05,0-10.34,2.82-10.34,7.52,0,2.12.94,4.94,1.88,7.76,3.53,5.88,5.41,12.69,5.41,20.45,0,25.39-20.21,41.37-59,41.37-6.35,0-12.46-.47-17.86-1.18-.71,1.18-1.41,3.29-1.41,5.64,0,4.23,3.29,6.82,8.7,6.82h38.31c30.32,0,45.13,12.69,45.13,31.97ZM1425.66,179.81c0-5.17-4-7.99-14.81-7.99h-18.33c-6.82,0-11.28,3.06-11.28,8.46,0,6.82,7.99,10.58,22.56,10.58s21.86-4,21.86-11.05ZM1383.59,86.5c0,11.05,5.64,16.92,15.28,16.92s15.28-5.88,15.28-16.92-5.41-16.92-15.28-16.92-15.28,5.64-15.28,16.92Z"/>
  <path class="cls-1" d="M1479.02,0h46.54v49.59c0,4.47-.47,17.63-1.17,28.21h.47c5.41-19.98,17.86-32.91,43.95-32.91,28.21,0,43.72,15.75,43.72,45.36v72.63h-46.54v-60.88c0-12.69-6.35-18.33-18.33-18.33-13.63,0-22.09,8.23-22.09,25.15v54.06h-46.54V0Z"/>
  <path class="cls-1" d="M1634.53,121.99v-40.19h-15.98v-35.02h12.69c6.35,0,9.17-3.06,9.87-11.52l1.65-14.81h38.31v26.33h34.32v35.02h-34.32v35.73c0,9.64,4.47,12.69,17.63,12.69,5.41,0,12.22-.71,15.28-1.41v33.38c-3.53.94-14.1,2.58-26.79,2.58-39.02,0-52.65-16.45-52.65-42.78Z"/>
  <path class="cls-1" d="M1724.36,123.87h39.49c.23,9.64,4.7,15.28,19.51,15.28,13.4,0,18.33-4.7,18.33-11.52,0-4.23-2.12-7.05-8.23-7.99-5.88-1.17-13.87-1.88-23.03-2.82-15.98-1.41-27.74-4-34.79-8.46-6.82-4.7-11.28-13.4-11.28-23.27,0-25.15,24.68-40.19,60.64-40.19,42.31,0,58.53,15.28,58.53,41.6h-39.25c0-10.81-4.47-15.98-17.16-15.98-11.99,0-16.92,4.7-16.92,11.28,0,4.7,1.88,8.23,8.7,9.64,5.88.94,14.81,1.88,25.15,2.82,12.69,1.41,23.04,2.82,31.26,7.52,8.23,4.7,12.93,13.4,12.93,23.27,0,23.74-17.86,39.72-63.46,39.72s-60.41-18.33-60.41-40.9Z"/>
</svg>