<svg width="1302" height="310" viewBox="0 0 1302 310" fill="none" xmlns="http://www.w3.org/2000/svg">
<g clip-path="url(#clip0_234_3651)">
<path d="M6.04004 44.9687C6.04004 23.4296 23.5009 5.96875 45.04 5.96875H245.04C266.579 5.96875 284.04 23.4296 284.04 44.9688V319.969H6.04004V44.9687Z" fill="url(#paint0_linear_234_3651)"/>
<path d="M221.915 245.113C202.082 236.557 212.219 215.068 212.219 215.068C212.219 215.068 226.947 184.396 197.614 178.763C176.513 174.712 155.04 208.557 144.649 227.87C134.257 208.554 112.784 174.709 91.683 178.763C62.3503 184.396 77.0781 215.068 77.0781 215.068C77.0781 215.068 87.2152 236.557 67.3825 245.113C32.6096 259.38 36.703 293.75 40.0475 307.813C40.9584 311.644 94.4856 310.21 94.4856 310.21L144.649 248.617L194.812 310.21C194.812 310.21 248.492 311.228 249.484 306.793C252.765 292.155 255.872 259.047 221.915 245.113Z" fill="black" stroke="black" stroke-width="2.51472" stroke-linecap="round" stroke-linejoin="round"/>
<path d="M259.623 312.966H29.8476C29.7721 312.966 29.6967 312.966 29.624 312.966C47.5567 285.212 76.1407 265.781 123.557 253.118H165.687C213.103 265.784 241.687 285.212 259.623 312.968V312.966Z" fill="#EB6E25" stroke="black" stroke-width="2.51472" stroke-linecap="round" stroke-linejoin="round"/>
<path d="M183.351 258.438L196.062 312.966H29.8476C29.7721 312.966 29.6967 312.966 29.624 312.966C47.5567 285.212 76.1407 265.781 123.557 253.118H165.687C171.89 254.775 177.774 256.549 183.351 258.441V258.438Z" fill="#EB6E25" stroke="black" stroke-width="2.51472" stroke-linecap="round" stroke-linejoin="round"/>
<path d="M259.624 312.966H234.351L226.488 279.229C240.442 288.746 251.205 299.94 259.624 312.966Z" fill="#EB6E25" stroke="black" stroke-width="2.51472" stroke-linecap="round" stroke-linejoin="round"/>
<path d="M166.802 210.71V253.22C183.43 257.682 197.959 262.983 210.642 269.186C210.642 269.186 193.41 291.798 144.65 291.798C95.8868 291.798 78.6582 269.186 78.6582 269.186C91.3408 262.983 105.87 257.685 122.498 253.22V210.71H166.802Z" fill="#F79E71" stroke="black" stroke-width="2.51472" stroke-linecap="round" stroke-linejoin="round"/>
<path d="M199.042 139.372C194.247 152.678 194.828 175.777 207.019 180.169C219.21 184.562 238.397 168.585 243.192 155.279C247.987 141.974 241.988 127.629 229.797 123.236C217.606 118.844 203.837 126.067 199.042 139.372Z" fill="#F79E71" stroke="black" stroke-width="2.51472" stroke-linecap="round" stroke-linejoin="round"/>
<path d="M90.3155 139.372C95.1102 152.678 94.5291 175.777 82.3383 180.169C70.1475 184.562 50.9602 168.585 46.1655 155.279C41.3707 141.974 47.3697 127.629 59.5605 123.236C71.7513 118.844 85.5208 126.067 90.3155 139.372Z" fill="#F79E71" stroke="black" stroke-width="2.51472" stroke-linecap="round" stroke-linejoin="round"/>
<path d="M216.337 142.116C216.337 184.551 183.822 230.034 144.679 230.034C105.536 230.034 73.0205 184.551 73.0205 142.116C73.0205 99.6819 93.8871 65.2861 144.679 65.2861C195.47 65.2861 216.337 99.6847 216.337 142.119V142.116Z" fill="#F79E71" stroke="black" stroke-width="2.51472" stroke-linecap="round" stroke-linejoin="round"/>
<path d="M195.871 147.638C195.871 138.269 186.999 130.675 177.631 130.675C168.262 130.675 160.03 137.632 160.03 147.001C160.03 147.001 166.557 153.564 177.631 153.564C187.097 153.564 195.871 147.641 195.871 147.641V147.638Z" fill="#F8F5EF"/>
<path d="M177.21 153.56C183.325 153.56 188.283 148.603 188.283 142.487C188.283 136.372 183.325 131.414 177.21 131.414C171.094 131.414 166.137 136.372 166.137 142.487C166.137 148.603 171.094 153.56 177.21 153.56Z" fill="black"/>
<path d="M195.871 147.638C195.871 138.269 186.999 130.675 177.631 130.675C168.262 130.675 160.03 137.632 160.03 147.001" stroke="black" stroke-width="2.51472" stroke-linecap="round" stroke-linejoin="round"/>
<path d="M144.678 131.193V164.125" stroke="black" stroke-width="2.51472" stroke-linecap="round" stroke-linejoin="round"/>
<path d="M95.6963 125.65C95.6963 125.65 101.651 118.17 114.532 120.811" stroke="black" stroke-width="2.51472" stroke-linecap="round" stroke-linejoin="round"/>
<path d="M193.658 125.65C193.658 125.65 187.704 118.17 174.823 120.811" stroke="black" stroke-width="2.51472" stroke-linecap="round" stroke-linejoin="round"/>
<path d="M192.69 81.4226C173.24 66.3762 147.022 65.5044 144.678 65.5268C142.334 65.5072 116.116 66.3762 96.6665 81.4226C84.5484 94.5773 78.9629 109.981 78.9629 109.981C78.9629 109.981 115.915 127.104 124.13 94.8931C130.903 68.3349 143.029 65.7782 144.678 65.5519C146.327 65.7782 158.453 68.3349 165.226 94.8931C173.441 127.104 210.393 109.981 210.393 109.981C210.393 109.981 204.808 94.5773 192.69 81.4226Z" fill="black" stroke="black" stroke-width="2.51472" stroke-linecap="round" stroke-linejoin="round"/>
<path d="M157.913 193.203C151.515 191.429 148.871 188.266 144.68 194.335C140.486 188.266 137.843 191.429 131.447 193.203C131.447 193.203 134.269 205.025 144.68 205.025C155.091 205.025 157.913 193.203 157.913 193.203Z" fill="#CC4D0D" stroke="#CC4D0D" stroke-width="2.51472" stroke-linecap="round" stroke-linejoin="round"/>
<path d="M93.4863 147.638C93.4863 138.269 102.358 130.675 111.726 130.675C121.095 130.675 129.327 137.632 129.327 147.001C129.327 147.001 122.8 153.564 111.726 153.564C102.26 153.564 93.4863 147.641 93.4863 147.641V147.638Z" fill="#F8F5EF"/>
<path d="M112.146 153.56C118.262 153.56 123.22 148.603 123.22 142.487C123.22 136.372 118.262 131.414 112.146 131.414C106.031 131.414 101.073 136.372 101.073 142.487C101.073 148.603 106.031 153.56 112.146 153.56Z" fill="black"/>
<path d="M93.4863 147.638C93.4863 138.269 102.358 130.675 111.726 130.675C121.095 130.675 129.327 137.632 129.327 147.001" stroke="black" stroke-width="2.51472" stroke-linecap="round" stroke-linejoin="round"/>
<path d="M186.07 247.046C178.391 247.046 172.144 240.764 172.144 233.047V192.675C151.487 186.519 137.142 167.256 137.142 145.496C137.142 118.365 159.089 96.291 186.07 96.291C213.05 96.291 234.998 118.365 234.998 145.496C234.998 167.256 220.653 186.519 199.996 192.675V233.047C199.996 240.767 193.748 247.046 186.07 247.046Z" fill="#919191"/>
<path d="M186.071 97.546C212.4 97.546 233.742 119.013 233.742 145.493C233.742 167.561 218.919 186.145 198.74 191.725V233.045C198.74 240.083 193.068 245.786 186.071 245.786C179.075 245.786 173.403 240.08 173.403 233.045V191.725C153.226 186.142 138.4 167.561 138.4 145.493C138.4 119.013 159.742 97.546 186.071 97.546ZM186.071 95.0312C179.295 95.0312 172.721 96.3668 166.532 98.9989C160.555 101.542 155.188 105.18 150.58 109.815C145.973 114.448 142.357 119.846 139.828 125.853C137.213 132.076 135.886 138.681 135.886 145.49C135.886 151.168 136.816 156.745 138.655 162.06C140.432 167.201 143.016 171.998 146.341 176.321C149.63 180.599 153.556 184.301 158.007 187.327C161.997 190.037 166.322 192.141 170.888 193.597V233.042C170.888 241.455 177.7 248.298 186.071 248.298C194.442 248.298 201.254 241.452 201.254 233.042V193.597C205.82 192.141 210.145 190.037 214.135 187.327C218.589 184.301 222.512 180.599 225.801 176.321C229.123 171.998 231.71 167.201 233.487 162.06C235.326 156.742 236.256 151.168 236.256 145.49C236.256 138.681 234.929 132.073 232.314 125.853C229.788 119.843 226.17 114.448 221.562 109.815C216.955 105.18 211.587 101.542 205.61 98.9989C199.421 96.3668 192.847 95.0312 186.071 95.0312Z" fill="black"/>
<path d="M186.07 181.462C205.787 181.462 221.77 165.386 221.77 145.555C221.77 125.724 205.787 109.647 186.07 109.647C166.353 109.647 150.369 125.724 150.369 145.555C150.369 165.386 166.353 181.462 186.07 181.462Z" fill="#B7D8F3"/>
<path d="M211.22 161.684C207.193 168.021 200.867 172.734 193.421 174.634" stroke="#F8F5EF" stroke-width="2.51472" stroke-miterlimit="10" stroke-linecap="round"/>
<path d="M212.09 150.936C212.09 137.237 199.12 126.133 185.42 126.133C171.721 126.133 159.684 136.306 159.684 150.006C159.684 150.006 169.228 159.601 185.42 159.601C199.262 159.601 212.09 150.939 212.09 150.939V150.936Z" fill="#F8F5EF"/>
<path d="M184.803 159.6C193.746 159.6 200.995 152.35 200.995 143.408C200.995 134.465 193.746 127.216 184.803 127.216C175.861 127.216 168.611 134.465 168.611 143.408C168.611 152.35 175.861 159.6 184.803 159.6Z" fill="black"/>
<path d="M212.09 150.936C212.09 137.237 199.12 126.133 185.42 126.133C171.721 126.133 159.684 136.306 159.684 150.006" stroke="black" stroke-width="2.56501" stroke-linecap="round" stroke-linejoin="round"/>
<path d="M234.35 312.965H196.062L183.351 258.438L179.677 242.676C177.338 232.648 183.572 222.623 193.603 220.284C203.631 217.946 213.656 224.182 215.992 234.21L226.487 279.229L234.35 312.965Z" fill="#F79E71" stroke="black" stroke-width="2.51472" stroke-linecap="round" stroke-linejoin="round"/>
<path d="M92.9858 19.6302C92.9719 15.4149 89.5409 12.0103 85.3255 12.0291C84.5944 12.0324 84 11.4406 84 10.7095L84.0001 7.99707H205V10.663C205 11.3987 204.404 11.995 203.668 11.995C199.417 11.995 195.97 15.4415 195.97 19.6929V22.5169C195.97 28.3279 191.259 33.0387 185.448 33.0387H103.528C97.7247 33.0387 93.0145 28.344 92.9954 22.5404L92.9858 19.6302Z" fill="#5B116B"/>
<path d="M278 73.1629C278 61.3091 277.995 52.7791 277.447 46.08C276.905 39.4509 275.862 35.1437 274.076 31.6401C270.625 24.8698 265.118 19.3654 258.344 15.9157C254.838 14.1306 250.529 13.088 243.896 12.5463C237.194 11.999 228.66 11.9939 216.8 11.9939H73.2002C61.3403 11.9939 52.806 11.999 46.1035 12.5463C39.471 13.088 35.1616 14.1306 31.6563 15.9157C24.8825 19.3654 19.3753 24.8698 15.9238 31.6401C14.1378 35.1437 13.0946 39.4509 12.5527 46.08C12.0051 52.7791 12 61.3091 12 73.1629V298.648C12 310.501 12.0051 319.031 12.5527 325.73C13.0946 332.36 14.1378 336.667 15.9238 340.17C19.3753 346.941 24.8825 352.445 31.6563 355.895C35.1616 357.68 39.471 358.722 46.1035 359.264C52.806 359.811 61.3403 359.817 73.2002 359.817H216.8C228.66 359.817 237.194 359.811 243.896 359.264C250.529 358.722 254.838 357.68 258.344 355.895C265.118 352.445 270.625 346.941 274.076 340.17C275.862 336.667 276.905 332.36 277.447 325.73C277.995 319.031 278 310.501 278 298.648V73.1629ZM290 298.648C290 310.304 290.005 319.407 289.408 326.707C288.806 334.078 287.56 340.14 284.769 345.616C280.167 354.643 272.824 361.982 263.792 366.582C258.313 369.372 252.249 370.617 244.874 371.219C237.569 371.815 228.462 371.81 216.8 371.81H73.2002C61.5382 371.81 52.4305 371.815 45.126 371.219C37.7513 370.617 31.687 369.372 26.208 366.582C17.1764 361.982 9.83333 354.643 5.23145 345.616C2.43978 340.14 1.19433 334.078 0.591798 326.707C-0.0050016 319.407 1.36033e-06 310.304 1.36033e-06 298.648V73.1629C1.36033e-06 61.5068 -0.00500137 52.4038 0.591798 45.103C1.19433 37.7321 2.43978 31.6708 5.23145 26.1947C9.83333 17.1677 17.1764 9.82832 26.208 5.22878C31.687 2.43854 37.7513 1.19372 45.126 0.591497C52.4305 -0.00499852 61.5382 1.35964e-06 73.2002 1.35964e-06H216.8C228.462 1.35964e-06 237.569 -0.00499906 244.874 0.591497C252.249 1.19372 258.313 2.43854 263.792 5.22878C272.824 9.82832 280.167 17.1677 284.769 26.1947C287.56 31.6708 288.806 37.7321 289.408 45.103C290.005 52.4038 290 61.5068 290 73.1629V298.648Z" fill="#5B116B"/>
<path d="M343.209 44.9687C343.209 23.4296 360.67 5.96875 382.209 5.96875H582.209C603.748 5.96875 621.209 23.4296 621.209 44.9688V319.969H343.209V44.9687Z" fill="url(#paint1_linear_234_3651)"/>
<g clip-path="url(#clip1_234_3651)">
<rect x="370.209" y="39.9688" width="224" height="264" rx="19" fill="#F8F5EF"/>
<path d="M377.709 246.469C379.709 196.969 446.209 201.969 443.709 248.968C463.709 242.968 478.025 256.968 478.025 262.468V308.468H361.526C347.303 290.368 353.709 253.969 377.709 246.469Z" fill="#2F9C57" stroke="#1B753C" stroke-width="2" stroke-linejoin="bevel"/>
<rect x="464.209" y="58.9688" width="36" height="277" rx="18" fill="#F8F5EF" stroke="#7C2300" stroke-width="2"/>
<path d="M419.344 98.9688H518.209C522.075 98.9688 525.209 102.103 525.209 105.969V139.969C525.209 143.835 522.075 146.969 518.209 146.969H419.362C418.867 146.969 418.39 146.785 418.022 146.453L393.373 124.21C392.487 123.41 392.495 122.016 393.39 121.226L418.021 99.4697C418.386 99.1471 418.856 98.9689 419.344 98.9688Z" fill="#7AB9ED" stroke="#3D84CB" stroke-width="2"/>
<path d="M430.209 107.969L415.779 120.474C414.415 121.656 414.396 123.767 415.739 124.973L430.209 137.969" stroke="#F8F5EF" stroke-width="2" stroke-linecap="round"/>
<path d="M444.209 107.969L429.779 120.474C428.415 121.656 428.396 123.767 429.739 124.973L444.209 137.969" stroke="#F8F5EF" stroke-width="2" stroke-linecap="round"/>
<path d="M510.209 107.969L495.779 120.474C494.415 121.656 494.396 123.767 495.739 124.973L510.209 137.969" stroke="#F8F5EF" stroke-width="2" stroke-linecap="round"/>
<path d="M458.209 107.969L443.779 120.474C442.415 121.656 442.396 123.767 443.739 124.973L458.209 137.969" stroke="#F8F5EF" stroke-width="2" stroke-linecap="round"/>
<path d="M519.209 112.969L510.006 120.433C508.55 121.613 508.521 123.824 509.945 125.042L519.209 132.969" stroke="#F8F5EF" stroke-width="2" stroke-linecap="round"/>
<path d="M537.209 249.469C533.709 228.469 565.709 215.969 580.209 234.969C586.209 223.369 597.042 224.802 601.709 226.969V308.469H485.209C474.209 294.469 486.709 279.969 495.209 279.469C492.709 262.969 511.209 240.969 537.209 249.469Z" fill="#66BF84" stroke="#2F9C57" stroke-width="2" stroke-linejoin="bevel"/>
<path d="M548.074 155.969H449.209C445.343 155.969 442.209 159.103 442.209 162.969V196.969C442.209 200.835 445.343 203.969 449.209 203.969H548.056C548.551 203.969 549.028 203.785 549.396 203.453L574.045 181.21C574.931 180.41 574.923 179.016 574.028 178.226L549.397 156.47C549.032 156.147 548.562 155.969 548.074 155.969Z" fill="#EB6E25" stroke="#C64309" stroke-width="2"/>
<path d="M554.389 180.45L535.495 197.707C535.311 197.875 535.071 197.969 534.821 197.969H527.739C526.832 197.969 526.394 196.859 527.055 196.239L543.939 180.422C544.357 180.03 544.361 179.367 543.947 178.971L528.005 163.691C527.355 163.067 527.796 161.969 528.697 161.969H534.83C535.074 161.969 535.31 162.058 535.493 162.22L554.378 178.964C554.822 179.358 554.827 180.05 554.389 180.45Z" fill="#F8F5EF"/>
<path d="M517.389 180.45L498.495 197.707C498.311 197.875 498.071 197.969 497.821 197.969H490.739C489.832 197.969 489.394 196.859 490.055 196.239L506.939 180.422C507.357 180.03 507.361 179.367 506.947 178.971L491.005 163.691C490.355 163.067 490.796 161.969 491.697 161.969H497.83C498.074 161.969 498.31 162.058 498.493 162.22L517.378 178.964C517.822 179.358 517.827 180.05 517.389 180.45Z" fill="#F8F5EF"/>
<path d="M480.389 180.45L461.495 197.707C461.311 197.875 461.071 197.969 460.821 197.969H453.739C452.832 197.969 452.394 196.859 453.055 196.239L469.939 180.422C470.357 180.03 470.361 179.367 469.947 178.971L454.005 163.691C453.355 163.067 453.796 161.969 454.697 161.969H460.83C461.074 161.969 461.31 162.058 461.493 162.22L480.378 178.964C480.822 179.358 480.827 180.05 480.389 180.45Z" fill="#F8F5EF"/>
<path d="M457.209 164.969L471.639 177.474C473.003 178.656 473.022 180.767 471.679 181.973L457.209 194.969" stroke="#F8F5EF" stroke-width="2" stroke-linecap="round"/>
<path d="M457.209 164.969L471.639 177.474C473.003 178.656 473.022 180.767 471.679 181.973L457.209 194.969" stroke="#F8F5EF" stroke-width="2" stroke-linecap="round"/>
</g>
<rect x="371.209" y="40.9688" width="222" height="262" rx="18" stroke="#BB79C9" stroke-width="2"/>
<path d="M430.155 19.6302C430.141 15.4149 426.71 12.0103 422.494 12.0291C421.763 12.0324 421.169 11.4406 421.169 10.7095L421.169 7.99707H542.169V10.663C542.169 11.3987 541.573 11.995 540.837 11.995C536.586 11.995 533.139 15.4415 533.139 19.6929V22.5169C533.139 28.3279 528.428 33.0387 522.617 33.0387H440.697C434.894 33.0387 430.183 28.344 430.164 22.5404L430.155 19.6302Z" fill="#5B116B"/>
<path d="M615.169 73.1629C615.169 61.3091 615.164 52.7791 614.616 46.08C614.074 39.4509 613.031 35.1437 611.245 31.6401C607.794 24.8698 602.286 19.3654 595.513 15.9157C592.007 14.1306 587.698 13.088 581.065 12.5463C574.363 11.999 565.829 11.9939 553.969 11.9939H410.369C398.509 11.9939 389.975 11.999 383.272 12.5463C376.64 13.088 372.331 14.1306 368.825 15.9157C362.051 19.3654 356.544 24.8698 353.093 31.6401C351.307 35.1437 350.264 39.4509 349.722 46.08C349.174 52.7791 349.169 61.3091 349.169 73.1629V298.648C349.169 310.501 349.174 319.031 349.722 325.73C350.264 332.36 351.307 336.667 353.093 340.17C356.544 346.941 362.051 352.445 368.825 355.895C372.331 357.68 376.64 358.722 383.272 359.264C389.975 359.811 398.509 359.817 410.369 359.817H553.969C565.829 359.817 574.363 359.811 581.065 359.264C587.698 358.722 592.007 357.68 595.513 355.895C602.286 352.445 607.794 346.941 611.245 340.17C613.031 336.667 614.074 332.36 614.616 325.73C615.164 319.031 615.169 310.501 615.169 298.648V73.1629ZM627.169 298.648C627.169 310.304 627.174 319.407 626.577 326.707C625.975 334.078 624.729 340.14 621.938 345.616C617.336 354.643 609.993 361.982 600.961 366.582C595.482 369.372 589.418 370.617 582.043 371.219C574.738 371.815 565.631 371.81 553.969 371.81H410.369C398.707 371.81 389.599 371.815 382.295 371.219C374.92 370.617 368.856 369.372 363.377 366.582C354.345 361.982 347.002 354.643 342.4 345.616C339.609 340.14 338.363 334.078 337.761 326.707C337.164 319.407 337.169 310.304 337.169 298.648V73.1629C337.169 61.5068 337.164 52.4038 337.761 45.103C338.363 37.7321 339.609 31.6708 342.4 26.1947C347.002 17.1677 354.345 9.82832 363.377 5.22878C368.856 2.43854 374.92 1.19372 382.295 0.591497C389.599 -0.00499852 398.707 1.35964e-06 410.369 1.35964e-06H553.969C565.631 1.35964e-06 574.738 -0.00499906 582.043 0.591497C589.418 1.19372 595.482 2.43854 600.961 5.22878C609.993 9.82832 617.336 17.1677 621.938 26.1947C624.729 31.6708 625.975 37.7321 626.577 45.103C627.174 52.4038 627.169 61.5068 627.169 73.1629V298.648Z" fill="#5B116B"/>
<path d="M680.378 44.9687C680.378 23.4296 697.839 5.96875 719.378 5.96875H919.378C940.917 5.96875 958.378 23.4296 958.378 44.9688V319.969H680.378V44.9687Z" fill="url(#paint2_linear_234_3651)"/>
<rect x="708.041" y="40.9688" width="222" height="262" rx="18" fill="#B7D8F3"/>
<rect x="708.041" y="40.9688" width="222" height="262" rx="18" stroke="#BB79C9" stroke-width="2"/>
<path d="M745.625 51.9688H894.625C905.118 51.9688 913.625 60.4753 913.625 70.9688V108.969C913.625 119.463 905.128 127.969 894.635 127.969H759.625C755.839 127.969 752.776 129.138 750.353 131.219C747.948 133.283 746.236 136.19 745.027 139.578C742.618 146.332 742.125 155.255 742.376 164.06C742.627 172.885 743.632 181.728 744.286 188.341C744.615 191.665 744.852 194.396 744.871 196.306C744.88 197.176 744.841 197.818 744.765 198.247C744.511 198.02 744.192 197.65 743.819 197.107C743.03 195.957 742.104 194.206 741.095 191.924C739.081 187.372 736.799 180.857 734.65 173.198C730.353 157.877 726.625 138.098 726.625 120.469C726.625 102.047 726.625 84.0286 726.625 70.9561C726.625 60.4635 735.131 51.9688 745.625 51.9688Z" fill="#F8F5EF" stroke="#3D84CB" stroke-width="2"/>
<path d="M750.861 85.1848C749.757 85.1848 748.821 84.9988 748.053 84.6268C747.297 84.2548 746.685 83.7568 746.217 83.1328C745.749 82.4968 745.407 81.7888 745.191 81.0088C744.987 80.2168 744.885 79.4068 744.885 78.5788C744.885 77.7028 745.005 76.8808 745.245 76.1128C745.485 75.3328 745.851 74.6488 746.343 74.0608C746.835 73.4608 747.453 72.9928 748.197 72.6568C748.941 72.3088 749.817 72.1348 750.825 72.1348C751.605 72.1348 752.331 72.2968 753.003 72.6208C753.675 72.9448 754.245 73.3948 754.713 73.9708C755.193 74.5348 755.517 75.1888 755.685 75.9328L753.147 76.4368C753.063 76.0888 752.901 75.7648 752.661 75.4648C752.421 75.1648 752.139 74.9248 751.815 74.7448C751.491 74.5648 751.149 74.4748 750.789 74.4748C750.069 74.4748 749.475 74.6368 749.007 74.9608C748.551 75.2848 748.209 75.7528 747.981 76.3648C747.765 76.9648 747.657 77.6908 747.657 78.5428C747.657 79.4908 747.771 80.2828 747.999 80.9188C748.239 81.5548 748.593 82.0348 749.061 82.3588C749.541 82.6708 750.141 82.8268 750.861 82.8268C751.197 82.8268 751.521 82.7488 751.833 82.5928C752.157 82.4248 752.433 82.1968 752.661 81.9088C752.901 81.6208 753.063 81.2788 753.147 80.8828L755.685 81.3868C755.517 82.1188 755.229 82.7728 754.821 83.3488C754.413 83.9248 753.879 84.3748 753.219 84.6988C752.559 85.0228 751.773 85.1848 750.861 85.1848Z" fill="#135BA3"/>
<path d="M760.988 85.1848C760.172 85.1848 759.476 84.9928 758.9 84.6088C758.324 84.2248 757.886 83.6788 757.586 82.9708C757.286 82.2508 757.136 81.3988 757.136 80.4148C757.136 79.4068 757.298 78.5488 757.622 77.8408C757.958 77.1208 758.42 76.5688 759.008 76.1848C759.608 75.8008 760.298 75.6088 761.078 75.6088C761.582 75.6088 762.02 75.6988 762.392 75.8788C762.764 76.0588 763.076 76.2928 763.328 76.5808C763.58 76.8568 763.784 77.1628 763.94 77.4988V75.8248H766.46L766.442 84.9688H763.94V83.4748C763.784 83.7988 763.574 84.0928 763.31 84.3568C763.058 84.6088 762.74 84.8128 762.356 84.9688C761.984 85.1128 761.528 85.1848 760.988 85.1848ZM761.888 83.2408C762.296 83.2288 762.65 83.1088 762.95 82.8808C763.262 82.6528 763.502 82.3288 763.67 81.9088C763.85 81.4768 763.94 80.9788 763.94 80.4148C763.94 79.8868 763.85 79.4128 763.67 78.9928C763.502 78.5608 763.262 78.2188 762.95 77.9668C762.65 77.7148 762.296 77.5888 761.888 77.5888C761.456 77.5888 761.078 77.7148 760.754 77.9668C760.442 78.2188 760.196 78.5608 760.016 78.9928C759.848 79.4128 759.764 79.8868 759.764 80.4148C759.764 80.9908 759.848 81.4948 760.016 81.9268C760.196 82.3468 760.442 82.6708 760.754 82.8988C761.078 83.1268 761.456 83.2408 761.888 83.2408Z" fill="#135BA3"/>
<path d="M769.058 84.9688V75.8248H771.578V77.2288C771.674 77.0128 771.806 76.8088 771.974 76.6168C772.142 76.4128 772.334 76.2388 772.55 76.0948C772.778 75.9388 773.03 75.8188 773.306 75.7348C773.582 75.6508 773.87 75.6088 774.17 75.6088C774.974 75.6088 775.628 75.7648 776.132 76.0768C776.648 76.3888 777.026 76.8268 777.266 77.3908C777.506 77.9428 777.626 78.5788 777.626 79.2988V84.9688H775.106V79.6408C775.106 78.9688 774.98 78.4648 774.728 78.1288C774.476 77.7928 774.092 77.6248 773.576 77.6248C773.084 77.6248 772.688 77.7448 772.388 77.9848C772.1 78.2128 771.89 78.5548 771.758 79.0108C771.638 79.4668 771.578 80.0188 771.578 80.6668V84.9688H769.058Z" fill="#135BA3"/>
<path d="M786.047 84.9688V82.7728H788.099V74.5648H786.047V72.3688H792.761V74.5648H790.727V82.7728H792.761V84.9688H786.047Z" fill="#135BA3"/>
<path d="M805.379 85.1848C804.203 85.1848 803.345 84.9448 802.805 84.4648C802.277 83.9728 802.013 83.2468 802.013 82.2868V78.0028H800.285V75.8248H800.627C801.011 75.8248 801.311 75.7828 801.527 75.6988C801.743 75.6148 801.893 75.4768 801.977 75.2848C802.073 75.0808 802.121 74.8168 802.121 74.4928V73.6828H804.533V75.8428H806.621V78.0028H804.533V81.6568C804.533 82.0768 804.641 82.3708 804.857 82.5388C805.073 82.6948 805.301 82.7728 805.541 82.7728C805.661 82.7728 805.811 82.7668 805.991 82.7548C806.171 82.7428 806.333 82.7248 806.477 82.7008L806.495 85.0408C806.339 85.0888 806.147 85.1248 805.919 85.1488C805.703 85.1728 805.523 85.1848 805.379 85.1848Z" fill="#135BA3"/>
<path d="M811.884 85.1848C811.068 85.1848 810.372 84.9928 809.796 84.6088C809.22 84.2248 808.782 83.6788 808.482 82.9708C808.182 82.2508 808.032 81.3988 808.032 80.4148C808.032 79.4068 808.194 78.5488 808.518 77.8408C808.854 77.1208 809.316 76.5688 809.904 76.1848C810.504 75.8008 811.194 75.6088 811.974 75.6088C812.478 75.6088 812.916 75.6988 813.288 75.8788C813.66 76.0588 813.972 76.2928 814.224 76.5808C814.476 76.8568 814.68 77.1628 814.836 77.4988V75.8248H817.356L817.338 84.9688H814.836V83.4748C814.68 83.7988 814.47 84.0928 814.206 84.3568C813.954 84.6088 813.636 84.8128 813.252 84.9688C812.88 85.1128 812.424 85.1848 811.884 85.1848ZM812.784 83.2408C813.192 83.2288 813.546 83.1088 813.846 82.8808C814.158 82.6528 814.398 82.3288 814.566 81.9088C814.746 81.4768 814.836 80.9788 814.836 80.4148C814.836 79.8868 814.746 79.4128 814.566 78.9928C814.398 78.5608 814.158 78.2188 813.846 77.9668C813.546 77.7148 813.192 77.5888 812.784 77.5888C812.352 77.5888 811.974 77.7148 811.65 77.9668C811.338 78.2188 811.092 78.5608 810.912 78.9928C810.744 79.4128 810.66 79.8868 810.66 80.4148C810.66 80.9908 810.744 81.4948 810.912 81.9268C811.092 82.3468 811.338 82.6708 811.65 82.8988C811.974 83.1268 812.352 83.2408 812.784 83.2408Z" fill="#135BA3"/>
<path d="M819.918 84.9688V72.3688H822.438V84.9688H819.918Z" fill="#135BA3"/>
<path d="M827.207 82.8808L825.857 81.1888L831.077 75.8248H834.281L830.051 80.4508L829.619 80.6308L827.207 82.8808ZM825.461 84.9868V72.1708L827.981 72.1528V84.9688L825.461 84.9868ZM831.581 84.9688L828.431 79.9288L830.627 78.6508L834.605 84.9688H831.581Z" fill="#135BA3"/>
<path d="M845.777 85.1848C844.601 85.1848 843.743 84.9448 843.203 84.4648C842.675 83.9728 842.411 83.2468 842.411 82.2868V78.0028H840.683V75.8248H841.025C841.409 75.8248 841.709 75.7828 841.925 75.6988C842.141 75.6148 842.291 75.4768 842.375 75.2848C842.471 75.0808 842.519 74.8168 842.519 74.4928V73.6828H844.931V75.8428H847.019V78.0028H844.931V81.6568C844.931 82.0768 845.039 82.3708 845.255 82.5388C845.471 82.6948 845.699 82.7728 845.939 82.7728C846.059 82.7728 846.209 82.7668 846.389 82.7548C846.569 82.7428 846.731 82.7248 846.875 82.7008L846.893 85.0408C846.737 85.0888 846.545 85.1248 846.317 85.1488C846.101 85.1728 845.921 85.1848 845.777 85.1848Z" fill="#135BA3"/>
<path d="M853.2 85.1848C852.372 85.1848 851.592 85.0168 850.86 84.6808C850.128 84.3448 849.534 83.8228 849.078 83.1148C848.622 82.4068 848.394 81.5008 848.394 80.3968C848.394 79.5568 848.532 78.8368 848.808 78.2368C849.084 77.6368 849.456 77.1448 849.924 76.7608C850.392 76.3648 850.908 76.0768 851.472 75.8968C852.048 75.7048 852.624 75.6088 853.2 75.6088C854.028 75.6088 854.802 75.7768 855.522 76.1128C856.254 76.4488 856.842 76.9708 857.286 77.6788C857.742 78.3748 857.97 79.2808 857.97 80.3968C857.97 81.2248 857.832 81.9388 857.556 82.5388C857.292 83.1388 856.932 83.6368 856.476 84.0328C856.02 84.4288 855.504 84.7228 854.928 84.9148C854.364 85.0948 853.788 85.1848 853.2 85.1848ZM853.2 83.0248C853.932 83.0248 854.472 82.7908 854.82 82.3228C855.168 81.8428 855.342 81.2008 855.342 80.3968C855.342 79.6048 855.168 78.9688 854.82 78.4888C854.484 78.0088 853.944 77.7688 853.2 77.7688C852.504 77.7688 851.964 78.0088 851.58 78.4888C851.208 78.9688 851.022 79.6048 851.022 80.3968C851.022 81.2008 851.208 81.8428 851.58 82.3228C851.964 82.7908 852.504 83.0248 853.2 83.0248Z" fill="#135BA3"/>
<path d="M866.742 89.1088C866.382 89.1088 866.064 89.0848 865.788 89.0368C865.512 89.0008 865.314 88.9648 865.194 88.9288L865.212 86.7688C865.32 86.7928 865.47 86.8108 865.662 86.8228C865.866 86.8348 866.01 86.8408 866.094 86.8408C866.37 86.8408 866.646 86.7808 866.922 86.6608C867.198 86.5408 867.45 86.3368 867.678 86.0488C867.906 85.7728 868.074 85.3948 868.182 84.9148L864.438 75.8248H866.958L869.496 82.4308L871.566 75.8248H874.104L870.486 85.5808C870.174 86.4328 869.826 87.1168 869.442 87.6328C869.07 88.1608 868.662 88.5388 868.218 88.7668C867.774 88.9948 867.282 89.1088 866.742 89.1088Z" fill="#135BA3"/>
<path d="M879.422 85.1848C878.594 85.1848 877.814 85.0168 877.082 84.6808C876.35 84.3448 875.756 83.8228 875.3 83.1148C874.844 82.4068 874.616 81.5008 874.616 80.3968C874.616 79.5568 874.754 78.8368 875.03 78.2368C875.306 77.6368 875.678 77.1448 876.146 76.7608C876.614 76.3648 877.13 76.0768 877.694 75.8968C878.27 75.7048 878.846 75.6088 879.422 75.6088C880.25 75.6088 881.024 75.7768 881.744 76.1128C882.476 76.4488 883.064 76.9708 883.508 77.6788C883.964 78.3748 884.192 79.2808 884.192 80.3968C884.192 81.2248 884.054 81.9388 883.778 82.5388C883.514 83.1388 883.154 83.6368 882.698 84.0328C882.242 84.4288 881.726 84.7228 881.15 84.9148C880.586 85.0948 880.01 85.1848 879.422 85.1848ZM879.422 83.0248C880.154 83.0248 880.694 82.7908 881.042 82.3228C881.39 81.8428 881.564 81.2008 881.564 80.3968C881.564 79.6048 881.39 78.9688 881.042 78.4888C880.706 78.0088 880.166 77.7688 879.422 77.7688C878.726 77.7688 878.186 78.0088 877.802 78.4888C877.43 78.9688 877.244 79.6048 877.244 80.3968C877.244 81.2008 877.43 81.8428 877.802 82.3228C878.186 82.7908 878.726 83.0248 879.422 83.0248Z" fill="#135BA3"/>
<path d="M894.659 75.8248V84.9688H892.139V83.5648C892.043 83.7808 891.911 83.9908 891.743 84.1948C891.575 84.3868 891.377 84.5608 891.149 84.7168C890.933 84.8608 890.687 84.9748 890.411 85.0588C890.147 85.1428 889.859 85.1848 889.547 85.1848C888.743 85.1848 888.083 85.0288 887.567 84.7168C887.063 84.3928 886.691 83.9548 886.451 83.4028C886.211 82.8508 886.091 82.2148 886.091 81.4948V75.8248H888.611V81.1528C888.611 81.8128 888.737 82.3168 888.989 82.6648C889.241 83.0008 889.625 83.1688 890.141 83.1688C890.645 83.1688 891.041 83.0488 891.329 82.8088C891.617 82.5688 891.821 82.2268 891.941 81.7828C892.073 81.3268 892.139 80.7748 892.139 80.1268V75.8248H894.659Z" fill="#135BA3"/>
<path d="M743.19 107.185C742.374 107.185 741.678 106.993 741.102 106.609C740.526 106.225 740.088 105.679 739.788 104.971C739.488 104.251 739.338 103.399 739.338 102.415C739.338 101.407 739.5 100.549 739.824 99.8408C740.16 99.1208 740.622 98.5688 741.21 98.1848C741.81 97.8008 742.5 97.6088 743.28 97.6088C743.784 97.6088 744.222 97.6988 744.594 97.8788C744.966 98.0588 745.278 98.2928 745.53 98.5808C745.782 98.8568 745.986 99.1628 746.142 99.4988V97.8248H748.662L748.644 106.969H746.142V105.475C745.986 105.799 745.776 106.093 745.512 106.357C745.26 106.609 744.942 106.813 744.558 106.969C744.186 107.113 743.73 107.185 743.19 107.185ZM744.09 105.241C744.498 105.229 744.852 105.109 745.152 104.881C745.464 104.653 745.704 104.329 745.872 103.909C746.052 103.477 746.142 102.979 746.142 102.415C746.142 101.887 746.052 101.413 745.872 100.993C745.704 100.561 745.464 100.219 745.152 99.9668C744.852 99.7148 744.498 99.5888 744.09 99.5888C743.658 99.5888 743.28 99.7148 742.956 99.9668C742.644 100.219 742.398 100.561 742.218 100.993C742.05 101.413 741.966 101.887 741.966 102.415C741.966 102.991 742.05 103.495 742.218 103.927C742.398 104.347 742.644 104.671 742.956 104.899C743.28 105.127 743.658 105.241 744.09 105.241Z" fill="#135BA3"/>
<path d="M753.798 99.3188C753.954 98.9948 754.164 98.7068 754.428 98.4548C754.704 98.1908 755.034 97.9868 755.418 97.8428C755.814 97.6868 756.258 97.6088 756.75 97.6088C757.542 97.6088 758.226 97.8008 758.802 98.1848C759.378 98.5688 759.822 99.1148 760.134 99.8228C760.446 100.531 760.602 101.383 760.602 102.379C760.602 103.387 760.434 104.251 760.098 104.971C759.774 105.679 759.318 106.225 758.73 106.609C758.142 106.993 757.452 107.185 756.66 107.185C756.192 107.185 755.772 107.095 755.4 106.915C755.028 106.735 754.704 106.501 754.428 106.213C754.164 105.925 753.954 105.619 753.798 105.295V106.969H751.26L751.278 94.3688H753.798V99.3188ZM755.85 99.5528C755.442 99.5528 755.082 99.6728 754.77 99.9128C754.47 100.141 754.23 100.465 754.05 100.885C753.882 101.305 753.798 101.803 753.798 102.379C753.798 102.907 753.882 103.387 754.05 103.819C754.23 104.239 754.47 104.575 754.77 104.827C755.082 105.079 755.442 105.205 755.85 105.205C756.282 105.205 756.654 105.079 756.966 104.827C757.29 104.575 757.536 104.233 757.704 103.801C757.884 103.369 757.974 102.895 757.974 102.379C757.974 101.803 757.884 101.305 757.704 100.885C757.536 100.453 757.29 100.123 756.966 99.8948C756.654 99.6548 756.282 99.5408 755.85 99.5528Z" fill="#135BA3"/>
<path d="M766.669 107.185C765.841 107.185 765.061 107.017 764.329 106.681C763.597 106.345 763.003 105.823 762.547 105.115C762.091 104.407 761.863 103.501 761.863 102.397C761.863 101.557 762.001 100.837 762.277 100.237C762.553 99.6368 762.925 99.1448 763.393 98.7608C763.861 98.3648 764.377 98.0768 764.941 97.8968C765.517 97.7048 766.093 97.6088 766.669 97.6088C767.497 97.6088 768.271 97.7768 768.991 98.1128C769.723 98.4488 770.311 98.9708 770.755 99.6788C771.211 100.375 771.439 101.281 771.439 102.397C771.439 103.225 771.301 103.939 771.025 104.539C770.761 105.139 770.401 105.637 769.945 106.033C769.489 106.429 768.973 106.723 768.397 106.915C767.833 107.095 767.257 107.185 766.669 107.185ZM766.669 105.025C767.401 105.025 767.941 104.791 768.289 104.323C768.637 103.843 768.811 103.201 768.811 102.397C768.811 101.605 768.637 100.969 768.289 100.489C767.953 100.009 767.413 99.7688 766.669 99.7688C765.973 99.7688 765.433 100.009 765.049 100.489C764.677 100.969 764.491 101.605 764.491 102.397C764.491 103.201 764.677 103.843 765.049 104.323C765.433 104.791 765.973 105.025 766.669 105.025Z" fill="#135BA3"/>
<path d="M781.906 97.8248V106.969H779.386V105.565C779.29 105.781 779.158 105.991 778.99 106.195C778.822 106.387 778.624 106.561 778.396 106.717C778.18 106.861 777.934 106.975 777.658 107.059C777.394 107.143 777.106 107.185 776.794 107.185C775.99 107.185 775.33 107.029 774.814 106.717C774.31 106.393 773.938 105.955 773.698 105.403C773.458 104.851 773.338 104.215 773.338 103.495V97.8248H775.858V103.153C775.858 103.813 775.984 104.317 776.236 104.665C776.488 105.001 776.872 105.169 777.388 105.169C777.892 105.169 778.288 105.049 778.576 104.809C778.864 104.569 779.068 104.227 779.188 103.783C779.32 103.327 779.386 102.775 779.386 102.127V97.8248H781.906Z" fill="#135BA3"/>
<path d="M788.948 107.185C787.772 107.185 786.914 106.945 786.374 106.465C785.846 105.973 785.582 105.247 785.582 104.287V100.003H783.854V97.8248H784.196C784.58 97.8248 784.88 97.7828 785.096 97.6988C785.312 97.6148 785.462 97.4768 785.546 97.2848C785.642 97.0808 785.69 96.8168 785.69 96.4928V95.6828H788.102V97.8428H790.19V100.003H788.102V103.657C788.102 104.077 788.21 104.371 788.426 104.539C788.642 104.695 788.87 104.773 789.11 104.773C789.23 104.773 789.38 104.767 789.56 104.755C789.74 104.743 789.902 104.725 790.046 104.701L790.064 107.041C789.908 107.089 789.716 107.125 789.488 107.149C789.272 107.173 789.092 107.185 788.948 107.185Z" fill="#135BA3"/>
<path d="M801.444 107.185C800.496 107.185 799.704 107.029 799.068 106.717C798.432 106.393 797.952 105.973 797.628 105.457C797.304 104.941 797.142 104.389 797.142 103.801L799.59 103.819C799.59 104.107 799.674 104.353 799.842 104.557C800.01 104.749 800.238 104.893 800.526 104.989C800.826 105.085 801.174 105.133 801.57 105.133C802.086 105.133 802.494 105.061 802.794 104.917C803.094 104.773 803.244 104.527 803.244 104.179C803.244 103.975 803.106 103.825 802.83 103.729C802.554 103.621 802.194 103.537 801.75 103.477C801.318 103.417 800.856 103.345 800.364 103.261C799.884 103.165 799.422 103.021 798.978 102.829C798.546 102.637 798.192 102.361 797.916 102.001C797.64 101.641 797.502 101.167 797.502 100.579C797.502 100.027 797.628 99.5288 797.88 99.0848C798.144 98.6288 798.564 98.2688 799.14 98.0048C799.716 97.7408 800.466 97.6088 801.39 97.6088C802.17 97.6088 802.818 97.7048 803.334 97.8968C803.862 98.0888 804.282 98.3408 804.594 98.6528C804.918 98.9528 805.146 99.2828 805.278 99.6428C805.422 99.9908 805.494 100.327 805.494 100.651H803.046C803.046 100.387 802.896 100.159 802.596 99.9668C802.296 99.7628 801.888 99.6608 801.372 99.6608C800.88 99.6608 800.526 99.7328 800.31 99.8768C800.106 100.021 800.004 100.219 800.004 100.471C800.004 100.663 800.106 100.813 800.31 100.921C800.526 101.029 800.802 101.119 801.138 101.191C801.474 101.251 801.846 101.317 802.254 101.389C802.674 101.461 803.088 101.557 803.496 101.677C803.904 101.785 804.276 101.935 804.612 102.127C804.948 102.307 805.218 102.553 805.422 102.865C805.638 103.177 805.746 103.573 805.746 104.053C805.746 104.701 805.578 105.259 805.242 105.727C804.918 106.195 804.432 106.555 803.784 106.807C803.148 107.059 802.368 107.185 801.444 107.185Z" fill="#135BA3"/>
<path d="M811.919 107.185C811.091 107.185 810.311 107.017 809.579 106.681C808.847 106.345 808.253 105.823 807.797 105.115C807.341 104.407 807.113 103.501 807.113 102.397C807.113 101.557 807.251 100.837 807.527 100.237C807.803 99.6368 808.175 99.1448 808.643 98.7608C809.111 98.3648 809.627 98.0768 810.191 97.8968C810.767 97.7048 811.343 97.6088 811.919 97.6088C812.747 97.6088 813.521 97.7768 814.241 98.1128C814.973 98.4488 815.561 98.9708 816.005 99.6788C816.461 100.375 816.689 101.281 816.689 102.397C816.689 103.225 816.551 103.939 816.275 104.539C816.011 105.139 815.651 105.637 815.195 106.033C814.739 106.429 814.223 106.723 813.647 106.915C813.083 107.095 812.507 107.185 811.919 107.185ZM811.919 105.025C812.651 105.025 813.191 104.791 813.539 104.323C813.887 103.843 814.061 103.201 814.061 102.397C814.061 101.605 813.887 100.969 813.539 100.489C813.203 100.009 812.663 99.7688 811.919 99.7688C811.223 99.7688 810.683 100.009 810.299 100.489C809.927 100.969 809.741 101.605 809.741 102.397C809.741 103.201 809.927 103.843 810.299 104.323C810.683 104.791 811.223 105.025 811.919 105.025Z" fill="#135BA3"/>
<path d="M818.596 106.969V97.8248H821.116V99.2288C821.212 99.0128 821.344 98.8088 821.512 98.6168C821.692 98.4128 821.902 98.2388 822.142 98.0948C822.382 97.9388 822.64 97.8188 822.916 97.7348C823.204 97.6508 823.498 97.6088 823.798 97.6088C824.578 97.6088 825.22 97.7648 825.724 98.0768C826.24 98.3888 826.624 98.8268 826.876 99.3908C827.128 99.9428 827.254 100.579 827.254 101.299V106.969H824.734V101.641C824.734 100.945 824.602 100.435 824.338 100.111C824.086 99.7868 823.702 99.6248 823.186 99.6248C822.694 99.6248 822.292 99.7448 821.98 99.9848C821.68 100.213 821.458 100.555 821.314 101.011C821.182 101.467 821.116 102.019 821.116 102.667V106.969H818.596ZM830.872 106.969V101.641C830.872 100.945 830.74 100.435 830.476 100.111C830.224 99.7868 829.84 99.6248 829.324 99.6248C828.832 99.6248 828.43 99.7448 828.118 99.9848C827.818 100.213 827.596 100.555 827.452 101.011C827.32 101.467 827.254 102.019 827.254 102.667L826.966 99.5888C827.098 99.2048 827.266 98.8868 827.47 98.6348C827.686 98.3708 827.932 98.1668 828.208 98.0228C828.484 97.8668 828.766 97.7588 829.054 97.6988C829.354 97.6388 829.648 97.6088 829.936 97.6088C830.716 97.6088 831.358 97.7648 831.862 98.0768C832.378 98.3888 832.762 98.8268 833.014 99.3908C833.266 99.9428 833.392 100.579 833.392 101.299V106.969H830.872Z" fill="#135BA3"/>
<path d="M839.928 107.203C839.124 107.203 838.356 107.017 837.624 106.645C836.904 106.273 836.316 105.727 835.86 105.007C835.416 104.287 835.194 103.405 835.194 102.361C835.194 101.545 835.326 100.843 835.59 100.255C835.854 99.6548 836.208 99.1628 836.652 98.7788C837.108 98.3828 837.612 98.0888 838.164 97.8968C838.728 97.7048 839.304 97.6088 839.892 97.6088C840.792 97.6088 841.572 97.8068 842.232 98.2028C842.904 98.5868 843.42 99.1448 843.78 99.8768C844.152 100.609 844.338 101.485 844.338 102.505V103.099H837.084L837.066 101.551H841.764C841.764 101.395 841.722 101.215 841.638 101.011C841.554 100.807 841.428 100.615 841.26 100.435C841.104 100.243 840.906 100.087 840.666 99.9668C840.438 99.8348 840.174 99.7688 839.874 99.7688C839.37 99.7688 838.956 99.8828 838.632 100.111C838.308 100.339 838.062 100.651 837.894 101.047C837.738 101.431 837.66 101.869 837.66 102.361C837.66 102.913 837.738 103.393 837.894 103.801C838.062 104.197 838.314 104.503 838.65 104.719C838.998 104.935 839.436 105.043 839.964 105.043C840.144 105.043 840.348 105.001 840.576 104.917C840.804 104.821 841.02 104.683 841.224 104.503C841.428 104.323 841.584 104.107 841.692 103.855L844.068 104.557C843.792 105.217 843.426 105.745 842.97 106.141C842.526 106.525 842.04 106.801 841.512 106.969C840.984 107.125 840.456 107.203 839.928 107.203Z" fill="#135BA3"/>
<path d="M850.743 107.185C849.567 107.185 848.709 106.945 848.169 106.465C847.641 105.973 847.377 105.247 847.377 104.287V100.003H845.649V97.8248H845.991C846.375 97.8248 846.675 97.7828 846.891 97.6988C847.107 97.6148 847.257 97.4768 847.341 97.2848C847.437 97.0808 847.485 96.8168 847.485 96.4928V95.6828H849.897V97.8428H851.985V100.003H849.897V103.657C849.897 104.077 850.005 104.371 850.221 104.539C850.437 104.695 850.665 104.773 850.905 104.773C851.025 104.773 851.175 104.767 851.355 104.755C851.535 104.743 851.697 104.725 851.841 104.701L851.859 107.041C851.703 107.089 851.511 107.125 851.283 107.149C851.067 107.173 850.887 107.185 850.743 107.185Z" fill="#135BA3"/>
<path d="M854.152 106.969V94.3688H856.672V99.2288C856.768 99.0128 856.9 98.8088 857.068 98.6168C857.236 98.4128 857.428 98.2388 857.644 98.0948C857.872 97.9388 858.124 97.8188 858.4 97.7348C858.676 97.6508 858.964 97.6088 859.264 97.6088C860.068 97.6088 860.722 97.7648 861.226 98.0768C861.742 98.3888 862.12 98.8268 862.36 99.3908C862.6 99.9428 862.72 100.579 862.72 101.299V106.969H860.2V101.641C860.2 100.969 860.074 100.465 859.822 100.129C859.57 99.7928 859.186 99.6248 858.67 99.6248C858.178 99.6248 857.782 99.7448 857.482 99.9848C857.194 100.213 856.984 100.555 856.852 101.011C856.732 101.467 856.672 102.019 856.672 102.667V106.969H854.152Z" fill="#135BA3"/>
<path d="M866.536 96.9068C866.128 96.9068 865.774 96.7568 865.474 96.4568C865.174 96.1448 865.024 95.7848 865.024 95.3768C865.024 94.9568 865.174 94.5968 865.474 94.2968C865.774 93.9968 866.128 93.8468 866.536 93.8468C866.968 93.8468 867.328 93.9968 867.616 94.2968C867.904 94.5968 868.048 94.9568 868.048 95.3768C868.048 95.7848 867.904 96.1448 867.616 96.4568C867.328 96.7568 866.968 96.9068 866.536 96.9068ZM865.276 106.969V97.8248H867.796V106.969H865.276Z" fill="#135BA3"/>
<path d="M870.561 106.969V97.8248H873.081V99.2288C873.177 99.0128 873.309 98.8088 873.477 98.6168C873.645 98.4128 873.837 98.2388 874.053 98.0948C874.281 97.9388 874.533 97.8188 874.809 97.7348C875.085 97.6508 875.373 97.6088 875.673 97.6088C876.477 97.6088 877.131 97.7648 877.635 98.0768C878.151 98.3888 878.529 98.8268 878.769 99.3908C879.009 99.9428 879.129 100.579 879.129 101.299V106.969H876.609V101.641C876.609 100.969 876.483 100.465 876.231 100.129C875.979 99.7928 875.595 99.6248 875.079 99.6248C874.587 99.6248 874.191 99.7448 873.891 99.9848C873.603 100.213 873.393 100.555 873.261 101.011C873.141 101.467 873.081 102.019 873.081 102.667V106.969H870.561Z" fill="#135BA3"/>
<path d="M888.183 106.969V105.547C888.039 105.871 887.835 106.159 887.571 106.411C887.319 106.651 887.001 106.837 886.617 106.969C886.245 107.113 885.807 107.185 885.303 107.185C884.523 107.185 883.839 106.993 883.251 106.609C882.663 106.225 882.207 105.679 881.883 104.971C881.559 104.251 881.397 103.399 881.397 102.415C881.397 101.407 881.565 100.549 881.901 99.8408C882.237 99.1208 882.705 98.5688 883.305 98.1848C883.917 97.8008 884.613 97.6088 885.393 97.6088C885.897 97.6088 886.329 97.6928 886.689 97.8608C887.061 98.0288 887.373 98.2508 887.625 98.5268C887.877 98.7908 888.081 99.0908 888.237 99.4268V97.8248H890.649L890.631 106.969C890.631 107.821 890.439 108.565 890.055 109.201C889.683 109.849 889.131 110.347 888.399 110.695C887.667 111.055 886.755 111.235 885.663 111.235C884.943 111.235 884.283 111.127 883.683 110.911C883.083 110.707 882.573 110.419 882.153 110.047C881.733 109.687 881.421 109.273 881.217 108.805L883.161 107.491C883.293 107.767 883.479 108.037 883.719 108.301C883.971 108.565 884.265 108.775 884.601 108.931C884.949 109.099 885.321 109.183 885.717 109.183C886.485 109.183 887.085 108.991 887.517 108.607C887.961 108.235 888.183 107.689 888.183 106.969ZM886.149 105.241C886.557 105.229 886.911 105.109 887.211 104.881C887.523 104.653 887.763 104.329 887.931 103.909C888.111 103.477 888.201 102.979 888.201 102.415C888.201 101.887 888.111 101.413 887.931 100.993C887.763 100.561 887.523 100.219 887.211 99.9668C886.911 99.7148 886.557 99.5888 886.149 99.5888C885.717 99.5888 885.339 99.7148 885.015 99.9668C884.703 100.219 884.457 100.561 884.277 100.993C884.109 101.413 884.025 101.887 884.025 102.415C884.025 102.991 884.109 103.495 884.277 103.927C884.457 104.347 884.703 104.671 885.015 104.899C885.339 105.127 885.717 105.241 886.149 105.241Z" fill="#135BA3"/>
<path d="M895.056 103.207C895.056 102.547 895.128 102.007 895.272 101.587C895.416 101.167 895.602 100.825 895.83 100.561C896.07 100.285 896.316 100.051 896.568 99.8588C896.832 99.6548 897.078 99.4568 897.306 99.2648C897.546 99.0608 897.738 98.8208 897.882 98.5448C898.026 98.2688 898.098 97.9148 898.098 97.4828C898.098 97.1828 897.996 96.9188 897.792 96.6908C897.588 96.4628 897.276 96.3488 896.856 96.3488C896.532 96.3488 896.274 96.4148 896.082 96.5468C895.902 96.6668 895.77 96.8408 895.686 97.0688C895.614 97.2848 895.578 97.5368 895.578 97.8248H892.842C892.842 97.5008 892.878 97.1288 892.95 96.7088C893.034 96.2888 893.142 95.9648 893.274 95.7368C893.598 95.1728 894.06 94.7468 894.66 94.4588C895.26 94.1588 895.998 94.0088 896.874 94.0088C897.666 94.0088 898.362 94.1468 898.962 94.4228C899.562 94.6868 900.03 95.0708 900.366 95.5748C900.702 96.0788 900.87 96.6908 900.87 97.4108C900.87 98.0228 900.792 98.5388 900.636 98.9588C900.492 99.3668 900.3 99.7088 900.06 99.9848C899.832 100.261 899.586 100.507 899.322 100.723C899.07 100.927 898.824 101.137 898.584 101.353C898.356 101.569 898.164 101.821 898.008 102.109C897.864 102.397 897.792 102.763 897.792 103.207H895.056ZM896.46 107.257C896.028 107.257 895.656 107.107 895.344 106.807C895.044 106.495 894.894 106.123 894.894 105.691C894.894 105.271 895.044 104.911 895.344 104.611C895.656 104.311 896.028 104.161 896.46 104.161C896.88 104.161 897.24 104.311 897.54 104.611C897.852 104.911 898.008 105.271 898.008 105.691C898.008 106.123 897.852 106.495 897.54 106.807C897.24 107.107 896.88 107.257 896.46 107.257Z" fill="#135BA3"/>
<path d="M803.518 176.185C802.642 176.185 801.898 176.065 801.286 175.825C800.686 175.585 800.188 175.261 799.792 174.853C799.408 174.445 799.114 173.995 798.91 173.503C798.706 172.999 798.574 172.489 798.514 171.973H801.322C801.406 172.417 801.556 172.777 801.772 173.053C801.988 173.329 802.246 173.533 802.546 173.665C802.858 173.785 803.182 173.845 803.518 173.845C803.89 173.845 804.22 173.797 804.508 173.701C804.796 173.605 805.024 173.467 805.192 173.287C805.372 173.107 805.462 172.885 805.462 172.621C805.462 172.225 805.342 171.913 805.102 171.685C804.874 171.457 804.562 171.277 804.166 171.145C803.782 171.001 803.356 170.869 802.888 170.749C802.432 170.629 801.97 170.491 801.502 170.335C801.046 170.167 800.62 169.951 800.224 169.687C799.84 169.411 799.528 169.051 799.288 168.607C799.06 168.163 798.946 167.593 798.946 166.897C798.946 166.285 799.108 165.697 799.432 165.133C799.756 164.557 800.254 164.083 800.926 163.711C801.61 163.339 802.48 163.153 803.536 163.153C804.34 163.153 805.024 163.273 805.588 163.513C806.164 163.741 806.632 164.041 806.992 164.413C807.364 164.785 807.64 165.187 807.82 165.619C808 166.051 808.102 166.471 808.126 166.879H805.372C805.324 166.579 805.216 166.327 805.048 166.123C804.892 165.919 804.682 165.763 804.418 165.655C804.166 165.547 803.872 165.493 803.536 165.493C803.272 165.493 802.996 165.529 802.708 165.601C802.432 165.673 802.192 165.805 801.988 165.997C801.796 166.177 801.7 166.447 801.7 166.807C801.7 167.119 801.814 167.377 802.042 167.581C802.282 167.773 802.594 167.935 802.978 168.067C803.374 168.199 803.806 168.331 804.274 168.463C804.742 168.583 805.204 168.733 805.66 168.913C806.128 169.093 806.554 169.327 806.938 169.615C807.334 169.891 807.646 170.251 807.874 170.695C808.114 171.139 808.234 171.697 808.234 172.369C808.234 173.185 808.036 173.881 807.64 174.457C807.256 175.021 806.71 175.453 806.002 175.753C805.306 176.041 804.478 176.185 803.518 176.185ZM818.716 166.825V175.969H816.196V174.565C816.1 174.781 815.968 174.991 815.8 175.195C815.632 175.387 815.434 175.561 815.206 175.717C814.99 175.861 814.744 175.975 814.468 176.059C814.204 176.143 813.916 176.185 813.604 176.185C812.8 176.185 812.14 176.029 811.624 175.717C811.12 175.393 810.748 174.955 810.508 174.403C810.268 173.851 810.148 173.215 810.148 172.495V166.825H812.668V172.153C812.668 172.813 812.794 173.317 813.046 173.665C813.298 174.001 813.682 174.169 814.198 174.169C814.702 174.169 815.098 174.049 815.386 173.809C815.674 173.569 815.878 173.227 815.998 172.783C816.13 172.327 816.196 171.775 816.196 171.127V166.825H818.716ZM821.78 175.969V166.825H824.3V168.337C824.396 168.097 824.516 167.875 824.66 167.671C824.816 167.455 825.002 167.269 825.218 167.113C825.434 166.957 825.674 166.837 825.938 166.753C826.202 166.657 826.484 166.609 826.784 166.609C826.88 166.609 827.012 166.615 827.18 166.627C827.348 166.639 827.474 166.657 827.558 166.681V169.039C827.378 168.979 827.15 168.937 826.874 168.913C826.598 168.877 826.346 168.883 826.118 168.931C825.65 169.027 825.284 169.207 825.02 169.471C824.756 169.735 824.57 170.077 824.462 170.497C824.354 170.917 824.3 171.415 824.3 171.991V175.969H821.78ZM833.127 176.203C832.323 176.203 831.555 176.017 830.823 175.645C830.103 175.273 829.515 174.727 829.059 174.007C828.615 173.287 828.393 172.405 828.393 171.361C828.393 170.545 828.525 169.843 828.789 169.255C829.053 168.655 829.407 168.163 829.851 167.779C830.307 167.383 830.811 167.089 831.363 166.897C831.927 166.705 832.503 166.609 833.091 166.609C833.991 166.609 834.771 166.807 835.431 167.203C836.103 167.587 836.619 168.145 836.979 168.877C837.351 169.609 837.537 170.485 837.537 171.505V172.099H830.283L830.265 170.551H834.963C834.963 170.395 834.921 170.215 834.837 170.011C834.753 169.807 834.627 169.615 834.459 169.435C834.303 169.243 834.105 169.087 833.865 168.967C833.637 168.835 833.373 168.769 833.073 168.769C832.569 168.769 832.155 168.883 831.831 169.111C831.507 169.339 831.261 169.651 831.093 170.047C830.937 170.431 830.859 170.869 830.859 171.361C830.859 171.913 830.937 172.393 831.093 172.801C831.261 173.197 831.513 173.503 831.849 173.719C832.197 173.935 832.635 174.043 833.163 174.043C833.343 174.043 833.547 174.001 833.775 173.917C834.003 173.821 834.219 173.683 834.423 173.503C834.627 173.323 834.783 173.107 834.891 172.855L837.267 173.557C836.991 174.217 836.625 174.745 836.169 175.141C835.725 175.525 835.239 175.801 834.711 175.969C834.183 176.125 833.655 176.203 833.127 176.203ZM849.519 176.185C848.343 176.185 847.485 175.945 846.945 175.465C846.417 174.973 846.153 174.247 846.153 173.287V169.003H844.425V166.825H844.767C845.151 166.825 845.451 166.783 845.667 166.699C845.883 166.615 846.033 166.477 846.117 166.285C846.213 166.081 846.261 165.817 846.261 165.493V164.683H848.673V166.843H850.761V169.003H848.673V172.657C848.673 173.077 848.781 173.371 848.997 173.539C849.213 173.695 849.441 173.773 849.681 173.773C849.801 173.773 849.951 173.767 850.131 173.755C850.311 173.743 850.473 173.725 850.617 173.701L850.635 176.041C850.479 176.089 850.287 176.125 850.059 176.149C849.843 176.173 849.663 176.185 849.519 176.185ZM852.928 175.969V163.369H855.448V168.229C855.544 168.013 855.676 167.809 855.844 167.617C856.012 167.413 856.204 167.239 856.42 167.095C856.648 166.939 856.9 166.819 857.176 166.735C857.452 166.651 857.74 166.609 858.04 166.609C858.844 166.609 859.498 166.765 860.002 167.077C860.518 167.389 860.896 167.827 861.136 168.391C861.376 168.943 861.496 169.579 861.496 170.299V175.969H858.976V170.641C858.976 169.969 858.85 169.465 858.598 169.129C858.346 168.793 857.962 168.625 857.446 168.625C856.954 168.625 856.558 168.745 856.258 168.985C855.97 169.213 855.76 169.555 855.628 170.011C855.508 170.467 855.448 171.019 855.448 171.667V175.969H852.928ZM865.312 165.907C864.904 165.907 864.55 165.757 864.25 165.457C863.95 165.145 863.8 164.785 863.8 164.377C863.8 163.957 863.95 163.597 864.25 163.297C864.55 162.997 864.904 162.847 865.312 162.847C865.744 162.847 866.104 162.997 866.392 163.297C866.68 163.597 866.824 163.957 866.824 164.377C866.824 164.785 866.68 165.145 866.392 165.457C866.104 165.757 865.744 165.907 865.312 165.907ZM864.052 175.969V166.825H866.572V175.969H864.052ZM869.336 175.969V166.825H871.856V168.229C871.952 168.013 872.084 167.809 872.252 167.617C872.42 167.413 872.612 167.239 872.828 167.095C873.056 166.939 873.308 166.819 873.584 166.735C873.86 166.651 874.148 166.609 874.448 166.609C875.252 166.609 875.906 166.765 876.41 167.077C876.926 167.389 877.304 167.827 877.544 168.391C877.784 168.943 877.904 169.579 877.904 170.299V175.969H875.384V170.641C875.384 169.969 875.258 169.465 875.006 169.129C874.754 168.793 874.37 168.625 873.854 168.625C873.362 168.625 872.966 168.745 872.666 168.985C872.378 169.213 872.168 169.555 872.036 170.011C871.916 170.467 871.856 171.019 871.856 171.667V175.969H869.336ZM886.959 175.969V174.547C886.815 174.871 886.611 175.159 886.347 175.411C886.095 175.651 885.777 175.837 885.393 175.969C885.021 176.113 884.583 176.185 884.079 176.185C883.299 176.185 882.615 175.993 882.027 175.609C881.439 175.225 880.983 174.679 880.659 173.971C880.335 173.251 880.173 172.399 880.173 171.415C880.173 170.407 880.341 169.549 880.677 168.841C881.013 168.121 881.481 167.569 882.081 167.185C882.693 166.801 883.389 166.609 884.169 166.609C884.673 166.609 885.105 166.693 885.465 166.861C885.837 167.029 886.149 167.251 886.401 167.527C886.653 167.791 886.857 168.091 887.013 168.427V166.825H889.425L889.407 175.969C889.407 176.821 889.215 177.565 888.831 178.201C888.459 178.849 887.907 179.347 887.175 179.695C886.443 180.055 885.531 180.235 884.439 180.235C883.719 180.235 883.059 180.127 882.459 179.911C881.859 179.707 881.349 179.419 880.929 179.047C880.509 178.687 880.197 178.273 879.993 177.805L881.937 176.491C882.069 176.767 882.255 177.037 882.495 177.301C882.747 177.565 883.041 177.775 883.377 177.931C883.725 178.099 884.097 178.183 884.493 178.183C885.261 178.183 885.861 177.991 886.293 177.607C886.737 177.235 886.959 176.689 886.959 175.969ZM884.925 174.241C885.333 174.229 885.687 174.109 885.987 173.881C886.299 173.653 886.539 173.329 886.707 172.909C886.887 172.477 886.977 171.979 886.977 171.415C886.977 170.887 886.887 170.413 886.707 169.993C886.539 169.561 886.299 169.219 885.987 168.967C885.687 168.715 885.333 168.589 884.925 168.589C884.493 168.589 884.115 168.715 883.791 168.967C883.479 169.219 883.233 169.561 883.053 169.993C882.885 170.413 882.801 170.887 882.801 171.415C882.801 171.991 882.885 172.495 883.053 172.927C883.233 173.347 883.479 173.671 883.791 173.899C884.115 174.127 884.493 174.241 884.925 174.241ZM893.022 171.811L892.752 163.369H895.47L895.218 171.811H893.022ZM894.12 176.185C893.688 176.185 893.316 176.035 893.004 175.735C892.704 175.423 892.554 175.051 892.554 174.619C892.554 174.199 892.704 173.839 893.004 173.539C893.316 173.239 893.688 173.089 894.12 173.089C894.54 173.089 894.9 173.239 895.2 173.539C895.512 173.839 895.668 174.199 895.668 174.619C895.668 175.051 895.512 175.423 895.2 175.735C894.9 176.035 894.54 176.185 894.12 176.185Z" fill="#135BA3"/>
<path d="M800.625 146.969H894.625C905.118 146.969 913.625 155.475 913.625 165.969V173.969C913.625 184.462 905.118 192.969 894.625 192.969H837.168C837.148 192.967 837.124 192.965 837.096 192.963C837.016 192.957 836.904 192.95 836.766 192.946C836.488 192.939 836.1 192.942 835.636 192.98C834.713 193.057 833.463 193.28 832.198 193.877C830.924 194.479 829.638 195.46 828.678 197.034C827.72 198.605 827.125 200.7 827.125 203.469C827.125 208.94 829.025 213.78 830.639 217.338C831.467 219.164 832.172 220.558 832.591 221.64C832.76 222.078 832.85 222.394 832.888 222.611C832.884 222.611 832.879 222.611 832.875 222.61C832.617 222.571 832.24 222.451 831.737 222.215C830.738 221.745 829.419 220.898 827.863 219.688C824.763 217.278 820.854 213.532 816.89 208.824C812.995 204.199 811.536 200.447 810.412 197.77C809.863 196.461 809.334 195.245 808.561 194.386C807.709 193.439 806.616 192.969 805.125 192.969H800.627C790.133 192.969 781.625 184.462 781.625 173.969V165.969C781.625 155.475 790.132 146.969 800.625 146.969Z" fill="#F8F5EF" stroke="#3D84CB" stroke-width="2"/>
<path d="M803.518 176.185C802.642 176.185 801.898 176.065 801.286 175.825C800.686 175.585 800.188 175.261 799.792 174.853C799.408 174.445 799.114 173.995 798.91 173.503C798.706 172.999 798.574 172.489 798.514 171.973H801.322C801.406 172.417 801.556 172.777 801.772 173.053C801.988 173.329 802.246 173.533 802.546 173.665C802.858 173.785 803.182 173.845 803.518 173.845C803.89 173.845 804.22 173.797 804.508 173.701C804.796 173.605 805.024 173.467 805.192 173.287C805.372 173.107 805.462 172.885 805.462 172.621C805.462 172.225 805.342 171.913 805.102 171.685C804.874 171.457 804.562 171.277 804.166 171.145C803.782 171.001 803.356 170.869 802.888 170.749C802.432 170.629 801.97 170.491 801.502 170.335C801.046 170.167 800.62 169.951 800.224 169.687C799.84 169.411 799.528 169.051 799.288 168.607C799.06 168.163 798.946 167.593 798.946 166.897C798.946 166.285 799.108 165.697 799.432 165.133C799.756 164.557 800.254 164.083 800.926 163.711C801.61 163.339 802.48 163.153 803.536 163.153C804.34 163.153 805.024 163.273 805.588 163.513C806.164 163.741 806.632 164.041 806.992 164.413C807.364 164.785 807.64 165.187 807.82 165.619C808 166.051 808.102 166.471 808.126 166.879H805.372C805.324 166.579 805.216 166.327 805.048 166.123C804.892 165.919 804.682 165.763 804.418 165.655C804.166 165.547 803.872 165.493 803.536 165.493C803.272 165.493 802.996 165.529 802.708 165.601C802.432 165.673 802.192 165.805 801.988 165.997C801.796 166.177 801.7 166.447 801.7 166.807C801.7 167.119 801.814 167.377 802.042 167.581C802.282 167.773 802.594 167.935 802.978 168.067C803.374 168.199 803.806 168.331 804.274 168.463C804.742 168.583 805.204 168.733 805.66 168.913C806.128 169.093 806.554 169.327 806.938 169.615C807.334 169.891 807.646 170.251 807.874 170.695C808.114 171.139 808.234 171.697 808.234 172.369C808.234 173.185 808.036 173.881 807.64 174.457C807.256 175.021 806.71 175.453 806.002 175.753C805.306 176.041 804.478 176.185 803.518 176.185Z" fill="#135BA3"/>
<path d="M818.716 166.825V175.969H816.196V174.565C816.1 174.781 815.968 174.991 815.8 175.195C815.632 175.387 815.434 175.561 815.206 175.717C814.99 175.861 814.744 175.975 814.468 176.059C814.204 176.143 813.916 176.185 813.604 176.185C812.8 176.185 812.14 176.029 811.624 175.717C811.12 175.393 810.748 174.955 810.508 174.403C810.268 173.851 810.148 173.215 810.148 172.495V166.825H812.668V172.153C812.668 172.813 812.794 173.317 813.046 173.665C813.298 174.001 813.682 174.169 814.198 174.169C814.702 174.169 815.098 174.049 815.386 173.809C815.674 173.569 815.878 173.227 815.998 172.783C816.13 172.327 816.196 171.775 816.196 171.127V166.825H818.716Z" fill="#135BA3"/>
<path d="M821.779 175.969V166.825H824.299V168.337C824.395 168.097 824.515 167.875 824.659 167.671C824.815 167.455 825.001 167.269 825.217 167.113C825.433 166.957 825.673 166.837 825.937 166.753C826.201 166.657 826.483 166.609 826.783 166.609C826.879 166.609 827.011 166.615 827.179 166.627C827.347 166.639 827.473 166.657 827.557 166.681V169.039C827.377 168.979 827.149 168.937 826.873 168.913C826.597 168.877 826.345 168.883 826.117 168.931C825.649 169.027 825.283 169.207 825.019 169.471C824.755 169.735 824.569 170.077 824.461 170.497C824.353 170.917 824.299 171.415 824.299 171.991V175.969H821.779Z" fill="#135BA3"/>
<path d="M833.127 176.203C832.323 176.203 831.555 176.017 830.823 175.645C830.103 175.273 829.515 174.727 829.059 174.007C828.615 173.287 828.393 172.405 828.393 171.361C828.393 170.545 828.525 169.843 828.789 169.255C829.053 168.655 829.407 168.163 829.851 167.779C830.307 167.383 830.811 167.089 831.363 166.897C831.927 166.705 832.503 166.609 833.091 166.609C833.991 166.609 834.771 166.807 835.431 167.203C836.103 167.587 836.619 168.145 836.979 168.877C837.351 169.609 837.537 170.485 837.537 171.505V172.099H830.283L830.265 170.551H834.963C834.963 170.395 834.921 170.215 834.837 170.011C834.753 169.807 834.627 169.615 834.459 169.435C834.303 169.243 834.105 169.087 833.865 168.967C833.637 168.835 833.373 168.769 833.073 168.769C832.569 168.769 832.155 168.883 831.831 169.111C831.507 169.339 831.261 169.651 831.093 170.047C830.937 170.431 830.859 170.869 830.859 171.361C830.859 171.913 830.937 172.393 831.093 172.801C831.261 173.197 831.513 173.503 831.849 173.719C832.197 173.935 832.635 174.043 833.163 174.043C833.343 174.043 833.547 174.001 833.775 173.917C834.003 173.821 834.219 173.683 834.423 173.503C834.627 173.323 834.783 173.107 834.891 172.855L837.267 173.557C836.991 174.217 836.625 174.745 836.169 175.141C835.725 175.525 835.239 175.801 834.711 175.969C834.183 176.125 833.655 176.203 833.127 176.203Z" fill="#135BA3"/>
<path d="M849.518 176.185C848.342 176.185 847.484 175.945 846.944 175.465C846.416 174.973 846.152 174.247 846.152 173.287V169.003H844.424V166.825H844.766C845.15 166.825 845.45 166.783 845.666 166.699C845.882 166.615 846.032 166.477 846.116 166.285C846.212 166.081 846.26 165.817 846.26 165.493V164.683H848.672V166.843H850.76V169.003H848.672V172.657C848.672 173.077 848.78 173.371 848.996 173.539C849.212 173.695 849.44 173.773 849.68 173.773C849.8 173.773 849.95 173.767 850.13 173.755C850.31 173.743 850.472 173.725 850.616 173.701L850.634 176.041C850.478 176.089 850.286 176.125 850.058 176.149C849.842 176.173 849.662 176.185 849.518 176.185Z" fill="#135BA3"/>
<path d="M852.927 175.969V163.369H855.447V168.229C855.543 168.013 855.675 167.809 855.843 167.617C856.011 167.413 856.203 167.239 856.419 167.095C856.647 166.939 856.899 166.819 857.175 166.735C857.451 166.651 857.739 166.609 858.039 166.609C858.843 166.609 859.497 166.765 860.001 167.077C860.517 167.389 860.895 167.827 861.135 168.391C861.375 168.943 861.495 169.579 861.495 170.299V175.969H858.975V170.641C858.975 169.969 858.849 169.465 858.597 169.129C858.345 168.793 857.961 168.625 857.445 168.625C856.953 168.625 856.557 168.745 856.257 168.985C855.969 169.213 855.759 169.555 855.627 170.011C855.507 170.467 855.447 171.019 855.447 171.667V175.969H852.927Z" fill="#135BA3"/>
<path d="M865.312 165.907C864.904 165.907 864.55 165.757 864.25 165.457C863.95 165.145 863.8 164.785 863.8 164.377C863.8 163.957 863.95 163.597 864.25 163.297C864.55 162.997 864.904 162.847 865.312 162.847C865.744 162.847 866.104 162.997 866.392 163.297C866.68 163.597 866.824 163.957 866.824 164.377C866.824 164.785 866.68 165.145 866.392 165.457C866.104 165.757 865.744 165.907 865.312 165.907ZM864.052 175.969V166.825H866.572V175.969H864.052Z" fill="#135BA3"/>
<path d="M869.336 175.969V166.825H871.856V168.229C871.952 168.013 872.084 167.809 872.252 167.617C872.42 167.413 872.612 167.239 872.828 167.095C873.056 166.939 873.308 166.819 873.584 166.735C873.86 166.651 874.148 166.609 874.448 166.609C875.252 166.609 875.906 166.765 876.41 167.077C876.926 167.389 877.304 167.827 877.544 168.391C877.784 168.943 877.904 169.579 877.904 170.299V175.969H875.384V170.641C875.384 169.969 875.258 169.465 875.006 169.129C874.754 168.793 874.37 168.625 873.854 168.625C873.362 168.625 872.966 168.745 872.666 168.985C872.378 169.213 872.168 169.555 872.036 170.011C871.916 170.467 871.856 171.019 871.856 171.667V175.969H869.336Z" fill="#135BA3"/>
<path d="M886.958 175.969V174.547C886.814 174.871 886.61 175.159 886.346 175.411C886.094 175.651 885.776 175.837 885.392 175.969C885.02 176.113 884.582 176.185 884.078 176.185C883.298 176.185 882.614 175.993 882.026 175.609C881.438 175.225 880.982 174.679 880.658 173.971C880.334 173.251 880.172 172.399 880.172 171.415C880.172 170.407 880.34 169.549 880.676 168.841C881.012 168.121 881.48 167.569 882.08 167.185C882.692 166.801 883.388 166.609 884.168 166.609C884.672 166.609 885.104 166.693 885.464 166.861C885.836 167.029 886.148 167.251 886.4 167.527C886.652 167.791 886.856 168.091 887.012 168.427V166.825H889.424L889.406 175.969C889.406 176.821 889.214 177.565 888.83 178.201C888.458 178.849 887.906 179.347 887.174 179.695C886.442 180.055 885.53 180.235 884.438 180.235C883.718 180.235 883.058 180.127 882.458 179.911C881.858 179.707 881.348 179.419 880.928 179.047C880.508 178.687 880.196 178.273 879.992 177.805L881.936 176.491C882.068 176.767 882.254 177.037 882.494 177.301C882.746 177.565 883.04 177.775 883.376 177.931C883.724 178.099 884.096 178.183 884.492 178.183C885.26 178.183 885.86 177.991 886.292 177.607C886.736 177.235 886.958 176.689 886.958 175.969ZM884.924 174.241C885.332 174.229 885.686 174.109 885.986 173.881C886.298 173.653 886.538 173.329 886.706 172.909C886.886 172.477 886.976 171.979 886.976 171.415C886.976 170.887 886.886 170.413 886.706 169.993C886.538 169.561 886.298 169.219 885.986 168.967C885.686 168.715 885.332 168.589 884.924 168.589C884.492 168.589 884.114 168.715 883.79 168.967C883.478 169.219 883.232 169.561 883.052 169.993C882.884 170.413 882.8 170.887 882.8 171.415C882.8 171.991 882.884 172.495 883.052 172.927C883.232 173.347 883.478 173.671 883.79 173.899C884.114 174.127 884.492 174.241 884.924 174.241Z" fill="#135BA3"/>
<path d="M893.021 171.811L892.751 163.369H895.469L895.217 171.811H893.021ZM894.119 176.185C893.687 176.185 893.315 176.035 893.003 175.735C892.703 175.423 892.553 175.051 892.553 174.619C892.553 174.199 892.703 173.839 893.003 173.539C893.315 173.239 893.687 173.089 894.119 173.089C894.539 173.089 894.899 173.239 895.199 173.539C895.511 173.839 895.667 174.199 895.667 174.619C895.667 175.051 895.511 175.423 895.199 175.735C894.899 176.035 894.539 176.185 894.119 176.185Z" fill="#135BA3"/>
<path d="M740.765 286.877C749.68 286.877 756.906 279.65 756.906 270.736C756.906 261.822 749.68 254.596 740.765 254.596C731.851 254.596 724.625 261.822 724.625 270.736C724.625 279.65 731.851 286.877 740.765 286.877Z" fill="black" stroke="black" stroke-width="1.3523" stroke-linecap="round" stroke-linejoin="round"/>
<path d="M791.434 286.877C800.348 286.877 807.575 279.65 807.575 270.736C807.575 261.822 800.348 254.596 791.434 254.596C782.52 254.596 775.294 261.822 775.294 270.736C775.294 279.65 782.52 286.877 791.434 286.877Z" fill="black" stroke="black" stroke-width="1.3523" stroke-linecap="round" stroke-linejoin="round"/>
<path d="M786.687 247.614C784.874 252.648 785.094 261.384 789.704 263.046C794.317 264.707 801.574 258.664 803.386 253.631C805.198 248.597 802.929 243.173 798.319 241.511C793.706 239.849 788.499 242.581 786.687 247.614Z" fill="#C64309" stroke="black" stroke-width="1.3523" stroke-linecap="round" stroke-linejoin="round"/>
<path d="M745.562 247.614C747.374 252.648 747.154 261.384 742.545 263.046C737.932 264.707 730.674 258.664 728.862 253.631C727.05 248.597 729.319 243.173 733.929 241.511C738.542 239.849 743.75 242.581 745.562 247.614Z" fill="#C64309" stroke="black" stroke-width="1.3523" stroke-linecap="round" stroke-linejoin="round"/>
<path d="M792.889 247.663C792.889 270.375 778.738 285.335 766.126 285.335C753.513 285.335 739.362 270.372 739.362 247.663C739.362 224.953 745.805 212.969 766.126 212.969C786.446 212.969 792.889 224.95 792.889 247.663Z" fill="#C64309" stroke="black" stroke-width="1.3523" stroke-linecap="round" stroke-linejoin="round"/>
<path d="M766.126 247.194V261.378" stroke="black" stroke-width="1.3523" stroke-linecap="round" stroke-linejoin="round"/>
<path d="M771.508 269.095C768.906 268.374 767.83 267.689 766.126 270.156C764.422 267.689 763.347 268.374 760.744 269.095C760.744 269.095 761.892 273.23 766.126 273.23C770.36 273.23 771.508 269.095 771.508 269.095Z" fill="#7C2300" stroke="#7C2300" stroke-width="1.3523" stroke-linecap="round" stroke-linejoin="round"/>
<path d="M753.973 239.721H746.407C741.436 239.721 737.406 243.75 737.406 248.721V250.713C737.406 255.684 741.436 259.714 746.407 259.714H753.973C758.944 259.714 762.974 255.684 762.974 250.713V248.721C762.974 243.75 758.944 239.721 753.973 239.721Z" stroke="black" stroke-width="1.3523" stroke-linecap="round" stroke-linejoin="round"/>
<path d="M785.798 239.721H778.231C773.26 239.721 769.23 243.75 769.23 248.721V250.713C769.23 255.684 773.26 259.714 778.231 259.714H785.798C790.768 259.714 794.798 255.684 794.798 250.713V248.721C794.798 243.75 790.768 239.721 785.798 239.721Z" stroke="black" stroke-width="1.3523" stroke-linecap="round" stroke-linejoin="round"/>
<path d="M745.346 247.684C748.429 244.153 748.952 243.903 752.762 243.903C756.573 243.903 759.92 245.709 759.92 249.52C759.92 249.52 757.267 252.188 752.762 252.188C747.888 252.188 745.346 247.684 745.346 247.684Z" fill="#F8F5EF"/>
<path d="M754.937 252.185C757.224 252.185 759.078 250.331 759.078 248.044C759.078 245.757 757.224 243.903 754.937 243.903C752.65 243.903 750.796 245.757 750.796 248.044C750.796 250.331 752.65 252.185 754.937 252.185Z" fill="black"/>
<path d="M745.346 247.684C746.938 245.211 748.952 243.903 752.762 243.903C756.573 243.903 758.98 245.673 759.92 249.52" stroke="black" stroke-width="1.3523" stroke-linecap="round" stroke-linejoin="round"/>
<path d="M786.855 247.684C783.772 244.153 783.249 243.903 779.438 243.903C775.628 243.903 772.28 245.709 772.28 249.52C772.28 249.52 774.934 252.188 779.438 252.188C784.313 252.188 786.855 247.684 786.855 247.684Z" fill="#F8F5EF"/>
<path d="M781.267 252.185C783.554 252.185 785.408 250.331 785.408 248.044C785.408 245.757 783.554 243.903 781.267 243.903C778.98 243.903 777.126 245.757 777.126 248.044C777.126 250.331 778.98 252.185 781.267 252.185Z" fill="black"/>
<path d="M786.855 247.684C785.262 245.211 783.249 243.903 779.438 243.903C775.628 243.903 773.221 245.673 772.28 249.52" stroke="black" stroke-width="1.3523" stroke-linecap="round" stroke-linejoin="round"/>
<path d="M762.974 250.53C762.974 249.55 764.374 248.754 766.102 248.754C767.83 248.754 769.23 249.55 769.23 250.53" stroke="black" stroke-width="1.3523" stroke-linecap="round" stroke-linejoin="round"/>
<path d="M792.486 238.774C768.025 232.514 757.077 213.969 757.077 213.969H757.08C759.731 213.305 762.733 212.972 766.123 212.972C783.606 212.972 790.815 221.837 792.486 238.774Z" fill="black" stroke="black" stroke-width="1.3523" stroke-linecap="round" stroke-linejoin="round"/>
<path d="M757.08 213.967C752.377 231.216 739.759 238.774 739.759 238.774C741.108 225.122 746.054 216.713 757.08 213.967Z" fill="black" stroke="black" stroke-width="1.3523" stroke-linecap="round" stroke-linejoin="round"/>
<path d="M842.485 253.524C847.924 260.779 842.169 276.468 830.125 268.568C832.469 281.246 847.272 280.414 851.813 274.725C856.354 269.037 847.765 251.15 842.485 253.524Z" fill="black" stroke="black" stroke-width="1.3523" stroke-linecap="round" stroke-linejoin="round"/>
<path d="M902.707 253.524C897.268 260.779 903.023 276.468 915.067 268.568C912.723 281.246 897.92 280.414 893.379 274.725C888.839 269.037 897.427 251.15 902.707 253.524Z" fill="black" stroke="black" stroke-width="1.3523" stroke-linecap="round" stroke-linejoin="round"/>
<path d="M841.078 264.247C845.813 264.247 849.652 260.408 849.652 255.673C849.652 250.938 845.813 247.1 841.078 247.1C836.343 247.1 832.505 250.938 832.505 255.673C832.505 260.408 836.343 264.247 841.078 264.247Z" fill="#DDB5E2" stroke="black" stroke-width="1.3523" stroke-linecap="round" stroke-linejoin="round"/>
<path d="M904.114 264.247C908.849 264.247 912.687 260.408 912.687 255.673C912.687 250.938 908.849 247.1 904.114 247.1C899.379 247.1 895.54 250.938 895.54 255.673C895.54 260.408 899.379 264.247 904.114 264.247Z" fill="#DDB5E2" stroke="black" stroke-width="1.3523" stroke-linecap="round" stroke-linejoin="round"/>
<path d="M872.59 282.713C890.192 282.713 904.462 268.443 904.462 250.841C904.462 233.238 890.192 218.969 872.59 218.969C854.987 218.969 840.718 233.238 840.718 250.841C840.718 268.443 854.987 282.713 872.59 282.713Z" fill="#DDB5E2" stroke="black" stroke-width="1.3523" stroke-linecap="round" stroke-linejoin="round"/>
<path d="M895.285 251.238C893.326 253.672 886.651 259.349 878.637 254.174C880.632 248.521 889.287 244.675 895.285 251.238Z" fill="#F8F5EF"/>
<path d="M884.305 255.688C886.619 255.688 888.495 253.812 888.495 251.499C888.495 249.185 886.619 247.31 884.305 247.31C883.625 247.969 882.851 248.363 882.125 248.969C881.203 249.737 880.116 250.205 880.116 251.499C880.116 253.812 881.992 255.688 884.305 255.688Z" fill="black"/>
<path d="M895.243 251.009C895.243 251.009 884.374 241.552 878.595 253.945" stroke="black" stroke-width="1.3523" stroke-miterlimit="10" stroke-linecap="round"/>
<path d="M849.884 251.219C851.843 253.653 858.517 259.33 866.532 254.155C864.537 248.503 855.882 244.656 849.884 251.219Z" fill="#F8F5EF"/>
<path d="M856.863 255.688C859.177 255.688 861.052 253.812 861.052 251.499C861.052 249.185 859.177 247.31 856.863 247.31C854.549 247.31 852.674 249.185 852.674 251.499C852.674 253.812 854.549 255.688 856.863 255.688Z" fill="black"/>
<path d="M866.574 253.927C860.792 241.534 849.926 250.991 849.926 250.991" stroke="black" stroke-width="1.3523" stroke-miterlimit="10" stroke-linecap="round"/>
<path d="M904.249 247.088C904.249 247.088 882.176 244.121 872.596 223.182C863.013 244.124 840.943 247.088 840.943 247.088C842.801 231.254 856.263 218.969 872.596 218.969C888.929 218.969 902.392 231.254 904.249 247.088Z" fill="black" stroke="black" stroke-width="1.3523" stroke-linecap="round" stroke-linejoin="round"/>
<path d="M872.59 260.887V246.042" stroke="black" stroke-width="1.3523" stroke-linecap="round" stroke-linejoin="round"/>
<path d="M878.348 267.832C874.546 264.77 872.518 268.219 872.518 268.219C872.518 268.219 871.12 264.553 866.832 267.832C866.832 267.832 868.037 272.466 872.518 272.475C877.073 272.484 878.348 267.832 878.348 267.832Z" fill="#BB79C9" stroke="#BB79C9" stroke-width="1.50255" stroke-linecap="round" stroke-linejoin="round"/>
<path d="M848.213 244.765C848.213 244.765 854.367 241.345 862.349 242.177" stroke="black" stroke-width="1.34328" stroke-linecap="round" stroke-linejoin="round"/>
<path d="M896.98 244.765C896.98 244.765 890.825 241.345 882.844 242.177" stroke="black" stroke-width="1.34328" stroke-linecap="round" stroke-linejoin="round"/>
<path d="M767.324 19.6302C767.31 15.4149 763.879 12.0103 759.663 12.0291C758.932 12.0324 758.338 11.4406 758.338 10.7095L758.338 7.99707H879.338V10.663C879.338 11.3987 878.742 11.995 878.006 11.995C873.755 11.995 870.308 15.4415 870.308 19.6929V22.5169C870.308 28.3279 865.597 33.0387 859.786 33.0387H777.866C772.063 33.0387 767.352 28.344 767.333 22.5404L767.324 19.6302Z" fill="#5B116B"/>
<path d="M952.338 73.1629C952.338 61.3091 952.333 52.7791 951.785 46.08C951.243 39.4509 950.2 35.1437 948.414 31.6401C944.963 24.8698 939.455 19.3654 932.682 15.9157C929.176 14.1306 924.867 13.088 918.234 12.5463C911.532 11.999 902.998 11.9939 891.138 11.9939H747.538C735.678 11.9939 727.144 11.999 720.441 12.5463C713.809 13.088 709.499 14.1306 705.994 15.9157C699.22 19.3654 693.713 24.8698 690.262 31.6401C688.476 35.1437 687.433 39.4509 686.891 46.08C686.343 52.7791 686.338 61.3091 686.338 73.1629V298.648C686.338 310.501 686.343 319.031 686.891 325.73C687.433 332.36 688.476 336.667 690.262 340.17C693.713 346.941 699.22 352.445 705.994 355.895C709.499 357.68 713.809 358.722 720.441 359.264C727.144 359.811 735.678 359.817 747.538 359.817H891.138C902.998 359.817 911.532 359.811 918.234 359.264C924.867 358.722 929.176 357.68 932.682 355.895C939.455 352.445 944.963 346.941 948.414 340.17C950.2 336.667 951.243 332.36 951.785 325.73C952.333 319.031 952.338 310.501 952.338 298.648V73.1629ZM964.338 298.648C964.338 310.304 964.343 319.407 963.746 326.707C963.144 334.078 961.898 340.14 959.106 345.616C954.505 354.643 947.161 361.982 938.13 366.582C932.651 369.372 926.587 370.617 919.212 371.219C911.907 371.815 902.8 371.81 891.138 371.81H747.538C735.876 371.81 726.768 371.815 719.464 371.219C712.089 370.617 706.025 369.372 700.546 366.582C691.514 361.982 684.171 354.643 679.569 345.616C676.778 340.14 675.532 334.078 674.93 326.707C674.333 319.407 674.338 310.304 674.338 298.648V73.1629C674.338 61.5068 674.333 52.4038 674.93 45.103C675.532 37.7321 676.778 31.6708 679.569 26.1947C684.171 17.1677 691.514 9.82832 700.546 5.22878C706.025 2.43854 712.089 1.19372 719.464 0.591497C726.768 -0.00499852 735.876 1.35964e-06 747.538 1.35964e-06H891.138C902.8 1.35964e-06 911.907 -0.00499906 919.212 0.591497C926.587 1.19372 932.651 2.43854 938.13 5.22878C947.161 9.82832 954.505 17.1677 959.106 26.1947C961.898 31.6708 963.144 37.7321 963.746 45.103C964.343 52.4038 964.338 61.5068 964.338 73.1629V298.648Z" fill="#5B116B"/>
<g clip-path="url(#clip2_234_3651)">
<path d="M1017.55 44.9687C1017.55 23.4296 1035.01 5.96875 1056.55 5.96875H1256.55C1278.09 5.96875 1295.55 23.4296 1295.55 44.9688V319.969H1017.55V44.9687Z" fill="url(#paint3_linear_234_3651)"/>
<g clip-path="url(#clip3_234_3651)">
<rect x="1042" y="172.969" width="108" height="108" rx="54" fill="#F8F5EF"/>
<path d="M1121.27 249.767C1114.75 246.952 1118.08 239.881 1118.08 239.881C1118.08 239.881 1122.93 229.789 1113.28 227.935C1106.33 226.602 1099.27 237.739 1095.85 244.094C1092.43 237.738 1085.36 226.601 1078.42 227.935C1068.77 229.789 1073.61 239.881 1073.61 239.881C1073.61 239.881 1076.95 246.952 1070.42 249.767C1058.98 254.462 1060.33 265.772 1061.43 270.399C1061.73 271.66 1079.34 271.188 1079.34 271.188L1095.85 250.92L1112.35 271.188C1112.35 271.188 1130.02 271.523 1130.34 270.064C1131.42 265.247 1132.45 254.353 1121.27 249.767Z" fill="black" stroke="black" stroke-linecap="round" stroke-linejoin="round"/>
<path d="M1133.68 272.096L1095.88 299.311L1058.07 272.096C1058.05 272.096 1058.02 272.096 1058 272.096C1063.9 262.964 1073.31 256.57 1088.91 252.403H1102.77C1118.37 256.571 1127.78 262.964 1133.68 272.097V272.096Z" fill="#EB6E25" stroke="black" stroke-linecap="round" stroke-linejoin="round"/>
<path d="M1103.14 238.448V252.436C1108.61 253.905 1113.39 255.649 1117.56 257.69C1117.56 257.69 1111.89 265.131 1095.85 265.131C1079.8 265.131 1074.13 257.69 1074.13 257.69C1078.31 255.649 1083.09 253.905 1088.56 252.436V238.448H1103.14Z" fill="#F79E71" stroke="black" stroke-linecap="round" stroke-linejoin="round"/>
<path d="M1113.75 214.975C1112.17 219.353 1112.36 226.954 1116.37 228.399C1120.38 229.845 1126.7 224.587 1128.27 220.209C1129.85 215.831 1127.88 211.111 1123.87 209.665C1119.86 208.22 1115.32 210.597 1113.75 214.975Z" fill="#F79E71" stroke="black" stroke-linecap="round" stroke-linejoin="round"/>
<path d="M1077.97 214.975C1079.55 219.353 1079.36 226.954 1075.35 228.399C1071.33 229.845 1065.02 224.587 1063.44 220.209C1061.87 215.831 1063.84 211.111 1067.85 209.665C1071.86 208.22 1076.39 210.597 1077.97 214.975Z" fill="#F79E71" stroke="black" stroke-linecap="round" stroke-linejoin="round"/>
<path d="M1119.44 215.878C1119.44 229.841 1108.74 244.807 1095.86 244.807C1082.98 244.807 1072.28 229.841 1072.28 215.878C1072.28 201.915 1079.15 190.597 1095.86 190.597C1112.57 190.597 1119.44 201.916 1119.44 215.879V215.878Z" fill="#F79E71" stroke="black" stroke-linecap="round" stroke-linejoin="round"/>
<path d="M1112.7 217.694C1112.7 214.611 1109.79 212.112 1106.7 212.112C1103.62 212.112 1100.91 214.402 1100.91 217.484C1100.91 217.484 1103.06 219.644 1106.7 219.644C1109.82 219.644 1112.7 217.695 1112.7 217.695V217.694Z" fill="#F8F5EF"/>
<path d="M1106.56 219.642C1108.58 219.642 1110.21 218.01 1110.21 215.998C1110.21 213.986 1108.58 212.354 1106.56 212.354C1104.55 212.354 1102.92 213.986 1102.92 215.998C1102.92 218.01 1104.55 219.642 1106.56 219.642Z" fill="black"/>
<path d="M1112.7 217.694C1112.7 214.611 1109.79 212.112 1106.7 212.112C1103.62 212.112 1100.91 214.402 1100.91 217.484" stroke="black" stroke-linecap="round" stroke-linejoin="round"/>
<path d="M1095.86 212.282V223.118" stroke="black" stroke-linecap="round" stroke-linejoin="round"/>
<path d="M1079.74 210.458C1079.74 210.458 1081.7 207.997 1085.94 208.865" stroke="black" stroke-linecap="round" stroke-linejoin="round"/>
<path d="M1111.98 210.458C1111.98 210.458 1110.02 207.997 1105.78 208.865" stroke="black" stroke-linecap="round" stroke-linejoin="round"/>
<path d="M1111.66 195.905C1105.26 190.954 1096.63 190.668 1095.86 190.675C1095.09 190.668 1086.46 190.954 1080.06 195.905C1076.07 200.234 1074.23 205.303 1074.23 205.303C1074.23 205.303 1086.39 210.937 1089.1 200.338C1091.33 191.599 1095.32 190.758 1095.86 190.683C1096.4 190.758 1100.39 191.599 1102.62 200.338C1105.32 210.937 1117.48 205.303 1117.48 205.303C1117.48 205.303 1115.64 200.234 1111.66 195.905Z" fill="black" stroke="black" stroke-linecap="round" stroke-linejoin="round"/>
<path d="M1100.21 232.688C1098.11 232.104 1097.24 231.063 1095.86 233.06C1094.48 231.063 1093.61 232.104 1091.51 232.688C1091.51 232.688 1092.43 236.578 1095.86 236.578C1099.29 236.578 1100.21 232.688 1100.21 232.688Z" fill="#CC4D0D" stroke="#CC4D0D" stroke-width="0.827474" stroke-linecap="round" stroke-linejoin="round"/>
<path d="M1079.01 217.694C1079.01 214.611 1081.93 212.112 1085.02 212.112C1088.1 212.112 1090.81 214.402 1090.81 217.484C1090.81 217.484 1088.66 219.644 1085.02 219.644C1081.9 219.644 1079.01 217.695 1079.01 217.695V217.694Z" fill="#F8F5EF"/>
<path d="M1085.15 219.642C1087.17 219.642 1088.8 218.01 1088.8 215.998C1088.8 213.986 1087.17 212.354 1085.15 212.354C1083.14 212.354 1081.51 213.986 1081.51 215.998C1081.51 218.01 1083.14 219.642 1085.15 219.642Z" fill="black"/>
<path d="M1079.01 217.694C1079.01 214.611 1081.93 212.112 1085.02 212.112C1088.1 212.112 1090.81 214.402 1090.81 217.484" stroke="black" stroke-linecap="round" stroke-linejoin="round"/>
</g>
<rect x="1043" y="173.969" width="106" height="106" rx="53" stroke="#EB6E25" stroke-width="2"/>
<g clip-path="url(#clip4_234_3651)">
<rect x="1163" y="172.969" width="108" height="108" rx="54" fill="#F8F5EF"/>
<path d="M1226.99 246.509H1206.78V265.968H1226.99V246.509Z" fill="#ED773B" stroke="black" stroke-linecap="round" stroke-linejoin="round"/>
<path d="M1206.68 258.396C1206.68 258.396 1191.33 259.073 1181.34 267.636C1166.94 279.979 1160.98 301.396 1161 376.437C1161 382.587 1165.98 387.576 1172.13 387.59C1178.3 387.605 1183.31 382.604 1183.31 376.432V363.048C1183.31 363.048 1192.77 376.465 1216.88 376.461C1240.95 376.456 1250.36 363.048 1250.36 363.048V376.432C1250.36 382.604 1255.37 387.605 1261.54 387.59C1267.69 387.576 1272.67 382.585 1272.67 376.437C1272.68 301.398 1266.73 279.979 1252.33 267.636C1242.34 259.073 1226.99 258.396 1226.99 258.396C1220.6 261.428 1213.19 261.447 1206.79 258.446L1206.68 258.396H1206.68Z" fill="#F79E71" stroke="black" stroke-linecap="round" stroke-linejoin="round"/>
<path d="M1222 188.969H1211.72C1197.98 188.969 1186.84 200.109 1186.84 213.851C1186.84 227.593 1197.98 238.733 1211.72 238.733H1222C1235.74 238.733 1246.88 227.593 1246.88 213.851C1246.88 200.109 1235.74 188.969 1222 188.969Z" fill="#9B9B9B" stroke="black" stroke-linecap="round" stroke-linejoin="round"/>
<path d="M1194.54 211.944H1186.04C1183.62 211.944 1181.67 213.902 1181.67 216.318V233.442C1181.67 235.857 1183.62 237.815 1186.04 237.815H1194.54C1196.96 237.815 1198.91 235.857 1198.91 233.442V216.318C1198.91 213.902 1196.96 211.944 1194.54 211.944Z" fill="#9B9B9B" stroke="black" stroke-linecap="round" stroke-linejoin="round"/>
<path d="M1247.76 211.944H1239.26C1236.84 211.944 1234.89 213.902 1234.89 216.318V233.442C1234.89 235.857 1236.84 237.815 1239.26 237.815H1247.76C1250.18 237.815 1252.13 235.857 1252.13 233.442V216.318C1252.13 213.902 1250.18 211.944 1247.76 211.944Z" fill="#9B9B9B" stroke="black" stroke-linecap="round" stroke-linejoin="round"/>
<path d="M1220.48 200.943H1213.32C1203.46 200.943 1195.47 208.934 1195.47 218.791V232.859C1195.47 242.716 1203.46 250.707 1213.32 250.707H1220.48C1230.34 250.707 1238.33 242.716 1238.33 232.859V218.791C1238.33 208.934 1230.34 200.943 1220.48 200.943Z" fill="#ED773B" stroke="black" stroke-linecap="round" stroke-linejoin="round"/>
<path d="M1200.97 224.489C1200.91 222.983 1201.86 221.742 1203.66 220.617C1205.16 219.678 1209.65 220.375 1209.65 220.375C1211.22 220.31 1213.29 223.618 1213.35 225.124C1213.35 225.124 1211.37 225.936 1207.24 226.101C1203.1 226.267 1200.97 224.489 1200.97 224.489H1200.97Z" fill="#F8F5EF"/>
<path d="M1200.97 224.489C1200.91 222.983 1202 221.103 1204.14 220.061C1205.35 219.474 1207.73 219.151 1209.65 220.152C1211.05 220.878 1212.11 221.919 1213.35 224.679" stroke="black" stroke-miterlimit="10" stroke-linecap="round"/>
<path d="M1232.83 224.489C1232.89 222.983 1231.94 221.742 1230.14 220.617C1228.64 219.678 1224.15 220.375 1224.15 220.375C1222.58 220.31 1220.52 223.618 1220.45 225.124C1220.45 225.124 1222.43 225.936 1226.57 226.101C1230.7 226.267 1232.83 224.489 1232.83 224.489H1232.83Z" fill="#F8F5EF"/>
<path d="M1232.83 224.489C1232.89 222.983 1231.8 221.103 1229.66 220.061C1228.45 219.474 1226.07 219.151 1224.15 220.152C1222.75 220.878 1221.69 221.919 1220.45 224.679" stroke="black" stroke-miterlimit="10" stroke-linecap="round"/>
<path d="M1226.62 225.871C1228.33 225.871 1229.71 224.485 1229.71 222.775C1229.71 221.064 1228.33 219.678 1226.62 219.678C1224.91 219.678 1223.52 221.064 1223.52 222.775C1223.52 224.485 1224.91 225.871 1226.62 225.871Z" fill="black"/>
<path d="M1207.19 225.871C1208.9 225.871 1210.28 224.485 1210.28 222.775C1210.28 221.064 1208.9 219.678 1207.19 219.678C1205.48 219.678 1204.09 221.064 1204.09 222.775C1204.09 224.485 1205.48 225.871 1207.19 225.871Z" fill="black"/>
<path d="M1216.9 234.251V221.792" stroke="black" stroke-linecap="round" stroke-linejoin="round"/>
<path d="M1222.55 241.044C1222.55 241.044 1219.04 240.175 1216.9 241.181H1216.82C1214.68 240.175 1211.17 241.044 1211.17 241.044C1211.17 241.044 1212.2 244.462 1216.86 244.462C1221.53 244.462 1222.55 241.044 1222.55 241.044H1222.55Z" fill="#C64309" stroke="#C64309" stroke-width="1.07776" stroke-linecap="round" stroke-linejoin="round"/>
<path d="M1193.87 215.381C1191.89 215.381 1190.36 213.772 1190.6 211.947C1190.78 210.558 1191.07 209.207 1191.46 207.906C1194.23 198.743 1204.14 192.106 1213.14 192.106H1220.66C1229.67 192.106 1239.61 198.774 1242.35 207.971C1242.74 209.252 1243.02 210.582 1243.2 211.949C1243.44 213.772 1241.92 215.379 1239.93 215.379H1208.75C1207.34 215.379 1206.12 214.287 1205.79 212.737L1204.87 208.438C1204.66 207.461 1203.14 207.475 1202.96 208.455L1202.15 212.656C1201.85 214.246 1200.6 215.379 1199.17 215.379H1193.87V215.381Z" fill="#F8F5EF" stroke="black" stroke-miterlimit="10"/>
</g>
<rect x="1164" y="173.969" width="106" height="106" rx="53" stroke="#EB6E25" stroke-width="2"/>
<rect x="1103.62" y="281.969" width="106" height="106" rx="53" fill="#F8F5EF"/>
<rect x="1103.62" y="281.969" width="106" height="106" rx="53" stroke="#EB6E25" stroke-width="2"/>
<path d="M1179.1 322.319C1179.1 340.989 1167.47 353.286 1157.1 353.286C1146.73 353.286 1135.1 340.987 1135.1 322.319C1135.1 303.652 1140.39 293.801 1157.1 293.801C1173.8 293.801 1179.1 303.649 1179.1 322.319Z" fill="#C64309" stroke="black" stroke-width="1.11159" stroke-linecap="round" stroke-linejoin="round"/>
<path d="M1178.77 315.012C1158.66 309.866 1149.66 294.623 1149.66 294.623H1149.66C1151.84 294.077 1154.31 293.803 1157.1 293.803C1171.47 293.803 1177.39 301.09 1178.77 315.012Z" fill="black" stroke="black" stroke-width="1.11159" stroke-linecap="round" stroke-linejoin="round"/>
<path d="M1149.66 294.621C1145.8 308.8 1135.42 315.013 1135.42 315.013C1136.53 303.79 1140.6 296.879 1149.66 294.621Z" fill="black" stroke="black" stroke-width="1.11159" stroke-linecap="round" stroke-linejoin="round"/>
<rect x="1104" y="66.9688" width="106" height="106" rx="53" fill="#F8F5EF"/>
<rect x="1104" y="66.9688" width="106" height="106" rx="53" stroke="#3D84CB" stroke-width="2"/>
<path d="M1157.5 80.9688C1157.5 80.9688 1165 93.4688 1192 93.4688C1192 149.969 1157.5 161.969 1157.5 161.969C1157.5 161.969 1123 150.469 1123 93.4688C1151 93.4688 1157.5 80.9688 1157.5 80.9688Z" fill="#B7D8F3"/>
<path d="M1157.5 80.9688C1157.5 80.9688 1165 93.4688 1192 93.4688C1192 149.969 1157.5 161.969 1157.5 161.969C1157.5 138.969 1157.5 101.469 1157.5 80.9688Z" fill="#7AB9ED"/>
<path d="M1157.52 81.8672C1157.79 82.2194 1158.19 82.7009 1158.73 83.2686C1159.89 84.4707 1161.7 86.0618 1164.37 87.6484C1169.64 90.7848 1178.2 93.8883 1191.5 93.9648C1191.4 121.808 1182.86 138.674 1174.37 148.581C1170.1 153.568 1165.82 156.801 1162.63 158.786C1161.03 159.779 1159.7 160.459 1158.77 160.89C1158.31 161.105 1157.95 161.258 1157.7 161.356C1157.62 161.389 1157.55 161.415 1157.5 161.436C1157.44 161.415 1157.37 161.391 1157.29 161.359C1157.05 161.264 1156.69 161.116 1156.22 160.907C1155.3 160.489 1153.97 159.827 1152.37 158.854C1149.17 156.909 1144.9 153.723 1140.63 148.768C1132.14 138.924 1123.6 122.057 1123.5 93.9648C1137.28 93.8911 1145.86 90.7878 1151.01 87.6455C1153.62 86.0563 1155.34 84.4616 1156.42 83.2549C1156.92 82.6959 1157.28 82.2196 1157.52 81.8672Z" stroke="#3D84CB"/>
</g>
<path d="M1104.49 19.6302C1104.48 15.4149 1101.05 12.0103 1096.83 12.0291C1096.1 12.0324 1095.51 11.4406 1095.51 10.7095L1095.51 7.99707H1216.51V10.663C1216.51 11.3987 1215.91 11.995 1215.17 11.995C1210.92 11.995 1207.48 15.4415 1207.48 19.6929V22.5169C1207.48 28.3279 1202.77 33.0387 1196.95 33.0387H1115.03C1109.23 33.0387 1104.52 28.344 1104.5 22.5404L1104.49 19.6302Z" fill="#5B116B"/>
<path d="M1289.51 73.1629C1289.51 61.3091 1289.5 52.7791 1288.95 46.08C1288.41 39.4509 1287.37 35.1437 1285.58 31.6401C1282.13 24.8698 1276.62 19.3654 1269.85 15.9157C1266.34 14.1306 1262.03 13.088 1255.4 12.5463C1248.7 11.999 1240.17 11.9939 1228.31 11.9939H1084.71C1072.85 11.9939 1064.31 11.999 1057.61 12.5463C1050.98 13.088 1046.67 14.1306 1043.16 15.9157C1036.39 19.3654 1030.88 24.8698 1027.43 31.6401C1025.64 35.1437 1024.6 39.4509 1024.06 46.08C1023.51 52.7791 1023.51 61.3091 1023.51 73.1629V298.648C1023.51 310.501 1023.51 319.031 1024.06 325.73C1024.6 332.36 1025.64 336.667 1027.43 340.17C1030.88 346.941 1036.39 352.445 1043.16 355.895C1046.67 357.68 1050.98 358.722 1057.61 359.264C1064.31 359.811 1072.85 359.817 1084.71 359.817H1228.31C1240.17 359.817 1248.7 359.811 1255.4 359.264C1262.03 358.722 1266.34 357.68 1269.85 355.895C1276.62 352.445 1282.13 346.941 1285.58 340.17C1287.37 336.667 1288.41 332.36 1288.95 325.73C1289.5 319.031 1289.51 310.501 1289.51 298.648V73.1629ZM1301.51 298.648C1301.51 310.304 1301.51 319.407 1300.91 326.707C1300.31 334.078 1299.07 340.14 1296.27 345.616C1291.67 354.643 1284.33 361.982 1275.3 366.582C1269.82 369.372 1263.75 370.617 1256.38 371.219C1249.08 371.815 1239.97 371.81 1228.31 371.81H1084.71C1073.04 371.81 1063.94 371.815 1056.63 371.219C1049.26 370.617 1043.19 369.372 1037.71 366.582C1028.68 361.982 1021.34 354.643 1016.74 345.616C1013.95 340.14 1012.7 334.078 1012.1 326.707C1011.5 319.407 1011.51 310.304 1011.51 298.648V73.1629C1011.51 61.5068 1011.5 52.4038 1012.1 45.103C1012.7 37.7321 1013.95 31.6708 1016.74 26.1947C1021.34 17.1677 1028.68 9.82832 1037.71 5.22878C1043.19 2.43854 1049.26 1.19372 1056.63 0.591497C1063.94 -0.00499852 1073.04 1.35964e-06 1084.71 1.35964e-06H1228.31C1239.97 1.35964e-06 1249.08 -0.00499906 1256.38 0.591497C1263.75 1.19372 1269.82 2.43854 1275.3 5.22878C1284.33 9.82832 1291.67 17.1677 1296.27 26.1947C1299.07 31.6708 1300.31 37.7321 1300.91 45.103C1301.51 52.4038 1301.51 61.5068 1301.51 73.1629V298.648Z" fill="#5B116B"/>
</g>
<defs>
<linearGradient id="paint0_linear_234_3651" x1="145.04" y1="5.96875" x2="145.04" y2="430.469" gradientUnits="userSpaceOnUse">
<stop stop-color="#BB79C9"/>
<stop offset="1" stop-color="#F8F5EF"/>
</linearGradient>
<linearGradient id="paint1_linear_234_3651" x1="482.209" y1="5.96875" x2="482.209" y2="319.969" gradientUnits="userSpaceOnUse">
<stop stop-color="#E8CCED"/>
<stop offset="1" stop-color="#F8F5EF"/>
</linearGradient>
<linearGradient id="paint2_linear_234_3651" x1="819.378" y1="5.96875" x2="819.378" y2="430.469" gradientUnits="userSpaceOnUse">
<stop stop-color="#DDB5E2"/>
<stop offset="1" stop-color="#F8F5EF"/>
</linearGradient>
<linearGradient id="paint3_linear_234_3651" x1="1156.55" y1="5.96875" x2="1156.55" y2="430.469" gradientUnits="userSpaceOnUse">
<stop stop-color="#DDB5E2"/>
<stop offset="1" stop-color="#F8F5EF"/>
</linearGradient>
<clipPath id="clip0_234_3651">
<rect width="1301.51" height="310" fill="white"/>
</clipPath>
<clipPath id="clip1_234_3651">
<rect x="370.209" y="39.9688" width="224" height="264" rx="19" fill="white"/>
</clipPath>
<clipPath id="clip2_234_3651">
<path d="M1017.55 44.9687C1017.55 23.4296 1035.01 5.96875 1056.55 5.96875H1256.55C1278.09 5.96875 1295.55 23.4296 1295.55 44.9688V319.969H1017.55V44.9687Z" fill="white"/>
</clipPath>
<clipPath id="clip3_234_3651">
<rect x="1042" y="172.969" width="108" height="108" rx="54" fill="white"/>
</clipPath>
<clipPath id="clip4_234_3651">
<rect x="1163" y="172.969" width="108" height="108" rx="54" fill="white"/>
</clipPath>
</defs>
</svg>
