<?xml version="1.0" encoding="UTF-8"?>
<svg id="Layer_2" data-name="Layer 2" xmlns="http://www.w3.org/2000/svg" viewBox="0 0 1455.23 725.15">
  <defs>
    <style>
      .cls-1 {
        fill: #5b116b;
      }
    </style>
  </defs>
  <g>
    <path class="cls-1" d="M.11,0h69.69v96.59h.65L143.37,0h78.11l-77.79,95.29,84.6,117.98h-87.19l-49.59-76.17-21.72,23.34v52.83H.11V0Z"/>
    <path class="cls-1" d="M237.3,53.15h64.18l-1.94,42.78h.65c7.45-27.88,24.96-45.38,60.61-45.38,39.54,0,60.61,22.36,60.61,62.56v100.16h-64.18v-83.95c0-17.5-9.4-25.28-25.28-25.28-18.8,0-30.47,11.34-30.47,34.68v74.55h-64.18V53.15Z"/>
    <path class="cls-1" d="M436.15,133.54c0-50.24,32.09-82.98,92.05-82.98s91.73,32.74,91.73,82.98-31.76,82.33-91.73,82.33-92.05-32.41-92.05-82.33ZM555.75,133.54c0-24.31-9.72-37.27-27.55-37.27s-27.88,12.96-27.88,37.27,9.72,36.63,27.88,36.63,27.55-12.97,27.55-36.63Z"/>
    <path class="cls-1" d="M620.96,53.15h68.07l21.07,101.13h.65l23.66-101.13h60.29l22.69,101.13h.65l22.04-101.13h56.4l-41.16,160.12h-77.79l-20.42-90.43h-.65l-21.39,90.43h-72.93l-41.16-160.12Z"/>
    <path class="cls-1" d="M985.92,0h102.75l33.06,113.77h.65L1155.44,0h94v213.28h-69.36l.97-142.62h-.65l-42.14,142.62h-50.56l-42.46-142.62h-.65l.97,142.62h-59.64V0Z"/>
    <path class="cls-1" d="M1289.95,277.12v-44.08c5.19,1.3,13.29,2.27,22.04,2.27,14.26,0,20.1-5.83,26.25-22.04h-13.61l-63.53-160.12h73.58l31.76,95.94h.65l28.52-95.94h59.64l-55.43,164.98c-15.56,47-36.63,63.53-74.55,63.53-16.21,0-29.5-2.59-35.33-4.54Z"/>
  </g>
  <g>
    <path class="cls-1" d="M0,315.04h147.04c97.71,0,138.58,35.7,138.58,93.48,0,36.64-15.03,63.42-49.33,72.81v.94c36.17,7.99,47.92,33.82,47.92,66.71v75.16h-100.53v-75.63c0-24.9-8.93-34.29-31.47-34.29h-51.21v109.93H0v-309.11ZM149.39,463.96c25.84,0,38.99-11.27,38.99-35.7,0-23.02-13.15-36.17-41.34-36.17h-46.04v71.88h48.39Z"/>
    <path class="cls-1" d="M318.69,307.52h93.48v63.42h-93.48v-63.42ZM318.69,392.08h93.02v232.07h-93.02v-232.07Z"/>
    <path class="cls-1" d="M702.77,640.59c0,52.15-45.1,84.56-134.82,84.56-94.89,0-137.17-23.49-137.17-58.72,0-21.14,13.62-36.17,39.93-38.52v-.94c-17.38-10.8-23.49-25.84-23.49-40.4,0-22.55,12.21-39.46,35.23-46.04v-.47c-28.66-13.62-43.22-37.11-43.22-68.59,0-50.27,39.93-83.15,117.91-83.15,28.19,0,51.67,4.23,70.47,12.21v-.47c-8.93-7.05-15.5-16.44-15.5-26.31,0-17.85,17.38-30.54,54.02-30.54,13.15,0,21.61.94,27.72,1.88v55.9c-4.23-.47-8.46-.94-12.68-.94-14.09,0-20.67,5.64-20.67,15.03,0,4.23,1.88,9.87,3.76,15.5,7.05,11.75,10.8,25.37,10.8,40.87,0,50.74-40.4,82.68-117.91,82.68-12.68,0-24.9-.94-35.7-2.35-1.41,2.35-2.82,6.58-2.82,11.27,0,8.46,6.58,13.62,17.38,13.62h76.57c60.6,0,90.2,25.37,90.2,63.89ZM610.7,657.97c0-10.33-7.99-15.97-29.6-15.97h-36.64c-13.62,0-22.55,6.11-22.55,16.91,0,13.62,15.97,21.14,45.1,21.14s43.69-7.99,43.69-22.08ZM526.61,471.47c0,22.08,11.28,33.82,30.54,33.82s30.54-11.74,30.54-33.82-10.81-33.82-30.54-33.82-30.54,11.27-30.54,33.82Z"/>
    <path class="cls-1" d="M717.33,298.6h93.02v99.12c0,8.93-.94,35.23-2.35,56.37h.94c10.8-39.93,35.7-65.77,87.85-65.77,56.37,0,87.38,31.47,87.38,90.67v145.16h-93.01v-121.67c0-25.37-12.68-36.64-36.64-36.64-27.25,0-44.16,16.44-44.16,50.27v108.05h-93.02v-325.55Z"/>
    <path class="cls-1" d="M1028.13,542.41v-80.33h-31.95v-70h25.37c12.68,0,18.32-6.11,19.73-23.02l3.29-29.6h76.57v52.61h68.59v70h-68.59v71.41c0,19.26,8.93,25.37,35.23,25.37,10.8,0,24.43-1.41,30.54-2.82v66.71c-7.05,1.88-28.19,5.17-53.55,5.17-77.98,0-105.23-32.88-105.23-85.5Z"/>
    <path class="cls-1" d="M1207.67,546.17h78.92c.47,19.26,9.4,30.54,38.99,30.54,26.78,0,36.64-9.4,36.64-23.02,0-8.46-4.23-14.09-16.44-15.97-11.74-2.35-27.72-3.76-46.04-5.64-31.94-2.82-55.43-7.99-69.53-16.91-13.62-9.4-22.55-26.78-22.55-46.51,0-50.27,49.33-80.33,121.2-80.33,84.56,0,116.97,30.54,116.97,83.15h-78.45c0-21.61-8.93-31.95-34.29-31.95-23.96,0-33.82,9.4-33.82,22.55,0,9.4,3.76,16.44,17.38,19.26,11.74,1.88,29.6,3.76,50.27,5.64,25.37,2.82,46.04,5.64,62.48,15.03,16.44,9.4,25.84,26.78,25.84,46.51,0,47.45-35.7,79.39-126.84,79.39s-120.73-36.64-120.73-81.74Z"/>
  </g>
</svg>