<svg width="256" height="256" viewBox="0 0 256 256" fill="none" xmlns="http://www.w3.org/2000/svg">
<path d="M44.4473 169.453C56.1405 157.76 74.0268 158.864 85.582 170.419C97.1371 181.974 98.24 199.86 86.5469 211.554C78.5835 219.516 61.0355 229.643 44.9531 237.071C36.8828 240.799 29.0936 243.888 22.9531 245.708C19.8908 246.616 17.1787 247.227 15.0195 247.428C13.9416 247.528 12.9414 247.531 12.0762 247.392C11.2305 247.255 10.3494 246.954 9.69727 246.302C9.0453 245.65 8.74498 244.768 8.6084 243.923C8.46865 243.058 8.47216 242.057 8.57227 240.979C8.77281 238.82 9.38413 236.108 10.292 233.046C12.1124 226.905 15.2011 219.116 18.9287 211.046C26.357 194.964 36.484 177.416 44.4473 169.453Z" fill="#F8D59F" stroke="black" stroke-width="3"/>
<path d="M85.1942 198.7C74.3642 209.53 36.8164 226.71 33.0529 222.946C29.2894 219.183 46.4702 181.634 57.2992 170.805C65.0017 163.103 76.8174 163.776 84.5209 171.478C92.2244 179.181 92.8976 190.997 85.1942 198.7Z" fill="#F6EBC4"/>
<path d="M84.8576 185.09C79.4431 190.505 60.6687 199.095 58.787 197.213C56.9052 195.332 65.4956 176.557 70.9101 171.143C74.7613 167.292 80.6697 167.628 84.5209 171.479C88.3722 175.331 88.7088 181.239 84.8576 185.09Z" fill="white"/>
<path d="M99.8362 99.5902L100.577 101.091L73.4097 142.185C73.4097 142.185 64.8758 129.245 55.1807 132.004C46.0268 134.608 37.6773 138.901 36.2491 137.427C34.8209 135.954 36.0404 131.592 38.9039 126.405C41.7674 121.217 54.7946 103.454 65.5208 97.8424C76.247 92.2304 88.7592 94.1877 99.8372 99.5902H99.8362Z" fill="#E04C73"/>
<path d="M99.8364 99.5902C97.9556 98.673 96.0326 97.8576 94.0853 97.1601C83.9124 106.623 67.8231 132.282 73.41 142.186L100.577 101.091L99.8364 99.5902Z" fill="#B5304D"/>
<path d="M99.8362 99.5902L100.577 101.091L73.4097 142.185C73.4097 142.185 64.8758 129.245 55.1807 132.004C46.0268 134.608 37.6773 138.901 36.2491 137.427C34.8209 135.954 36.0404 131.592 38.9039 126.405C41.7674 121.217 54.7946 103.454 65.5208 97.8424C76.247 92.2304 88.7592 94.1877 99.8372 99.5902H99.8362Z" stroke="black" stroke-width="3" stroke-linejoin="round"/>
<path d="M77.3711 146.387L78.4717 147.479L78.4668 147.484L109.607 178.624L110.87 179.886L109.52 181.053L99.4951 189.721C98.8441 190.312 98.0362 190.418 97.4141 190.375C96.7676 190.331 96.1018 190.121 95.4736 189.855C94.2045 189.317 92.6831 188.373 91.0283 187.172C87.6944 184.753 83.5212 181.073 79.2236 176.776C74.9263 172.478 71.2471 168.306 68.8281 164.972C67.6275 163.317 66.6825 161.796 66.1445 160.527C65.8782 159.898 65.6681 159.232 65.624 158.585C65.5814 157.96 65.689 157.147 66.2891 156.494L74.9463 146.48L76.1982 147.563L77.3701 146.386L77.3711 146.387Z" fill="#E04C73" stroke="black" stroke-width="3.32"/>
<path d="M203.309 9.41632C210.483 8.50996 218.647 8.21281 225.712 8.81476C229.243 9.11565 232.542 9.64399 235.322 10.4525C238.07 11.2515 240.471 12.3683 242.052 13.9485C243.632 15.5288 244.749 17.9299 245.548 20.678C246.356 23.4586 246.886 26.7569 247.187 30.2884C247.788 37.3535 247.491 45.5173 246.585 52.6917C243.932 73.6937 234.142 93.8658 210.86 117.148C193.738 134.27 170.669 151.802 151.49 165.033C141.894 171.652 133.252 177.209 126.789 181.113C123.56 183.063 120.861 184.608 118.854 185.669C117.852 186.198 117.003 186.618 116.335 186.909C116.002 187.053 115.692 187.176 115.418 187.264C115.187 187.339 114.831 187.44 114.467 187.436V187.437C112.753 187.418 110.686 186.527 108.616 185.343C106.479 184.12 104.089 182.434 101.658 180.538C96.7924 176.743 91.641 172.01 87.8154 168.185C83.9898 164.359 79.2577 159.207 75.4629 154.341C73.5672 151.911 71.8811 149.521 70.6582 147.384C69.4741 145.315 68.5829 143.248 68.5635 141.534C68.5593 141.17 68.6616 140.814 68.7363 140.582C68.8248 140.308 68.9472 139.998 69.0918 139.665C69.3822 138.997 69.8019 138.148 70.3311 137.147C71.3922 135.139 72.9372 132.441 74.8877 129.211C78.7913 122.748 84.3478 114.106 90.9678 104.51C104.199 85.3309 121.731 62.2632 138.854 45.1409C162.135 21.8591 182.307 12.069 203.309 9.41632Z" fill="#DCE0E9" stroke="black" stroke-width="3"/>
<path d="M203.309 9.41632C210.483 8.50996 218.647 8.21281 225.712 8.81476C229.243 9.11565 232.542 9.644 235.322 10.4525C238.07 11.2515 240.471 12.3682 242.052 13.9485C243.632 15.5288 244.749 17.9299 245.548 20.678C246.356 23.4586 246.885 26.7569 247.186 30.2884C247.787 37.3535 247.49 45.5173 246.584 52.6917C245.085 64.555 241.304 76.181 234.064 88.2718L233.076 89.9222L231.717 88.5618L166.078 22.9232L167.729 21.9359C179.819 14.6972 191.445 10.9149 203.309 9.41632Z" fill="#E04C73" stroke="black" stroke-width="3"/>
<path d="M130.143 61.4356C117.822 73.7574 117.418 93.334 129.244 105.159C141.07 116.985 161.23 115.947 177.117 103.249C190.73 92.3684 183.005 66.8693 171.179 55.0435C159.354 43.2176 142.466 49.1119 130.143 61.4346V61.4356Z" fill="#CAD1DE"/>
<path d="M157.85 100.057C170.553 100.057 180.851 89.7587 180.851 77.0553C180.851 64.3519 170.553 54.0537 157.85 54.0537C145.146 54.0537 134.848 64.3519 134.848 77.0553C134.848 89.7587 145.146 100.057 157.85 100.057Z" fill="#7AB9ED"/>
<path d="M175.218 65.1992C167.582 57.5635 154.634 57.6594 146.29 66.003C137.947 74.3466 137.851 87.2944 145.487 94.9301C153.123 102.566 166.071 102.471 174.415 94.1277C182.758 85.7841 182.854 72.835 175.218 65.1992ZM181.334 59.0831C192.609 70.3581 191.985 88.7895 180.531 100.244C169.076 111.698 150.645 112.322 139.37 101.047C128.095 89.7719 128.719 71.3406 140.173 59.8862C151.628 48.4319 170.059 47.8082 181.334 59.0831Z" fill="#8592B0"/>
<path d="M182.334 60.0831C193.609 71.3581 192.985 89.7895 181.531 101.244C170.076 112.698 151.645 113.322 140.37 102.047C129.095 90.7719 129.719 72.3406 141.173 60.8862C152.628 49.4319 171.059 48.8082 182.334 60.0831Z" stroke="black" stroke-width="3" stroke-miterlimit="10"/>
<path d="M172.08 62.0622C164.444 54.4265 151.496 54.5213 143.152 62.8647C134.809 71.2083 134.713 84.1573 142.349 91.7931C149.985 99.4285 162.933 99.3327 171.277 90.9892C179.62 82.6457 179.715 69.6979 172.08 62.0622ZM178.197 55.9458C189.471 67.2207 188.847 85.6514 177.393 97.1056C165.939 108.56 147.508 109.184 136.233 97.9095C124.958 86.6345 125.582 68.2026 137.036 56.7482C148.49 45.2942 166.922 44.6708 178.197 55.9458Z" fill="#627393"/>
<path d="M178.197 55.9458C189.471 67.2207 188.847 85.6514 177.393 97.1056C165.939 108.56 147.508 109.184 136.233 97.9095C124.958 86.6345 125.582 68.2026 137.036 56.7482C148.49 45.2942 166.922 44.6709 178.197 55.9458Z" stroke="black" stroke-width="3" stroke-miterlimit="10"/>
<path d="M221.816 47.4882C216.813 53.4933 211.188 57.0543 207.939 54.347C204.689 51.6398 207.176 45.4653 212.179 39.4602C217.182 33.455 222.807 29.8941 226.056 32.6013C229.306 35.3086 226.819 41.483 221.816 47.4882Z" fill="#F98AA7"/>
<path d="M70.0635 141.516C70.0817 143.138 71.1864 145.508 72.927 148.23C79.1156 131.916 92.0481 107.792 108.07 83.4313C86.682 111.577 70.0373 139.21 70.0635 141.516Z" fill="#CAD1DE"/>
<path d="M112.35 120.382L116.935 125.339C116.935 125.339 104.669 140.324 100.642 144.996C96.6141 149.667 85.7811 161.327 85.7811 161.327C78.3074 159.835 63.4065 170.047 56.1404 176.436C55.4026 176.365 51.5061 171.837 51.5958 171.134C51.7601 169.856 63.608 154.759 73.6882 145.052C83.7673 135.345 93.0774 125.558 112.35 120.382Z" fill="#E04C73"/>
<path d="M111.96 118.934C112.498 118.79 113.072 118.955 113.451 119.364L118.036 124.321C118.544 124.87 118.569 125.71 118.095 126.29V126.291C118.095 126.291 118.094 126.292 118.093 126.292C118.092 126.294 118.089 126.297 118.086 126.3C118.081 126.308 118.072 126.318 118.06 126.333C118.037 126.361 118.002 126.404 117.957 126.459C117.866 126.57 117.732 126.733 117.56 126.943C117.217 127.362 116.721 127.966 116.115 128.706C114.901 130.184 113.241 132.204 111.456 134.37C107.889 138.696 103.805 143.624 101.778 145.975C99.7461 148.332 96.0149 152.432 92.8062 155.927C91.1987 157.678 89.7176 159.284 88.6382 160.451C88.0984 161.034 87.6585 161.508 87.354 161.836C87.2019 162.001 87.0839 162.129 87.0034 162.215C86.9632 162.259 86.9323 162.292 86.9116 162.314C86.9013 162.325 86.8934 162.334 86.8882 162.339L86.8804 162.347V162.348C86.5259 162.73 85.9985 162.899 85.4878 162.797C83.9957 162.5 81.9578 162.767 79.4897 163.583C77.0545 164.389 74.3581 165.676 71.6245 167.23C66.1572 170.338 60.6981 174.427 57.1313 177.563C56.8199 177.837 56.4084 177.969 55.9956 177.929C55.6511 177.896 55.3821 177.762 55.2544 177.693C55.0983 177.609 54.9543 177.51 54.8325 177.419C54.5873 177.237 54.3263 177.005 54.0718 176.762C53.5573 176.272 52.9683 175.639 52.4194 175C51.8709 174.361 51.3347 173.685 50.9321 173.105C50.7334 172.819 50.5452 172.525 50.4038 172.252C50.3337 172.118 50.2577 171.955 50.1997 171.78C50.1534 171.64 50.0595 171.323 50.1079 170.944V170.943C50.1582 170.552 50.3514 170.189 50.438 170.028C50.564 169.793 50.7301 169.521 50.9204 169.228C51.3036 168.637 51.8397 167.877 52.4937 166.993C53.8048 165.219 55.6332 162.887 57.7661 160.299C62.0284 155.128 67.5512 148.879 72.6479 143.971C82.7146 134.276 92.2734 124.221 111.96 118.934Z" stroke="black" stroke-width="3" stroke-linejoin="round"/>
<path d="M102.863 179.573C107.561 183.209 111.94 185.908 114.483 185.936C117.866 185.974 175.742 150.143 209.799 116.086C217.787 108.098 224.157 100.496 229.183 93.1173C207.006 123.048 131.11 165.94 102.863 179.572V179.573Z" fill="#CAD1DE"/>
<path d="M85.7818 161.328C85.7818 161.328 96.6148 149.669 100.642 144.997C104.67 140.325 116.935 125.34 116.935 125.34C101.867 129.072 88.354 140.304 78.2738 150.011C68.1947 159.718 56.3054 175.159 56.1411 176.437C63.4071 170.048 78.3081 159.837 85.7818 161.328Z" fill="#F98AA7"/>
<path d="M156.548 160.147L154.997 159.325L113.21 185.261C113.21 185.261 124.125 196.426 121.232 205.978C118.339 215.529 113.476 224.118 114.978 225.659C116.48 227.2 121.087 226.053 126.611 223.207C132.135 220.362 151.143 207.242 157.347 196.168C163.552 185.094 160.84 171.275 156.547 160.148L156.548 160.147Z" fill="#E04C73" stroke="black" stroke-width="3" stroke-linejoin="round"/>
<path d="M156.548 160.147L154.997 159.325C154.997 159.325 158.629 176.318 154.997 189.408C150.162 206.838 122.14 224.595 124.902 223.173C130.425 220.328 151.143 207.241 157.347 196.167C163.552 185.093 160.841 171.274 156.548 160.147Z" fill="#F98AA7"/>
<path d="M156.548 160.147L154.997 159.325L113.21 185.261C113.21 185.261 124.125 196.426 121.232 205.978C118.339 215.529 113.476 224.118 114.978 225.659C116.48 227.2 121.087 226.053 126.611 223.207C132.135 220.362 151.143 207.242 157.347 196.168C163.552 185.094 160.84 171.275 156.547 160.148L156.548 160.147Z" stroke="black" stroke-width="3.02373" stroke-linejoin="round"/>
</svg>
