<svg width="163" height="199" viewBox="0 0 163 199" fill="none" xmlns="http://www.w3.org/2000/svg">
<path d="M159.583 182.53C159.583 188.407 157.336 193.759 153.653 197.774H120.393C116.71 193.759 114.463 188.407 114.463 182.53C114.463 170.07 124.562 159.968 137.024 159.968C149.486 159.968 159.583 170.07 159.583 182.53Z" fill="#FFC2D2" stroke="black" stroke-width="1.9907" stroke-linecap="round" stroke-linejoin="round"/>
<path d="M48.2194 182.53C48.2194 188.407 45.9721 193.759 42.2871 197.774H9.02918C5.34639 193.759 3.09912 188.407 3.09912 182.53C3.09912 170.07 13.1986 159.968 25.6582 159.968C38.1177 159.968 48.2194 170.07 48.2194 182.53Z" fill="#FFC2D2" stroke="black" stroke-width="1.9907" stroke-linecap="round" stroke-linejoin="round"/>
<path d="M139.312 157.913V197.774H23.9175V157.913C23.9175 141.632 37.2397 128.31 53.5214 128.31H109.708C125.989 128.31 139.312 141.632 139.312 157.913Z" fill="#FFC2D2" stroke="black" stroke-width="1.9907" stroke-linecap="round" stroke-linejoin="round"/>
<path d="M42.2004 184.133C39.9 184.133 38.0376 182.268 38.0376 179.97V176.571C38.0376 172.414 41.5479 169.043 45.8765 169.043H62.4148C66.7435 169.043 70.2538 172.412 70.2538 176.571V179.97C70.2538 182.271 68.3891 184.133 66.091 184.133H42.2004Z" fill="#F8F5EF"/>
<path d="M38.0356 181.132V176.569C38.0356 172.412 41.5459 169.042 45.8746 169.042H62.4129C66.7415 169.042 70.2518 172.41 70.2518 176.569V181.132" stroke="black" stroke-width="1.9907" stroke-miterlimit="10" stroke-linecap="round"/>
<mask id="mask0_192_4857" style="mask-type:luminance" maskUnits="userSpaceOnUse" x="46" y="165" width="18" height="17">
<path d="M63.5667 172.817C63.5667 177.46 59.8043 181.222 55.1615 181.222C50.5188 181.222 46.7563 177.46 46.7563 172.817C46.7563 170.636 47.5858 168.65 48.9483 167.157C50.4856 165.471 52.6997 165.549 55.1615 165.549C57.4818 165.549 61.1049 166.876 61.1049 166.876C62.6266 168.398 63.5667 170.499 63.5667 172.819V172.817Z" fill="white"/>
</mask>
<g mask="url(#mask0_192_4857)">
<path d="M42.2004 184.133C39.9 184.133 38.0376 182.268 38.0376 179.97V176.571C38.0376 172.414 41.5479 169.043 45.8765 169.043H62.4148C66.7435 169.043 70.2538 172.412 70.2538 176.571V179.97C70.2538 182.271 68.3891 184.133 66.091 184.133H42.2004Z" fill="black"/>
</g>
<path d="M81.3403 158.761C81.3403 159.053 81.3403 189.836 81.3403 189.836" stroke="black" stroke-width="1.9907" stroke-linecap="round" stroke-linejoin="round"/>
<path d="M120.481 184.133C122.781 184.133 124.644 182.268 124.644 179.97V176.571C124.644 172.414 121.134 169.043 116.805 169.043H100.267C95.938 169.043 92.4277 172.412 92.4277 176.571V179.97C92.4277 182.271 94.2923 184.133 96.5905 184.133H120.481Z" fill="#F8F5EF"/>
<path d="M124.644 181.132V176.569C124.644 172.412 121.134 169.042 116.805 169.042H100.267C95.938 169.042 92.4277 172.41 92.4277 176.569V181.132" stroke="black" stroke-width="1.9907" stroke-miterlimit="10" stroke-linecap="round"/>
<mask id="mask1_192_4857" style="mask-type:luminance" maskUnits="userSpaceOnUse" x="99" y="165" width="17" height="17">
<path d="M99.1128 172.817C99.1128 177.459 102.875 181.222 107.518 181.222C112.161 181.222 115.923 177.459 115.923 172.817C115.923 170.636 115.094 168.649 113.731 167.156C112.194 165.471 109.98 165.548 107.518 165.548C105.198 165.548 101.575 166.876 101.575 166.876C100.053 168.397 99.1128 170.499 99.1128 172.819V172.817Z" fill="white"/>
</mask>
<g mask="url(#mask1_192_4857)">
<path d="M120.482 184.132C122.782 184.132 124.644 182.268 124.644 179.97V176.57C124.644 172.414 121.134 169.043 116.805 169.043H100.267C95.9385 169.043 92.4282 172.412 92.4282 176.57V179.97C92.4282 182.27 94.2928 184.132 96.591 184.132H120.482Z" fill="black"/>
</g>
<path d="M43.1851 160.811H65.7131" stroke="black" stroke-width="7.37886" stroke-linecap="round" stroke-linejoin="round"/>
<path d="M97.3896 158.761C111.931 156.027 119.918 160.811 119.918 160.811" stroke="black" stroke-width="7.37886" stroke-linecap="round" stroke-linejoin="round"/>
<path d="M103.259 45.7705L129.187 3.81543L154.803 45.7661" stroke="#383838" stroke-width="1.9907" stroke-miterlimit="10"/>
<path d="M7.81445 62.6873L33.7422 20.7344L59.3581 62.685" stroke="#383838" stroke-width="1.9907" stroke-miterlimit="10"/>
<path d="M157.557 42.9194C160.012 42.9194 161.921 45.0981 161.58 47.5423C159.344 63.6116 145.624 75.9783 129.03 75.9783C112.436 75.9783 98.7161 63.6116 96.4799 47.5423C96.1393 45.0959 98.0481 42.9194 100.503 42.9194H157.557Z" fill="#B1B0AD" stroke="#383838" stroke-width="1.9907" stroke-miterlimit="10"/>
<path d="M81.3096 3.81543V107.909" stroke="#4C4C4C" stroke-width="7.63101" stroke-miterlimit="10" stroke-linecap="round"/>
<path d="M129.031 4.61621L33.5854 20.7342" stroke="#4C4C4C" stroke-width="7.63101" stroke-miterlimit="10" stroke-linecap="round"/>
<path d="M62.1119 59.8384C64.5671 59.8384 66.476 62.0171 66.1354 64.4612C63.8991 80.5306 50.1788 92.8973 33.5852 92.8973C16.9916 92.8973 3.27128 80.5306 1.03506 64.4612C0.694433 62.0149 2.60331 59.8384 5.0585 59.8384H62.1119Z" fill="#B1B0AD" stroke="#383838" stroke-width="1.9907" stroke-miterlimit="10"/>
<path d="M62.4549 113.308C56.3434 113.308 56.4031 110.497 58.5332 108C62.4195 103.445 71.1542 100.269 81.309 100.269C91.4638 100.269 100.199 103.443 104.085 108C106.215 110.495 106.275 113.308 100.163 113.308H62.4571H62.4549Z" fill="#4C4C4C" stroke="#4C4C4C" stroke-width="1.9907" stroke-miterlimit="10"/>
<path d="M151.266 58.2236C147.521 62.6894 143.252 66.2307 137.793 67.7458" stroke="#F8F5EF" stroke-width="1.9907" stroke-miterlimit="10" stroke-linecap="round"/>
<path d="M55.8213 75.1426C52.0765 79.6084 47.8076 83.1496 42.3486 84.6648" stroke="#F8F5EF" stroke-width="1.9907" stroke-miterlimit="10" stroke-linecap="round"/>
</svg>
