<svg width="221" height="197" viewBox="0 0 221 197" fill="none" xmlns="http://www.w3.org/2000/svg">
<path d="M88.5072 99.4209H64.5635V139.224H88.5072V99.4209Z" fill="#135BA3" stroke="black" stroke-width="1.54832" stroke-linecap="round" stroke-linejoin="round"/>
<path d="M151.404 195.724H1.67496C0.785784 193.667 0.533642 191.301 1.13528 188.91C16.5942 127.452 64.497 116.11 64.497 116.11L76.5385 134.227L88.4827 116.09C88.4827 116.09 136.467 127.393 151.94 188.91C152.541 191.301 152.289 193.667 151.404 195.724Z" fill="#7AB9ED" stroke="black" stroke-width="1.61468" stroke-linecap="round" stroke-linejoin="round"/>
<path d="M46.4501 62.7833C46.4501 62.7833 24.4861 59.0297 28.16 41.3921C30.9448 28.0235 43.5238 31.5094 43.5238 31.5094C43.5238 31.5094 34.1785 25.3117 39.0469 18.2491C44.2979 10.6336 53.2141 18.2491 53.2141 18.2491C53.2141 18.2491 54.5611 6.21645 62.7009 2.19745C72.964 -2.86999 78.3809 7.22507 78.3809 7.22507C78.3809 7.22507 91.4311 -3.51807 105.948 6.20539C113.139 11.0229 117.79 19.1051 111.984 30.7994C111.984 30.7994 116.058 26.8799 119.23 31.7991C121.092 34.6879 120.073 39.1891 117.237 40.295C126.091 43.6151 124.921 49.7243 124.322 52.9603C123.074 59.6734 115.081 60.171 111.039 61.0514C109.084 61.4783 97.2041 19.6647 65.3065 18.1894C49.1619 17.444 46.4501 62.7789 46.4501 62.7789V62.7833Z" fill="#3D84CB" stroke="black" stroke-width="1.54832" stroke-linecap="round" stroke-linejoin="round"/>
<path d="M46.4508 74.1477C52.5991 74.1477 57.5832 69.1635 57.5832 63.0152C57.5832 56.867 52.5991 51.8828 46.4508 51.8828C40.3025 51.8828 35.3184 56.867 35.3184 63.0152C35.3184 69.1635 40.3025 74.1477 46.4508 74.1477Z" fill="#135BA3" stroke="black" stroke-width="1.54832" stroke-linecap="round" stroke-linejoin="round"/>
<path d="M107.067 74.1477C113.216 74.1477 118.2 69.1635 118.2 63.0152C118.2 56.867 113.216 51.8828 107.067 51.8828C100.919 51.8828 95.9351 56.867 95.9351 63.0152C95.9351 69.1635 100.919 74.1477 107.067 74.1477Z" fill="#135BA3" stroke="black" stroke-width="1.54832" stroke-linecap="round" stroke-linejoin="round"/>
<path d="M76.6249 106.572C93.401 106.572 107.001 86.5879 107.001 61.9362C107.001 37.2845 93.401 17.3003 76.6249 17.3003C59.8488 17.3003 46.249 37.2845 46.249 61.9362C46.249 86.5879 59.8488 106.572 76.6249 106.572Z" fill="#135BA3" stroke="black" stroke-width="1.54832" stroke-linecap="round" stroke-linejoin="round"/>
<path d="M76.6138 59.0298V78.5453" stroke="black" stroke-width="1.54832" stroke-linecap="round" stroke-linejoin="round"/>
<path d="M45.4376 51.0073C45.4376 51.0073 69.8878 53.5819 65.4397 30.116C65.4397 30.116 76.2094 58.2468 95.3068 44.9888C95.9328 54.4667 112.367 56.6786 110.235 41.0118C110.235 41.0118 98.8614 13.5136 91.7789 12.6266C84.6986 11.7419 62.7014 12.6266 62.7014 12.6266L48.8351 31.7794L45.2319 43.5687L45.4354 51.0051L45.4376 51.0073Z" fill="#3D84CB"/>
<path d="M47.019 51.8962C54.1104 51.905 68.8216 47.9612 65.4397 30.1157C65.4397 30.1157 76.2093 58.2465 95.3068 44.9885C95.9327 54.4664 112.367 56.6783 110.235 41.0115" stroke="black" stroke-width="1.54832" stroke-linecap="round" stroke-linejoin="round"/>
<path d="M53.9708 73.1305C54.6878 73.1305 55.2691 72.5491 55.2691 71.8321C55.2691 71.115 54.6878 70.5337 53.9708 70.5337C53.2537 70.5337 52.6724 71.115 52.6724 71.8321C52.6724 72.5491 53.2537 73.1305 53.9708 73.1305Z" fill="black"/>
<path d="M50.6484 55.4355C52.8117 52.8432 61.7875 48.8308 69.1133 53.7191" stroke="black" stroke-width="1.54832" stroke-linecap="round" stroke-linejoin="round"/>
<path d="M102.738 55.4355C100.575 52.8432 91.5987 48.8308 84.2729 53.7191" stroke="black" stroke-width="1.54832" stroke-linecap="round" stroke-linejoin="round"/>
<path d="M92.6016 117.348C92.6016 117.348 100.135 132.431 92.8559 166.165" stroke="black" stroke-width="1.54832" stroke-linecap="round" stroke-linejoin="round"/>
<path d="M93.1057 174.911C97.9359 174.911 101.851 170.995 101.851 166.165C101.851 161.335 97.9359 157.419 93.1057 157.419C88.2755 157.419 84.3599 161.335 84.3599 166.165C84.3599 170.995 88.2755 174.911 93.1057 174.911Z" fill="#3D84CB" stroke="black" stroke-width="1.54832" stroke-linecap="round" stroke-linejoin="round"/>
<path d="M93.1059 170.964C95.7568 170.964 97.9057 168.815 97.9057 166.165C97.9057 163.514 95.7568 161.365 93.1059 161.365C90.4551 161.365 88.3062 163.514 88.3062 166.165C88.3062 168.815 90.4551 170.964 93.1059 170.964Z" fill="#3D84CB" stroke="black" stroke-width="1.54832" stroke-linecap="round" stroke-linejoin="round"/>
<path d="M60.5397 117.348C60.5397 117.348 55.2666 127.173 56.9543 141.993" stroke="black" stroke-width="1.54832" stroke-linecap="round" stroke-linejoin="round"/>
<path d="M56.8593 184.448C53.9838 180.522 51.5994 174.806 50.3851 168.228C47.9586 155.074 51.1349 143.464 57.4808 142.292C63.8267 141.119 70.9402 150.834 73.3666 163.986C74.5168 170.217 74.4084 176.103 73.3025 180.694" stroke="black" stroke-width="1.54832" stroke-linecap="round" stroke-linejoin="round"/>
<path d="M60.7447 189.153C62.1409 188.079 62.1889 185.8 60.8519 184.062C59.5149 182.324 57.2993 181.785 55.903 182.859C54.5068 183.934 54.4588 186.213 55.7958 187.951C57.1328 189.689 59.3485 190.227 60.7447 189.153Z" fill="black"/>
<path d="M75.3971 183.458C75.9402 181.333 74.9969 179.258 73.2903 178.821C71.5836 178.385 69.7598 179.754 69.2168 181.878C68.6737 184.002 69.6169 186.078 71.3236 186.515C73.0302 186.951 74.854 185.582 75.3971 183.458Z" fill="black"/>
<path d="M52.6172 63.5373C54.9795 65.6032 63.0551 71.0754 70.0823 64.557C68.2552 59.3148 60.0867 53.7497 52.6172 63.5373Z" fill="#F8F5EF"/>
<path d="M66.6207 62.544C66.6207 65.0944 64.5525 67.1647 62 67.1647C59.4475 67.1647 57.3794 65.0966 57.3794 62.544C57.3794 61.3452 57.835 60.2525 58.5849 59.4319C59.4298 58.5051 60.6463 58.5472 62 58.5472C63.2763 58.5472 65.267 59.2771 65.267 59.2771C66.1031 60.1132 66.6207 61.2678 66.6207 62.544Z" fill="black"/>
<path d="M70.0823 63.5376C63.2741 51.9672 52.6172 62.5157 52.6172 62.5157" stroke="black" stroke-width="1.54832" stroke-miterlimit="10" stroke-linecap="round"/>
<path d="M101.288 63.5373C98.9255 65.6032 90.8499 71.0754 83.8228 64.557C85.6498 59.3148 93.8183 53.7497 101.288 63.5373Z" fill="#F8F5EF"/>
<path d="M87.2817 62.544C87.2817 65.0944 89.3499 67.1647 91.9024 67.1647C94.4527 67.1647 96.523 65.0966 96.523 62.544C96.523 61.3452 96.0674 60.2525 95.3175 59.4319C94.4726 58.5051 93.2561 58.5472 91.9024 58.5472C90.6261 58.5472 88.6354 59.2771 88.6354 59.2771C87.7993 60.1132 87.2817 61.2678 87.2817 62.544Z" fill="black"/>
<path d="M168.135 148.603L151.9 195.725H132.962L151.208 142.77C152.818 138.096 157.914 135.612 162.588 137.222C167.264 138.833 169.746 143.929 168.135 148.603Z" fill="#135BA3" stroke="black" stroke-width="1.54832" stroke-linecap="round" stroke-linejoin="round"/>
<path d="M83.8203 63.5376C90.6285 51.9672 101.285 62.5157 101.285 62.5157" stroke="black" stroke-width="1.54832" stroke-miterlimit="10" stroke-linecap="round"/>
<path d="M134.143 107.908L136.488 107.005C140.106 105.612 144.161 107.434 145.546 111.073L157.959 143.709C159.58 147.969 157.45 152.738 153.194 154.377C148.916 156.023 144.114 153.88 142.486 149.595L130.095 117.019C128.711 113.38 130.522 109.299 134.141 107.908H134.143Z" fill="#B1B0AD" stroke="black" stroke-width="1.54832" stroke-miterlimit="10"/>
<path d="M211.829 80.9565C216.308 102.37 207.324 122.571 191.617 127.327C190.418 127.689 189.151 127.767 187.916 127.568L137.032 119.353C135.059 119.034 133.057 118.844 131.062 118.943C123.239 119.328 115.599 112.076 113.444 101.777C111.31 91.5714 115.302 81.9187 122.493 79.0034C124.205 78.3089 125.873 77.5082 127.423 76.4996L171.274 47.9861C172.323 47.3049 173.51 46.8625 174.751 46.7099C191.033 44.697 207.35 59.541 211.829 80.9565Z" fill="#C1C1C1" stroke="black" stroke-width="1.54832" stroke-miterlimit="10"/>
<path d="M189.483 127.89C206.44 124.4 216.461 103.473 211.867 81.1489C207.272 58.8243 189.801 43.556 172.844 47.046C155.887 50.536 145.865 71.4628 150.46 93.7874C155.055 116.112 172.526 131.38 189.483 127.89Z" fill="#B1B0AD" stroke="black" stroke-width="1.54832" stroke-miterlimit="10"/>
<path d="M185.413 86.5455C186.565 92.0531 180.79 97.9389 176.607 98.8237C172.425 99.7085 168.1 95.9615 166.95 90.4517C165.798 84.9441 168.253 79.7616 172.436 78.8747C176.618 77.9899 184.261 81.0357 185.413 86.5433V86.5455Z" fill="#C1C1C1" stroke="black" stroke-width="1.54832" stroke-miterlimit="10"/>
<path d="M206.178 92.4512C205.988 94.5525 205.654 96.5962 205.185 98.5604C203.061 107.45 198.178 114.732 191.42 118.525C189.485 119.611 187.397 120.412 185.176 120.881" stroke="#F8F5EF" stroke-width="1.54832" stroke-miterlimit="10" stroke-linecap="round"/>
<path d="M177.696 93.1547C177.696 93.1547 180.805 91.3586 181.162 87.4458" stroke="#F8F5EF" stroke-width="1.54832" stroke-miterlimit="10" stroke-linecap="round"/>
<path d="M84.7467 86.2734C84.7467 86.2734 80.0464 82.7809 76.6291 85.5966C72.6587 82.5928 68.0005 86.2734 68.0005 86.2734C68.0005 86.2734 68.925 96.4437 76.3747 96.4437C83.8243 96.4437 84.7489 86.2734 84.7489 86.2734H84.7467Z" fill="black"/>
<path d="M83.4196 87.1581C83.4196 87.1581 80.0863 85.9327 76.6291 87.2156C72.8401 85.8442 69.3276 87.1581 69.3276 87.1581C69.3276 87.1581 71.1082 93.995 76.3747 93.995C81.6412 93.995 83.4218 87.1581 83.4218 87.1581H83.4196Z" fill="#00366D"/>
</svg>
