<svg width="185" height="199" viewBox="0 0 185 199" fill="none" xmlns="http://www.w3.org/2000/svg">
<path d="M153.217 143.35C137.517 136.577 145.542 119.565 145.542 119.565C145.542 119.565 157.2 95.2854 133.98 90.8262C117.276 87.619 100.278 114.412 92.0515 129.7C83.8255 114.409 66.8272 87.6168 50.123 90.8262C26.9026 95.2854 38.5614 119.565 38.5614 119.565C38.5614 119.565 46.5862 136.577 30.8862 143.35C3.35924 154.644 6.59966 181.852 9.24729 192.984C9.96836 196.017 52.3415 194.882 52.3415 194.882L92.0515 146.123L131.762 194.882C131.762 194.882 174.256 195.687 175.042 192.177C177.638 180.589 180.098 154.38 153.217 143.35Z" fill="black" stroke="black" stroke-width="1.9907" stroke-linecap="round" stroke-linejoin="round"/>
<path d="M183.067 197.063H1.17207C1.11235 197.063 1.05263 197.063 0.995117 197.063C15.191 175.093 37.8186 159.711 75.3544 149.687H108.705C146.241 159.714 168.869 175.093 183.067 197.066V197.063Z" fill="#EB6E25" stroke="black" stroke-width="1.9907" stroke-linecap="round" stroke-linejoin="round"/>
<path d="M122.689 153.898L132.751 197.063H1.17207C1.11235 197.063 1.05263 197.063 0.995117 197.063C15.191 175.093 37.8186 159.711 75.3544 149.687H108.705C113.616 150.999 118.274 152.403 122.689 153.901V153.898Z" fill="#EB6E25" stroke="black" stroke-width="1.9907" stroke-linecap="round" stroke-linejoin="round"/>
<path d="M183.067 197.063H163.061L156.836 170.357C167.883 177.891 176.403 186.751 183.067 197.063Z" fill="#EB6E25" stroke="black" stroke-width="1.9907" stroke-linecap="round" stroke-linejoin="round"/>
<path d="M109.588 116.115V149.767C122.751 153.299 134.253 157.495 144.292 162.406C144.292 162.406 130.652 180.306 92.0519 180.306C53.45 180.306 39.8115 162.406 39.8115 162.406C49.8513 157.495 61.3531 153.301 74.5161 149.767V116.115H109.588Z" fill="#F79E71" stroke="black" stroke-width="1.9907" stroke-linecap="round" stroke-linejoin="round"/>
<path d="M135.109 59.6432C131.313 70.1762 131.773 88.4619 141.423 91.939C151.074 95.4161 166.263 82.7685 170.059 72.2355C173.854 61.7025 169.105 50.3466 159.455 46.8695C149.804 43.3924 138.904 49.1102 135.109 59.6432Z" fill="#F79E71" stroke="black" stroke-width="1.9907" stroke-linecap="round" stroke-linejoin="round"/>
<path d="M49.0394 59.6432C52.835 70.1762 52.3749 88.4619 42.7244 91.939C33.074 95.4161 17.8849 82.7685 14.0893 72.2355C10.2937 61.7025 15.0427 50.3466 24.6931 46.8695C34.3436 43.3924 45.2438 49.1102 49.0394 59.6432Z" fill="#F79E71" stroke="black" stroke-width="1.9907" stroke-linecap="round" stroke-linejoin="round"/>
<path d="M148.8 61.8154C148.8 95.4073 123.061 131.412 92.0742 131.412C61.0879 131.412 35.3481 95.4073 35.3481 61.8154C35.3481 28.2235 51.8665 0.995117 92.0742 0.995117C132.282 0.995117 148.8 28.2257 148.8 61.8176V61.8154Z" fill="#F79E71" stroke="black" stroke-width="1.9907" stroke-linecap="round" stroke-linejoin="round"/>
<path d="M132.598 66.1862C132.598 58.7697 125.576 52.7578 118.159 52.7578C110.743 52.7578 104.227 58.2654 104.227 65.6819C104.227 65.6819 109.394 70.8776 118.159 70.8776C125.653 70.8776 132.598 66.1884 132.598 66.1884V66.1862Z" fill="#F8F5EF"/>
<path d="M117.827 70.8752C122.668 70.8752 126.593 66.9506 126.593 62.1095C126.593 57.2683 122.668 53.3438 117.827 53.3438C112.986 53.3438 109.062 57.2683 109.062 62.1095C109.062 66.9506 112.986 70.8752 117.827 70.8752Z" fill="black"/>
<path d="M132.598 66.1862C132.598 58.7697 125.576 52.7578 118.159 52.7578C110.743 52.7578 104.227 58.2654 104.227 65.6819" stroke="black" stroke-width="1.9907" stroke-linecap="round" stroke-linejoin="round"/>
<path d="M92.0737 53.1689V79.2383" stroke="black" stroke-width="1.9907" stroke-linecap="round" stroke-linejoin="round"/>
<path d="M53.2998 48.7808C53.2998 48.7808 58.0133 42.8596 68.2101 44.9498" stroke="black" stroke-width="1.9907" stroke-linecap="round" stroke-linejoin="round"/>
<path d="M130.849 48.7808C130.849 48.7808 126.136 42.8596 115.939 44.9498" stroke="black" stroke-width="1.9907" stroke-linecap="round" stroke-linejoin="round"/>
<path d="M130.081 13.7683C114.684 1.8573 93.9299 1.16719 92.0741 1.18488C90.2184 1.1694 69.4642 1.8573 54.0673 13.7683C44.4743 24.1819 40.0527 36.376 40.0527 36.376C40.0527 36.376 69.305 49.9305 75.8079 24.4318C81.1695 3.40783 90.7691 1.38395 92.0741 1.20479C93.3791 1.38395 102.979 3.40783 108.34 24.4318C114.843 49.9305 144.096 36.376 144.096 36.376C144.096 36.376 139.674 24.1819 130.081 13.7683Z" fill="black" stroke="black" stroke-width="1.9907" stroke-linecap="round" stroke-linejoin="round"/>
<path d="M102.552 102.258C97.4864 100.853 95.3939 98.3493 92.0761 103.154C88.756 98.3493 86.6636 100.853 81.6006 102.258C81.6006 102.258 83.8346 111.616 92.0761 111.616C100.318 111.616 102.552 102.258 102.552 102.258Z" fill="#CC4D0D" stroke="#CC4D0D" stroke-width="1.9907" stroke-linecap="round" stroke-linejoin="round"/>
<path d="M51.5498 66.1862C51.5498 58.7697 58.5725 52.7578 65.989 52.7578C73.4055 52.7578 79.9217 58.2654 79.9217 65.6819C79.9217 65.6819 74.7547 70.8776 65.989 70.8776C58.4951 70.8776 51.5498 66.1884 51.5498 66.1884V66.1862Z" fill="#F8F5EF"/>
<path d="M66.3209 70.8752C71.1621 70.8752 75.0866 66.9506 75.0866 62.1095C75.0866 57.2683 71.1621 53.3438 66.3209 53.3438C61.4797 53.3438 57.5552 57.2683 57.5552 62.1095C57.5552 66.9506 61.4797 70.8752 66.3209 70.8752Z" fill="black"/>
<path d="M51.5498 66.1862C51.5498 58.7697 58.5725 52.7578 65.989 52.7578C73.4055 52.7578 79.9217 58.2654 79.9217 65.6819" stroke="black" stroke-width="1.9907" stroke-linecap="round" stroke-linejoin="round"/>
<path d="M124.84 144.88C118.762 144.88 113.816 139.908 113.816 133.799V101.839C97.4637 96.9663 86.1079 81.7176 86.1079 64.4914C86.1079 43.014 103.482 25.54 124.84 25.54C146.198 25.54 163.573 43.014 163.573 64.4914C163.573 81.7176 152.217 96.9663 135.864 101.839V133.799C135.864 139.91 130.919 144.88 124.84 144.88Z" fill="#919191"/>
<path d="M124.841 26.5332C145.683 26.5332 162.578 43.5271 162.578 64.4892C162.578 81.9587 150.843 96.6699 134.869 101.087V133.796C134.869 139.368 130.379 143.883 124.841 143.883C119.302 143.883 114.812 139.366 114.812 133.796V101.087C98.8398 96.6677 87.1035 81.9587 87.1035 64.4892C87.1035 43.5271 103.998 26.5332 124.841 26.5332ZM124.841 24.5425C119.477 24.5425 114.272 25.5998 109.373 27.6834C104.642 29.6962 100.393 32.5761 96.7451 36.2456C93.0977 39.9129 90.2355 44.1863 88.2338 48.9418C86.1634 53.8677 85.1128 59.0966 85.1128 64.487C85.1128 68.9815 85.8494 73.3965 87.3048 77.6035C88.7115 81.6733 90.7575 85.4712 93.3897 88.8929C95.9931 92.2794 99.1008 95.2101 102.624 97.6056C105.783 99.7511 109.207 101.417 112.821 102.569V133.794C112.821 140.454 118.214 145.871 124.841 145.871C131.467 145.871 136.86 140.452 136.86 133.794V102.569C140.474 101.417 143.898 99.7511 147.057 97.6056C150.582 95.2101 153.688 92.2794 156.291 88.8929C158.921 85.4712 160.97 81.6733 162.376 77.6035C163.832 73.3942 164.568 68.9815 164.568 64.487C164.568 59.0966 163.518 53.8655 161.447 48.9418C159.448 44.184 156.583 39.9129 152.936 36.2456C149.289 32.5761 145.039 29.6962 140.308 27.6834C135.409 25.5998 130.204 24.5425 124.841 24.5425Z" fill="black"/>
<path d="M124.841 92.9628C140.449 92.9628 153.102 80.2365 153.102 64.5378C153.102 48.8391 140.449 36.1128 124.841 36.1128C109.233 36.1128 96.5796 48.8391 96.5796 64.5378C96.5796 80.2365 109.233 92.9628 124.841 92.9628Z" fill="#B7D8F3"/>
<path d="M144.75 77.3052C141.563 82.3217 136.555 86.0532 130.66 87.5573" stroke="#F8F5EF" stroke-width="1.9907" stroke-miterlimit="10" stroke-linecap="round"/>
<path d="M145.438 68.7985C145.438 57.9536 135.171 49.1636 124.326 49.1636C113.481 49.1636 103.952 57.2171 103.952 68.062C103.952 68.062 111.508 75.6576 124.326 75.6576C135.284 75.6576 145.438 68.8007 145.438 68.8007V68.7985Z" fill="#F8F5EF"/>
<path d="M123.838 75.6553C130.918 75.6553 136.656 69.9165 136.656 62.8374C136.656 55.7583 130.918 50.0195 123.838 50.0195C116.759 50.0195 111.021 55.7583 111.021 62.8374C111.021 69.9165 116.759 75.6553 123.838 75.6553Z" fill="black"/>
<path d="M145.438 68.7985C145.438 57.9536 135.171 49.1636 124.326 49.1636C113.481 49.1636 103.952 57.2171 103.952 68.062" stroke="black" stroke-width="2.03051" stroke-linecap="round" stroke-linejoin="round"/>
<path d="M163.06 197.063H132.751L122.689 153.898L119.78 141.421C117.929 133.483 122.863 125.546 130.804 123.695C138.743 121.844 146.679 126.781 148.528 134.719L156.836 170.357L163.06 197.063Z" fill="#F79E71" stroke="black" stroke-width="1.9907" stroke-linecap="round" stroke-linejoin="round"/>
</svg>
